<svg width="90" height="85" viewBox="0 0 90 85" fill="none" xmlns="http://www.w3.org/2000/svg">
<path fill-rule="evenodd" clip-rule="evenodd" d="M21.0735 3.2362C20.4462 3.50735 19.7984 4.28462 19.5953 5.00966C19.5061 5.32852 19.4327 6.12699 19.4322 6.78373L19.4313 7.97794L17.7922 8.03111C16.4352 8.07508 16.0785 8.13963 15.7197 8.40579C14.8742 9.03275 14.6435 9.50597 14.5596 10.7845L14.481 11.9823L13.0379 12.0603C11.4904 12.1439 11.07 12.3277 10.4048 13.2118L10.0808 13.6424L10.0404 46.4259L10 79.2093L10.363 79.8904C10.6115 80.3564 10.9418 80.6847 11.4103 80.9304L12.0947 81.2895H34.6663H57.2381L57.9324 80.9387C58.9037 80.448 59.3477 79.572 59.3477 78.1466V77.0796H60.6204C62.9573 77.0796 63.7316 76.3366 63.868 73.963L63.9486 72.5579H64.8619C66.0261 72.5579 67.192 72.3051 67.61 71.9621C68.4104 71.3052 68.5369 70.8925 68.6196 68.6678L68.6982 66.5549L69.7196 66.4311C71.0154 66.2739 73.0743 65.5748 74.2385 64.8967C75.6793 64.0575 77.85 61.793 78.6279 60.318C79.6466 58.386 80.0006 56.9375 80 54.7048C79.9992 52.4435 79.75 51.3871 78.7323 49.3315C78.1153 48.085 77.7798 47.6368 76.5716 46.4441C75.7656 45.6483 74.6955 44.7759 74.1199 44.4454C72.9483 43.7724 71.0132 43.1339 69.6411 42.9677L68.6982 42.8535L68.6196 29.6788C68.5542 18.7159 68.5038 16.4386 68.3188 16.1142C67.9096 15.3967 55.9884 3.4467 55.4632 3.22778C54.7222 2.91875 21.7895 2.9267 21.0735 3.2362ZM54.0045 8.52366C54.0045 11.3859 54.0576 12.3398 54.2541 13.0064C54.7719 14.7633 56.1008 16.2539 57.905 17.102L58.9548 17.5955L62.8443 17.6465L66.7338 17.6975V30.2897V42.8821L65.3912 43.2109C63.9791 43.5568 62.4547 44.1789 61.9842 44.6014C61.4482 45.0828 61.8076 46.2071 62.4974 46.2071C62.6472 46.2071 63.2196 45.9993 63.7696 45.7454C65.265 45.0547 66.4724 44.7918 68.1481 44.7918C70.9967 44.7918 73.1374 45.674 75.1759 47.6881C76.2105 48.7101 76.5939 49.2253 77.1013 50.2753C78.5602 53.2937 78.5547 56.176 77.0845 59.1486C75.8413 61.6625 73.3352 63.6773 70.5903 64.3696C69.3877 64.6729 66.9085 64.6729 65.706 64.3696C60.4496 63.044 57.1549 57.7558 58.3468 52.5572C58.4876 51.9424 58.7351 51.1333 58.8968 50.7592C59.2999 49.8261 59.2724 49.3859 58.7912 49.0731C57.9726 48.5409 57.3779 49.2187 56.6527 51.5103C56.3442 52.4855 56.2832 53.012 56.2832 54.7048C56.2832 57.0416 56.5642 58.1856 57.6616 60.318C58.6006 62.1423 60.7993 64.2897 62.661 65.2005C63.4031 65.5635 64.6229 66.0106 65.3719 66.1941L66.7338 66.5276L66.7314 68.3344C66.73 69.3281 66.662 70.2463 66.5799 70.375C66.4487 70.5811 63.7784 70.6088 44.0971 70.6088C22.1704 70.6088 21.7591 70.6034 21.5401 70.3062C21.3491 70.0471 21.3171 65.3654 21.3171 37.7922C21.3171 8.89086 21.3422 5.5454 21.5618 5.23449L21.8063 4.88788H37.9055H54.0045V8.52366ZM62.6742 15.7672C59.1721 15.8213 58.5706 15.6692 57.2931 14.4071C56.0084 13.1377 55.8889 12.6777 55.8968 9.03103L55.9032 6.05729L60.6723 10.8909L65.4414 15.7244L62.6742 15.7672ZM24.391 9.6173C23.9786 9.91651 23.8639 11.3023 24.2082 11.8239C24.5106 12.2815 25.2385 12.3572 25.6276 11.9712C25.995 11.6065 25.967 10.0088 25.587 9.66766C25.2399 9.35597 24.7782 9.33648 24.391 9.6173ZM19.435 39.8533C19.4372 57.2881 19.4985 70.0851 19.5817 70.4409C19.761 71.2076 20.1755 71.7669 20.8621 72.1681C21.3872 72.4749 21.7173 72.4805 41.7074 72.5217L62.0192 72.5636V73.4861C62.0192 73.9934 61.9502 74.5886 61.866 74.8086L61.7128 75.2085H39.2677C22.0199 75.2085 16.7789 75.1652 16.634 75.0214C16.3596 74.7492 16.3596 10.3367 16.634 10.0645C16.7504 9.94894 17.322 9.87737 18.1269 9.87737H19.4313L19.435 39.8533ZM14.5596 44.6248V75.3183L14.9169 75.8444C15.1134 76.1338 15.5129 76.5301 15.8045 76.725L16.3348 77.0796H36.8983H57.4619V78.0041C57.4619 79.5745 59.9769 79.4184 34.6749 79.4184C14.618 79.4184 12.3571 79.3938 12.1349 79.1735C11.9121 78.9522 11.888 75.7831 11.888 46.617C11.888 21.6937 11.9311 14.2628 12.0766 14.1184C12.1888 14.0071 12.7297 13.9313 13.4124 13.9313H14.5596V44.6248ZM24.3745 14.3141L23.9887 14.6968V22.6212C23.9887 31.3548 23.9759 31.2386 24.9292 31.2386C25.9094 31.2386 25.8745 31.5581 25.8745 22.5826V14.4167L25.5251 14.1741C25.046 13.8411 24.8239 13.868 24.3745 14.3141ZM27.8632 14.2165C27.492 14.6235 27.5349 15.2695 27.9525 15.5596C28.2075 15.7371 28.6944 15.8024 29.7597 15.8024C31.0081 15.8024 31.2627 15.7576 31.5319 15.4906C31.9242 15.1014 31.9359 14.528 31.5588 14.1894C31.1184 13.794 28.2292 13.8152 27.8632 14.2165ZM33.6778 14.2165C33.3281 14.5999 33.3498 15.1114 33.732 15.4906C34.0361 15.7923 34.2558 15.8024 40.4545 15.8024C47.5236 15.8024 47.5613 15.7974 47.5613 14.8692C47.5613 13.9109 47.7152 13.9313 40.5027 13.9313C34.3424 13.9313 33.9219 13.949 33.6778 14.2165ZM49.3775 14.2779C49.0268 14.7747 49.0741 15.1103 49.5469 15.4792C49.8237 15.6953 50.1908 15.8024 50.6541 15.8024C51.8695 15.8024 52.5026 14.7679 51.6799 14.1262C51.5424 14.0191 51.0232 13.9313 50.5261 13.9313C49.7701 13.9313 49.5821 13.9881 49.3775 14.2779ZM28.4675 21.6789C27.7972 21.8384 27.5291 22.7231 28.0072 23.1976C28.2264 23.4151 29.3538 23.4426 38.0457 23.4426C46.5664 23.4426 47.8626 23.4121 48.0333 23.2082C48.3097 22.8776 48.2765 22.2144 47.9683 21.9084C47.7315 21.6733 46.8345 21.6474 38.2446 21.6268C33.0401 21.6144 28.6403 21.6378 28.4675 21.6789ZM50.5852 21.7248C50.0242 21.961 49.8185 22.566 50.1356 23.0464C50.3659 23.395 50.5063 23.4426 51.3051 23.4426C51.8044 23.4426 52.2979 23.3584 52.4016 23.2554C52.664 22.9951 52.6376 22.1166 52.3606 21.8885C52.0522 21.6345 51.0245 21.5397 50.5852 21.7248ZM55.1046 21.682C54.3371 21.9621 54.0864 22.7178 54.6063 23.1845C54.8478 23.4015 55.285 23.4426 57.3528 23.4426H59.8119L60.0735 23.0464C60.4025 22.5483 60.1774 21.9515 59.5751 21.7243C59.1542 21.5656 55.5182 21.5313 55.1046 21.682ZM28.1096 29.6103C27.6782 29.91 27.6462 30.6201 28.0477 30.9806C28.3014 31.2084 28.8779 31.2386 32.9736 31.2386C37.2678 31.2386 37.6314 31.2174 37.8722 30.9535C38.2218 30.57 38.2001 30.0586 37.818 29.6794C37.5183 29.3821 37.2942 29.3676 32.9813 29.3676C29.1424 29.3676 28.406 29.4042 28.1096 29.6103ZM40.0181 29.6794C39.3712 30.3212 39.8111 31.2386 40.7656 31.2386C41.3746 31.2386 41.7467 30.883 41.7467 30.3008C41.7467 29.4678 40.6344 29.0679 40.0181 29.6794ZM43.8247 29.6103C43.3934 29.91 43.3613 30.6201 43.7628 30.9806C44.0221 31.2135 44.8179 31.2386 51.9257 31.2386H59.8014L60.0459 30.892C60.3751 30.4257 60.3539 30.0541 59.9763 29.6794C59.6705 29.376 59.4525 29.3676 51.918 29.3676C45.1634 29.3676 44.1293 29.3986 43.8247 29.6103ZM28.0204 37.4488C27.6383 37.8676 27.6908 38.5146 28.1299 38.8001C28.442 39.0029 29.0934 39.0339 32.3169 38.9985L36.1342 38.9568L36.4421 38.5475C36.705 38.1979 36.7212 38.0841 36.5532 37.7679C36.4451 37.5642 36.2787 37.3459 36.1836 37.2829C36.0885 37.2199 34.2714 37.1674 32.1456 37.166C28.5988 37.1638 28.2591 37.1872 28.0204 37.4488ZM38.6037 37.4755C38.4308 37.647 38.2894 37.9277 38.2894 38.0992C38.2894 38.2707 38.4308 38.5514 38.6037 38.7229C38.9097 39.0265 39.1275 39.0347 46.8541 39.0347C54.5808 39.0347 54.7986 39.0265 55.1046 38.7229C55.2775 38.5514 55.4189 38.2707 55.4189 38.0992C55.4189 37.9277 55.2775 37.647 55.1046 37.4755C54.7986 37.1719 54.5808 37.1637 46.8541 37.1637C39.1275 37.1637 38.9097 37.1719 38.6037 37.4755ZM57.387 37.3754C57.2052 37.5075 57.0952 37.7803 57.0952 38.0992C57.0952 38.81 57.4736 39.0347 58.6705 39.0347C59.746 39.0347 60.2906 38.7204 60.2906 38.0992C60.2906 37.478 59.746 37.1637 58.6705 37.1637C58.0832 37.1637 57.5601 37.25 57.387 37.3754ZM28.0204 45.2449C27.6707 45.6283 27.6924 46.1398 28.0746 46.519C28.3619 46.804 28.5984 46.8308 30.8318 46.8308C33.2161 46.8308 33.2841 46.8216 33.6605 46.448C34.1101 46.0021 34.1373 45.7818 33.8016 45.3064C33.5654 44.9716 33.4669 44.9597 30.9187 44.9597C28.5624 44.9597 28.2526 44.9901 28.0204 45.2449ZM35.8647 45.2047C35.4982 45.5685 35.5523 46.2999 35.9672 46.588C36.2625 46.7934 36.9783 46.8308 40.6102 46.8308H44.9041L45.2897 46.448C45.7393 46.0021 45.7665 45.7818 45.4308 45.3064C45.1877 44.9618 45.1594 44.9597 40.649 44.9597C36.7338 44.9597 36.0778 44.9933 35.8647 45.2047ZM47.5071 45.2449C47.1575 45.6283 47.1791 46.1398 47.5613 46.519C47.8409 46.7963 48.0851 46.8308 49.7685 46.8308C51.5688 46.8308 51.6804 46.8121 52.0472 46.448C52.4968 46.0021 52.524 45.7818 52.1883 45.3064C51.9564 44.9777 51.8352 44.9597 49.8554 44.9597C48.032 44.9597 47.7342 44.9959 47.5071 45.2449ZM69.6063 53.5691L65.6438 57.5007L64.167 56.0639C63.3446 55.2637 62.557 54.6269 62.3896 54.6269C61.8842 54.6269 61.3906 55.0753 61.3906 55.5347C61.3906 56.1181 65.0488 59.7723 65.6329 59.7723C65.9309 59.7723 67.0463 58.7544 70.463 55.3644C75.1366 50.7274 75.3021 50.5096 74.6182 49.8954C73.9607 49.305 73.7438 49.464 69.6063 53.5691ZM28.3889 52.7081C27.7765 52.9253 27.5609 53.783 28.0072 54.226C28.1759 54.3933 28.5481 54.471 29.1822 54.471C30.0027 54.471 30.1406 54.4251 30.372 54.0748C30.971 53.1676 29.6535 52.2597 28.3889 52.7081ZM32.7891 52.705C32.1753 52.9308 31.9614 53.7833 32.4074 54.226C32.6221 54.4388 33.3406 54.471 37.8965 54.471C42.4525 54.471 43.171 54.4388 43.3857 54.226C43.6927 53.9213 43.7031 53.379 43.4097 52.9805C43.1977 52.6928 42.9353 52.6765 38.1059 52.6481C35.3112 52.6317 32.9188 52.6573 32.7891 52.705ZM45.8707 52.7557C45.3103 52.9878 45.1036 53.5941 45.4211 54.0748L45.6827 54.471H48.3395C50.5452 54.471 51.0381 54.4293 51.2432 54.226C51.5501 53.9213 51.5607 53.3792 51.2674 52.9805C51.0658 52.7066 50.8161 52.6746 48.6351 52.6432C47.3099 52.6242 46.0659 52.6747 45.8707 52.7557ZM28.1096 60.6387C27.6782 60.9384 27.6462 61.6485 28.0477 62.009C28.4967 62.4122 29.7215 62.3575 30.03 61.9204C30.366 61.4447 30.3368 61.0892 29.9307 60.7139C29.515 60.3297 28.6081 60.2921 28.1096 60.6387ZM32.3527 60.6387C31.9213 60.9384 31.8893 61.6485 32.2908 62.009C32.5304 62.2242 32.9573 62.267 34.8594 62.267C36.8699 62.267 37.1714 62.2332 37.4007 61.9819C37.7504 61.5984 37.7287 61.087 37.3465 60.7078C37.0627 60.4262 36.8227 60.396 34.8671 60.396C33.1617 60.396 32.6277 60.4476 32.3527 60.6387ZM39.7388 60.6387C39.3074 60.9384 39.2754 61.6485 39.6769 62.009C39.9327 62.2388 40.5672 62.267 45.4671 62.267C50.5986 62.267 50.9875 62.2479 51.23 61.9819C51.6012 61.5749 51.5583 60.9289 51.1408 60.6387C50.8414 60.4306 50.0292 60.396 45.4398 60.396C40.8503 60.396 40.0382 60.4306 39.7388 60.6387Z" fill="#2F2F2F"/>
</svg>
