<svg width="90" height="85" viewBox="0 0 90 85" fill="none" xmlns="http://www.w3.org/2000/svg">
<path fill-rule="evenodd" clip-rule="evenodd" d="M43.5971 10.1202C41.9403 10.4259 40.1081 11.5972 39.1939 12.9357C38.2725 14.2843 38.1126 15.007 38.1126 17.8203C38.1126 20.8364 38.3246 21.7 39.403 23.0761C42.4723 26.9923 48.8822 26.456 51.1463 22.0934C51.8884 20.6637 52.1618 17.8088 51.7749 15.5302C51.1566 11.8877 47.419 9.41513 43.5971 10.1202ZM46.5181 11.9666C47.8415 12.3506 48.9801 13.3108 49.5948 14.5613C50.0273 15.4408 50.0361 15.5078 50.0361 17.8875V20.3162L49.5409 21.2607C48.6159 23.0257 46.9735 24.0007 44.9254 24.0007C43.9214 24.0007 43.625 23.9376 42.7678 23.5411C41.5619 22.9835 40.6753 22.0859 40.2325 20.9742C39.9417 20.244 39.9167 19.933 39.962 17.6003C40.0074 15.2586 40.0422 14.9775 40.3542 14.4285C41.0845 13.1436 42.2762 12.2391 43.7218 11.873C44.7275 11.6183 45.3949 11.6407 46.5181 11.9666ZM26.12 13.6886C24.3205 14.02 22.6415 15.2808 21.8135 16.9226L21.3285 17.8844V20.5953V23.3061L21.8135 24.2679C22.6978 26.0212 24.3495 27.1953 26.412 27.5366C29.5359 28.0535 32.7069 25.9806 33.3851 22.9781C33.479 22.5622 33.5558 21.49 33.5558 20.5953C33.5558 17.9967 33.1255 16.7243 31.7943 15.3876C30.3596 13.9467 28.2115 13.3035 26.12 13.6886ZM61.0642 13.7586C58.7361 14.3466 57 16.0446 56.5103 18.2124C56.2913 19.1823 56.2899 21.9988 56.508 22.9781C56.8774 24.637 58.1781 26.228 59.7933 26.9967C62.8532 28.4533 66.592 27.2223 68.0819 24.2679L68.5669 23.3061V20.5953V17.8844L68.0819 16.9226C67.2266 15.2268 65.5754 14.0183 63.6477 13.6774C62.5854 13.4895 62.0641 13.506 61.0642 13.7586ZM29.2845 15.7356C30.1181 16.1323 31.0072 17.0002 31.373 17.7743C31.7538 18.5797 31.8499 21.9283 31.5227 22.9854C31.22 23.9636 30.2069 25.067 29.1906 25.5256C28.0639 26.0339 26.5857 26.0018 25.4235 25.4437C24.4291 24.9661 23.5357 24.0032 23.2469 23.0975C23.0209 22.3893 23.0241 18.7099 23.2513 18.084C24.0996 15.7458 26.9639 14.631 29.2845 15.7356ZM64.5374 15.7835C65.4647 16.2229 66.3669 17.21 66.6485 18.093C66.743 18.3888 66.8201 19.5149 66.8201 20.5953C66.8201 21.6756 66.743 22.8017 66.6485 23.0975C66.3597 24.0032 65.4663 24.9661 64.4719 25.4437C63.3098 26.0018 61.8316 26.0339 60.7048 25.5256C59.7257 25.0839 58.6807 23.9664 58.3917 23.0523C58.0657 22.0214 58.08 19.0839 58.4157 18.1077C58.8473 16.852 60.1528 15.723 61.5799 15.371C62.349 15.1813 63.6491 15.3626 64.5374 15.7835ZM38.2645 26.5557C37.0906 26.9329 36.1175 27.4601 35.348 28.1356L34.786 28.6289L33.8506 28.2741C33.3363 28.0789 32.5471 27.8836 32.0969 27.8399C31.2881 27.7615 31.2692 27.7685 30.5157 28.4306C29.4871 29.3345 28.7056 29.6485 27.4801 29.6506C26.2643 29.6528 25.2403 29.2367 24.3735 28.3882C23.8565 27.882 23.6842 27.8004 23.1339 27.8004C22.3389 27.8004 20.8659 28.2225 20.0028 28.6976C19.1793 29.1508 17.8915 30.4214 17.4714 31.1951C16.8105 32.4119 16.6957 33.2311 16.6981 36.712C16.6995 38.52 16.7507 40.0699 16.812 40.1562C17.1378 40.6145 17.6055 40.6413 25.2677 40.6413H32.9483V41.7726C32.9483 42.6106 33.0101 42.9618 33.1869 43.128C33.3998 43.3279 34.6807 43.3521 45.0041 43.3521C53.8071 43.3521 56.6264 43.311 56.7649 43.1809C56.8774 43.0752 56.9472 42.5563 56.9472 41.8255V40.6413H64.6277C72.2899 40.6413 72.7576 40.6145 73.0834 40.1562C73.1448 40.0699 73.1959 38.52 73.1973 36.712C73.2003 32.3491 72.954 31.4726 71.2408 29.7522C70.4171 28.925 69.5619 28.4323 68.3201 28.0692C66.8713 27.6456 66.4766 27.6983 65.6984 28.4188C64.6795 29.3623 64.0841 29.5839 62.5672 29.5839C61.4426 29.5839 61.188 29.5351 60.5926 29.2048C60.2166 28.9963 59.6846 28.5864 59.4104 28.2939C58.9157 27.7665 58.9038 27.7627 57.9647 27.8335C57.444 27.8727 56.6084 28.0602 56.1078 28.2503L55.1977 28.5955L54.3024 27.9181C53.3046 27.1631 52.3855 26.7138 51.2512 26.4266C49.89 26.082 49.5673 26.1482 48.6144 26.9675C47.5276 27.9019 46.6721 28.2583 45.3274 28.337C43.8773 28.4219 42.8069 28.0371 41.6185 27.0036C40.7938 26.2865 40.677 26.2313 39.9909 26.2347C39.5844 26.2367 38.8075 26.3812 38.2645 26.5557ZM40.4765 28.3838C41.8341 29.7251 44.4788 30.3914 46.6121 29.9297C47.5505 29.7265 48.6871 29.1695 49.5468 28.4915L50.2727 27.9191L51.1239 28.1707C52.8456 28.6793 54.3981 30.1443 54.9106 31.744C55.0754 32.2583 55.1245 33.4697 55.1245 37.0257V41.64H44.9419H34.7594L34.8032 36.8247L34.8469 32.0094L35.2722 31.1533C35.966 29.7564 37.1974 28.7267 38.8637 28.15C39.6942 27.8626 39.9927 27.9059 40.4765 28.3838ZM23.5703 30.0283C23.9045 30.3119 24.5622 30.7132 25.0317 30.92C25.7841 31.2515 26.0744 31.296 27.4801 31.296C28.8859 31.296 29.1762 31.2515 29.9286 30.92C30.3981 30.7132 31.0549 30.3127 31.388 30.03L31.9938 29.516L32.7683 29.732C33.1943 29.8508 33.5774 30.0005 33.6196 30.0648C33.6618 30.129 33.5466 30.5287 33.3634 30.9528C33.0607 31.6537 33.0231 32.0493 32.9513 35.2909L32.8723 38.8578L25.6843 38.8949L18.4965 38.932L18.5454 35.9701C18.5937 33.0585 18.6018 32.9943 19.0198 32.1944C19.5424 31.1947 20.6865 30.1981 21.7541 29.8126C22.816 29.4291 22.8719 29.4356 23.5703 30.0283ZM58.9564 30.1965C60.2346 31.1054 61.2931 31.4121 62.913 31.3432C64.3334 31.2829 65.4608 30.8751 66.571 30.0206C67.1333 29.5879 67.2855 29.5351 67.6716 29.6391C69.0324 30.0056 70.3572 31.09 70.9727 32.3409C71.2695 32.944 71.3056 33.2925 71.35 35.9701L71.3989 38.932L64.2111 38.8949L57.0231 38.8578L56.944 35.2196C56.8711 31.8705 56.8378 31.5213 56.5255 30.8253L56.1863 30.0693L56.6806 29.8808C57.9165 29.4095 57.8333 29.398 58.9564 30.1965ZM58.9218 47.0383C58.4623 47.184 56.9428 47.8908 55.5451 48.6092L53.0036 49.9153L49.6213 49.9128C45.613 49.9098 44.919 49.8001 42.4813 48.7844C39.7234 47.6351 38.7608 47.436 35.9861 47.4404C33.2627 47.4445 32.0481 47.6832 29.947 48.6267C28.3619 49.3384 27.5925 49.8354 25.8853 51.2507C25.1334 51.8741 24.1141 52.5642 23.62 52.7843C22.7481 53.1728 22.4677 53.1979 22.4677 52.8873C22.4677 52.512 21.3648 49.4704 21.1584 49.2765C20.96 49.0902 20.1711 49.0592 15.6253 49.0592H10.3234L10.0864 49.3989C9.86708 49.7134 9.97294 50.6881 11.5121 62.5351C12.8756 73.0301 13.2222 75.3813 13.4399 75.607C13.6952 75.8721 13.9915 75.8824 21.4045 75.8824C28.6707 75.8824 29.118 75.8677 29.3553 75.6214C29.4935 75.4779 29.6066 75.2246 29.6066 75.0585C29.6066 74.8925 29.1965 73.5028 28.6953 71.9705C28.194 70.438 27.7839 69.0924 27.7839 68.9801C27.7839 68.7772 33.4231 65.3304 34.2216 65.0454C34.9907 64.7706 35.9878 64.8904 42.7248 66.0676C49.0688 67.1762 49.5385 67.2387 51.4791 67.231C53.7442 67.2222 54.9003 67.0311 56.9523 66.3263C58.0627 65.9451 59.2647 65.2219 65.7569 61.0289C69.8921 58.3581 74.7299 55.2389 76.5075 54.0974C78.2849 52.9558 79.8116 51.895 79.9 51.7399C80.1427 51.3139 79.9576 50.8803 79.1911 50.0795C78.7453 49.6136 78.1332 49.1855 77.4842 48.8853C76.5432 48.4498 76.3652 48.4171 74.9386 48.4171C73.6376 48.4171 73.2865 48.4691 72.6262 48.7593L71.8478 49.1013L71.3029 48.652C71.0032 48.4047 70.4017 48.0276 69.9663 47.8139C69.2878 47.4809 68.9896 47.4247 67.8834 47.4218C66.7689 47.4188 66.4851 47.4713 65.8082 47.8055L65.0243 48.1927L64.6391 47.9081C64.4272 47.7516 63.8633 47.4555 63.3859 47.2502C62.212 46.7454 60.1536 46.6477 58.9218 47.0383ZM62.703 48.8353L63.2183 49.0877L62.3992 49.5095C61.9485 49.7415 61.0464 50.1987 60.3944 50.5256L59.2088 51.12L58.4957 50.7495C58.1035 50.5456 57.5184 50.2992 57.1955 50.2019L56.6084 50.025L57.4233 49.5941C59.1949 48.6573 59.8204 48.4736 61.0482 48.5304C61.7435 48.5625 62.3884 48.6814 62.703 48.8353ZM38.0467 49.2091C39.2897 49.4162 40.2163 49.7074 41.9603 50.4394C44.5405 51.5225 44.521 51.5199 50.7955 51.6142C56.1323 51.6944 56.4514 51.7143 57.1258 52.007C58.4465 52.5804 59.6121 53.8301 59.9947 55.0833L60.1156 55.4796L59.3288 55.4771C58.8961 55.4756 57.175 55.4111 55.5042 55.3338C52.4717 55.1934 48.3844 55.3442 47.5967 55.6256C46.9297 55.8637 46.9232 56.9723 47.5879 57.129C47.7844 57.1752 48.9965 57.1445 50.2817 57.0608C52.0594 56.9448 53.6535 56.9549 56.9472 57.1031C61.7697 57.3203 61.8979 57.304 61.9877 56.466C62.0339 56.0355 62.2369 55.9175 67.8074 53.0825C73.5526 50.1587 73.5843 50.1448 74.6547 50.0872C75.5197 50.0405 75.8819 50.0905 76.5046 50.3421C76.9305 50.5142 77.3909 50.7712 77.5277 50.9133C77.8251 51.2219 78.8179 50.5349 68.0353 57.4812C63.7329 60.253 59.5489 62.95 58.7375 63.4746C56.3931 64.9907 53.3136 65.7706 50.5319 65.5527C49.8822 65.5018 46.4036 64.9481 42.8016 64.3221C39.0101 63.6634 35.8453 63.1842 35.2856 63.1842C33.9392 63.1842 33.2934 63.456 30.0878 65.3721C28.5565 66.2875 27.2555 67.0364 27.197 67.0364C27.0953 67.0364 23.2228 55.2578 23.2313 54.9744C23.2336 54.8992 23.7634 54.6015 24.4084 54.313C25.2186 53.9506 26.065 53.39 27.1446 52.5007C29.49 50.5684 31.0329 49.7896 33.4987 49.2929C34.7509 49.0406 36.8066 49.0028 38.0467 49.2091ZM69.2124 49.4107C69.6509 49.6025 70.0099 49.8198 70.0099 49.8934C70.0099 50.0909 61.7825 54.2316 61.6587 54.0965C61.6007 54.0333 61.3393 53.6168 61.0776 53.1711L60.602 52.3607L63.1415 51.0796C64.5381 50.375 66.0159 49.6322 66.4251 49.4289C67.3653 48.9617 68.1738 48.9565 69.2124 49.4107ZM23.7069 62.4701C25.7821 68.8651 27.4801 74.1139 27.4801 74.1339C27.4801 74.1538 24.6466 74.1702 21.1835 74.1702H14.8869L14.8033 73.7065C14.7275 73.2858 11.8353 51.0004 11.8353 50.8365C11.8353 50.7981 13.6574 50.7837 15.8844 50.8047L19.9336 50.8426L23.7069 62.4701ZM19.6577 68.0995C17.8008 68.7384 17.1839 70.987 18.4916 72.3484C18.7988 72.6681 19.2701 73.0163 19.5389 73.122C21.611 73.9368 23.9561 72.0565 23.3889 70.0352C22.9403 68.4361 21.241 67.5546 19.6577 68.0995ZM21.4424 70.0545C21.809 70.4614 21.7752 70.8387 21.3354 71.2518C20.8748 71.6845 20.3939 71.6982 19.9333 71.2919C19.4744 70.887 19.4876 70.3935 19.9691 69.9412C20.4185 69.519 21.0003 69.5636 21.4424 70.0545Z" fill="#2F2F2F"/>
</svg>
