<svg width="90" height="85" viewBox="0 0 90 85" fill="none" xmlns="http://www.w3.org/2000/svg">
<path fill-rule="evenodd" clip-rule="evenodd" d="M12.1498 18.1986C11.4003 18.6118 11.4332 17.7843 11.4277 36.3706L11.4228 53.6784H10.9959C10.7588 53.6784 10.4426 53.8042 10.2846 53.9615C10.0087 54.236 10 54.4334 10 60.447C10 65.5798 10.0349 66.6967 10.2019 66.9242C10.3987 67.1919 10.7807 67.2017 25.0342 67.3053C33.0809 67.3639 42.0655 67.4118 45 67.4118C47.9345 67.4118 56.9191 67.3639 64.9658 67.3053C79.2193 67.2017 79.6013 67.1919 79.7981 66.9242C79.9651 66.6967 80 65.5798 80 60.447C80 54.4334 79.9913 54.236 79.7154 53.9615C79.5574 53.8042 79.2412 53.6784 79.0041 53.6784H78.5772V36.3989C78.5772 17.6195 78.6166 18.5409 77.7987 18.1701C77.5142 18.041 71.6966 18.0009 53.2769 18.0009C26.668 18.0009 28.4959 17.9382 28.4959 18.8504C28.4959 19.7623 26.6964 19.6998 52.9992 19.6998H76.8699V36.6905V53.6812L63.6026 53.6093C47.0668 53.5197 42.9332 53.5197 26.3974 53.6093L13.1301 53.6812V36.6905V19.6998H17.8252C22.3307 19.6998 22.5318 19.6884 22.8049 19.4167C23.1671 19.0562 23.1671 18.6445 22.8049 18.2841C22.5309 18.0114 22.3342 18.0011 17.5051 18.0059C13.6158 18.0098 12.4134 18.053 12.1498 18.1986ZM21.7445 21.8719C21.5682 22.0002 21.4433 22.3564 21.3598 22.9691C21.0394 25.3185 19.3456 27.004 16.9846 27.3228C16.3689 27.4059 16.0109 27.5302 15.882 27.7056C15.6 28.0893 15.6 45.2889 15.882 45.6726C16.0109 45.848 16.3689 45.9723 16.9846 46.0554C19.3456 46.3743 21.0394 48.0597 21.3598 50.4091C21.4433 51.0218 21.5682 51.378 21.7445 51.5063C22.133 51.789 67.867 51.789 68.2555 51.5063C68.4318 51.378 68.5567 51.0218 68.6402 50.4091C68.9606 48.0597 70.6544 46.3743 73.0154 46.0554C73.6311 45.9723 73.9891 45.848 74.118 45.6726C74.4 45.2889 74.4 28.0893 74.118 27.7056C73.9891 27.5302 73.6311 27.4059 73.0154 27.3228C70.6665 27.0056 68.9589 25.3064 68.6402 22.9691C68.5567 22.3564 68.4318 22.0002 68.2555 21.8719C67.867 21.5892 22.133 21.5892 21.7445 21.8719ZM67.1458 24.2154C67.4215 25.2878 67.9583 26.2053 68.8108 27.061C69.7148 27.9685 70.5339 28.4582 71.6623 28.7656L72.5305 29.002V36.6874V44.3728L71.7629 44.5683C70.6665 44.8475 69.7528 45.3839 68.8592 46.2733C67.9654 47.1626 67.4263 48.0718 67.1458 49.1628L66.9493 49.9266H44.9983H23.0473L22.8097 49.0627C22.2193 46.9161 20.3877 45.1159 18.2371 44.5683L17.4695 44.3728V36.6874V29.002L18.334 28.7666C19.4227 28.47 20.1137 28.0608 21.07 27.1465C21.9249 26.3291 22.5609 25.3086 22.7992 24.3719C22.8883 24.0215 22.9881 23.6549 23.021 23.5574C23.0687 23.416 27.5391 23.3872 45.0151 23.4158L66.9493 23.4516L67.1458 24.2154ZM42.7722 24.0053C36.8033 25.1401 32.5004 29.9444 32.0994 35.9219C32.0035 37.3498 32.2057 39.0666 32.6311 40.4368C32.8418 41.1158 32.99 41.3535 33.2862 41.4879C33.6145 41.6367 33.7213 41.6224 34.0348 41.3875C34.4733 41.059 34.4859 40.6853 34.1026 39.3791C33.8939 38.6676 33.8344 38.0252 33.8407 36.5475C33.8482 34.775 33.8824 34.5387 34.3098 33.2912C34.9034 31.5588 35.7098 30.2085 36.8794 28.988C39.2079 26.5585 42.2174 25.3676 45.5862 25.5424C47.3787 25.6355 48.4024 25.8944 49.9417 26.6442C52.1978 27.7431 53.9902 29.5267 55.0945 31.7717C55.8443 33.2958 56.101 34.3098 56.1979 36.1293C56.3773 39.4974 55.1457 42.5222 52.6493 44.8449C48.9449 48.2916 43.4774 48.834 39.1018 46.1889C38.0322 45.5423 37.754 45.4894 37.4103 45.8674C36.7575 46.5851 37.3141 47.258 39.3801 48.249C41.4129 49.2241 42.5676 49.4762 45 49.4762C47.4907 49.4762 48.6241 49.2194 50.7622 48.1704C54.0508 46.5572 56.5758 43.4688 57.5449 39.8746C57.9834 38.2483 57.9817 35.1186 57.5415 33.5036C56.2696 28.837 52.6384 25.291 47.9695 24.1563C46.6871 23.8447 44.0244 23.7674 42.7722 24.0053ZM23.548 25.3002C23.346 25.4409 23.2317 25.6675 23.2317 25.9271C23.2317 26.5624 23.5588 26.7787 24.519 26.7787C25.2577 26.7787 25.3873 26.7359 25.5916 26.4257C25.8921 25.9694 25.7624 25.4592 25.2914 25.2456C24.7775 25.0127 23.922 25.0394 23.548 25.3002ZM27.4225 25.4273C27.0154 25.8323 26.9908 26.0323 27.2947 26.464C27.5145 26.7764 27.5454 26.7787 31.4743 26.7787C34.8228 26.7787 35.4599 26.7459 35.6102 26.5659C35.8916 26.2284 35.8222 25.6202 35.4695 25.336C35.1808 25.1034 34.8106 25.0798 31.4615 25.0798H27.7716L27.4225 25.4273ZM41.9492 29.0755C41.7635 29.3393 41.7276 29.9455 41.7276 32.8273V36.2644H40.7317C39.6288 36.2644 39.1667 36.5297 39.1667 37.1627C39.1667 37.7489 39.5793 37.9633 40.7074 37.9633H41.7276V38.8128V39.6622H40.7634C39.6237 39.6622 39.1667 39.9013 39.1667 40.4978C39.1667 41.1474 39.5481 41.3611 40.7074 41.3611H41.7276V42.7833C41.7276 44.1141 41.7507 44.2285 42.0858 44.5619C42.3468 44.8217 42.5298 44.8928 42.7616 44.8243C43.3366 44.6544 43.435 44.3619 43.435 42.8207V41.3611H46.2093C48.7941 41.3611 49.0032 41.3418 49.2683 41.078C49.4248 40.9223 49.5528 40.6674 49.5528 40.5117C49.5528 40.3559 49.4248 40.1011 49.2683 39.9454C49.0032 39.6816 48.7941 39.6622 46.2093 39.6622H43.435V38.8261V37.9899L45.4624 37.9412C47.2685 37.8979 47.5671 37.8547 48.1975 37.5459C49.1011 37.1035 49.962 36.2457 50.4071 35.3441C50.6986 34.7536 50.7571 34.425 50.7594 33.362C50.7628 31.8234 50.4401 31.0372 49.3834 30.0103C48.28 28.9382 47.6078 28.7608 44.647 28.7608C42.2492 28.7608 42.1636 28.7708 41.9492 29.0755ZM47.5742 30.7892C47.9191 30.9702 48.3933 31.3899 48.6281 31.7216C49.0084 32.2589 49.0549 32.4377 49.0549 33.362C49.0549 34.2864 49.0084 34.4652 48.6281 35.0025C48.3933 35.3342 47.9191 35.7538 47.5742 35.9349C47.0158 36.2283 46.7548 36.2644 45.1911 36.2644H43.435V33.362V30.4597H45.1911C46.7548 30.4597 47.0158 30.4958 47.5742 30.7892ZM22.562 32.6383C19.5477 33.6189 18.6204 37.5175 20.8817 39.7029C21.7702 40.5614 22.5555 40.8661 23.872 40.8629C24.8276 40.8605 25.1271 40.7992 25.739 40.4803C26.6455 40.0078 27.5502 39.0036 27.845 38.1425C28.7701 35.4411 26.9074 32.6418 24.0854 32.4926C23.5486 32.4642 22.9095 32.5253 22.562 32.6383ZM65.061 32.5657C61.9948 33.5703 60.9055 37.1312 62.9556 39.4487C63.2726 39.8071 63.86 40.2713 64.261 40.4803C64.8745 40.8001 65.17 40.8602 66.128 40.8608C67.4684 40.8615 68.2413 40.5666 69.1001 39.7268C71.2114 37.6619 70.6196 34.1392 67.9449 32.8508C67.2562 32.5189 65.6793 32.3631 65.061 32.5657ZM24.8679 34.4083C25.8652 34.8663 26.3618 35.6244 26.3618 36.6891C26.3618 37.7538 25.8652 38.5119 24.8679 38.9699C23.3553 39.6646 21.7244 38.7918 21.3238 37.0732C21.2115 36.592 21.4584 35.6216 21.8223 35.1131C22.1692 34.6283 23.1658 34.1401 23.8008 34.144C24.0747 34.1455 24.5549 34.2646 24.8679 34.4083ZM67.2944 34.4375C67.9257 34.7416 68.4888 35.501 68.6745 36.2985C68.9013 37.2721 68.1297 38.6126 67.093 39.0461C65.8792 39.5536 64.2564 38.8606 63.79 37.6355C63.4036 36.6207 63.7203 35.418 64.5474 34.7601C65.4107 34.0733 66.3174 33.9669 67.2944 34.4375ZM49.126 60.4741V65.854H45H40.874V60.4741V55.0941H45H49.126V60.4741ZM39.1667 56.5099V57.6425H25.437H11.7073V56.5099V55.3773H25.437H39.1667V56.5099ZM78.2927 56.5099V57.6425H74.7826C71.716 57.6425 71.2395 57.6721 71.0123 57.8768C70.6883 58.1686 70.6765 58.7406 70.9875 59.0825C71.2036 59.3201 71.5141 59.3414 74.7578 59.3414H78.2927V60.4741V61.6067H64.563H50.8333V60.4741V59.3414H57.7581C64.002 59.3414 64.7084 59.3184 64.943 59.1071C65.267 58.8153 65.2788 58.2434 64.9678 57.9015C64.7458 57.6574 64.3347 57.6425 57.7828 57.6425H50.8333V56.5099V55.3773H64.563H78.2927V56.5099ZM39.1667 60.4741V61.6067H25.437H11.7073V60.4741V59.3414H25.437H39.1667V60.4741ZM39.1667 64.4382V65.5708H25.437H11.7073V64.4382V63.3056H25.437H39.1667V64.4382ZM78.2927 64.4382V65.5708H64.563H50.8333V64.4382V63.3056H64.563H78.2927V64.4382Z" fill="#2F2F2F"/>
</svg>
