<svg width="90" height="85" viewBox="0 0 90 85" fill="none" xmlns="http://www.w3.org/2000/svg">
<path fill-rule="evenodd" clip-rule="evenodd" d="M25.2017 15.5164C17.6466 18.5462 11.3239 21.1473 11.1513 21.2966C10.8393 21.5664 10.8375 21.5911 10.8375 25.4343C10.8375 29.129 10.8499 29.312 11.1164 29.558C11.3768 29.7983 11.5812 29.8154 14.1845 29.8154H16.9737V39.6513V49.4871L15.4538 49.5307C13.268 49.5933 13.3477 49.4885 13.3477 52.2973V54.53H11.8914C9.90548 54.53 10.0007 54.3665 10.0007 57.7768C10.0007 60.2796 10.0186 60.4677 10.2796 60.7087C10.5555 60.9633 10.7445 60.9661 27.4946 60.9661C36.8094 60.9661 44.4547 61.0095 44.4841 61.0626C44.5136 61.1158 44.5104 62.2162 44.4769 63.5084L44.4159 65.8575H41.9909C38.7334 65.8575 38.9603 65.6265 39.039 68.8637C39.0915 71.0292 39.1367 71.4177 39.4109 72.0651C40.0725 73.6277 41.4349 74.8805 43.1951 75.5451L43.9589 75.8335L55.6037 75.8726C63.9374 75.9005 67.4849 75.8698 68.0797 75.7642C70.0235 75.4194 71.687 74.1995 72.5877 72.4584L73.1058 71.4569L73.1447 61.1914L73.1835 50.9258H76.3174C79.2922 50.9258 79.4657 50.9124 79.7375 50.6615C80.0159 50.4046 80.0227 50.2864 79.9816 46.4459L79.9393 42.4945L79.5502 41.7631C79.1283 40.9703 78.523 40.4086 77.5995 39.953C77.0114 39.663 77.0017 39.6626 69.2358 39.6263L61.461 39.59V34.7027V29.8154H64.1867C66.8949 29.8154 66.9148 29.8134 67.2548 29.4994L67.5972 29.1835L67.5952 25.5412C67.5943 23.5381 67.5549 21.7663 67.5078 21.6043C67.4608 21.4421 67.2287 21.2171 66.9922 21.1042C65.9024 20.584 39.3582 9.99318 39.1613 10C39.0387 10.0043 32.7569 12.4867 25.2017 15.5164ZM52.6503 17.0224L65.7789 22.2852L65.7816 25.2784L65.7842 28.2714L39.1825 28.239L12.5807 28.2064V25.2624V22.3185L25.8293 16.9942C33.116 14.0658 39.1777 11.6901 39.2998 11.7147C39.4218 11.7394 45.4295 14.1279 52.6503 17.0224ZM38.1017 13.0871C35.063 13.4559 32.3392 15.6773 31.5457 18.434C31.274 19.3779 31.2431 21.0603 31.4804 21.9794C32.3327 25.2788 35.5206 27.6178 39.1756 27.6252C42.549 27.6322 45.5408 25.6582 46.6976 22.6626C47.1012 21.6173 47.1938 19.8511 46.9043 18.7152C46.5445 17.303 45.8925 16.2186 44.784 15.1884C43.0282 13.5568 40.5789 12.7866 38.1017 13.0871ZM41.154 14.8886C42.2709 15.2069 43.6124 16.1108 44.2535 16.9769C45.6185 18.8209 45.7698 21.3153 44.626 23.1169C42.4967 26.4703 37.7766 27.0671 34.7966 24.3596C32.0469 21.8613 32.5445 17.4558 35.7936 15.5314C37.3698 14.5979 39.3158 14.3646 41.154 14.8886ZM36.2979 16.4725L35.9401 16.8028V20.3544V23.9059L36.2979 24.2362C36.6537 24.5646 36.6671 24.5663 38.5641 24.5136C40.686 24.4547 41.0362 24.353 41.7697 23.5817C42.4627 22.8533 42.5588 21.4676 41.9682 20.7193L41.6844 20.3597L41.9686 19.9913C42.5582 19.227 42.463 17.8558 41.7697 17.1271C41.0362 16.3558 40.686 16.2541 38.5641 16.1951C36.6671 16.1425 36.6537 16.1442 36.2979 16.4725ZM40.4645 18.1305C40.5839 18.2878 40.6817 18.5355 40.6817 18.681C40.6817 18.8265 40.5839 19.0742 40.4645 19.2315C40.2677 19.4909 40.1309 19.5177 39.0002 19.5177H37.753V18.681V17.8443H39.0002C40.1309 17.8443 40.2677 17.8711 40.4645 18.1305ZM40.4266 21.4041C40.7444 21.6695 40.7572 22.3166 40.4509 22.629C40.2604 22.8233 40.0044 22.8645 38.9865 22.8645H37.753V22.0278V21.1911H38.9623C39.8919 21.1911 40.2306 21.2404 40.4266 21.4041ZM21.9942 39.6626V49.5099H20.3207H18.6472V39.6626V29.8154H20.3207H21.9942V39.6626ZM29.525 39.6626V49.5099H26.5963H23.6677V39.6626V29.8154H26.5963H29.525V39.6626ZM34.5455 39.6626V49.5099H32.872H31.1985V39.6626V29.8154H32.872H34.5455V39.6626ZM42.0762 39.6626V49.5099H39.1476H36.219V39.6626V29.8154H39.1476H42.0762V39.6626ZM47.0968 34.901V39.9866L46.2118 40.79C44.8573 42.0197 44.7771 42.3009 44.6516 46.2613L44.5489 49.5099H44.219H43.8892V39.6626V29.8154H45.493H47.0968V34.901ZM54.7338 34.6747L54.6973 39.5339L51.7338 39.5687L48.7703 39.6034V34.7094V29.8154H51.7703H54.7703L54.7338 34.6747ZM59.6481 34.7069V39.5983H58.0443H56.4405V34.7069V29.8154H58.0443H59.6481V34.7069ZM71.9339 41.8183L71.5718 42.4938L71.502 56.7823L71.4323 71.0708L71.063 71.7978C69.6913 74.4984 65.9647 75.1475 63.7315 73.0748C63.408 72.7745 62.9687 72.2008 62.7555 71.7998C62.3835 71.1004 62.365 70.9723 62.2979 68.6465C62.2342 66.4373 62.204 66.2061 61.9573 66.0399C61.7314 65.8878 60.3995 65.8575 53.9104 65.8575H46.1344L46.1954 64.345C46.229 63.5132 46.2862 58.4483 46.3226 53.0896C46.3763 45.1775 46.425 43.2667 46.5822 42.9206C46.8718 42.2826 47.4446 41.7169 48.1081 41.4138C48.6961 41.1451 48.789 41.1432 60.4983 41.1431L72.2961 41.143L71.9339 41.8183ZM76.9464 41.403C77.25 41.546 77.6711 41.9036 77.8821 42.1977L78.2658 42.7325V46.0247V49.3168H75.7555H73.2453V46.0247V42.7325L73.6285 42.1985C74.3462 41.1979 75.7806 40.8541 76.9464 41.403ZM49.0143 48.1009C48.6796 48.2853 48.6929 49.0192 49.0361 49.3058C49.4302 49.635 50.1407 49.5279 50.4969 49.0856C50.7642 48.7536 50.7704 48.6988 50.576 48.3776C50.4092 48.1023 50.2495 48.023 49.8117 47.998C49.5074 47.9806 49.1485 48.027 49.0143 48.1009ZM51.5113 48.2006C51.1819 48.5366 51.22 49.0699 51.5905 49.3094C51.8439 49.4733 52.3718 49.5099 54.4881 49.5099C57.3747 49.5099 57.6956 49.4328 57.6956 48.7395C57.6956 48.0047 57.5325 47.9652 54.4998 47.9652C52.0053 47.9652 51.7201 47.9877 51.5113 48.2006ZM58.612 48.1674C58.2868 48.4677 58.3348 49.0716 58.7029 49.3094C58.9676 49.4806 59.6592 49.5099 63.4445 49.5099C67.6902 49.5099 67.8878 49.4991 68.155 49.2524C68.5031 48.9311 68.5136 48.4578 68.1789 48.1782C67.9525 47.9891 67.4123 47.9652 63.3776 47.9652C59.4305 47.9652 58.8024 47.9918 58.612 48.1674ZM44.5865 52.8566V54.53H29.8039H15.0212V52.8566V51.1832H29.8039H44.5865V52.8566ZM48.9093 54.0799C48.6315 54.3889 48.7017 54.9399 49.0524 55.2018C49.3511 55.4251 49.7212 55.4367 55.4962 55.4027C61.3762 55.3681 61.6311 55.3567 61.821 55.1169C62.0926 54.7739 62.0689 54.3543 61.7638 54.0994C61.5345 53.9079 60.8814 53.8864 55.2961 53.8864C49.9381 53.8864 49.0594 53.913 48.9093 54.0799ZM62.8835 54.0409C62.5965 54.3058 62.6804 55.0073 63.0262 55.2306C63.5106 55.544 64.3404 55.4882 64.7446 55.1151C65.1436 54.7469 65.1677 54.565 64.8698 54.1726C64.6884 53.9334 64.5214 53.8864 63.8518 53.8864C63.4112 53.8864 62.9755 53.9559 62.8835 54.0409ZM65.8756 54.1218C65.4759 54.5294 65.5926 55.0081 66.1585 55.283C66.7717 55.581 68.0231 55.4139 68.3273 54.9934C68.5101 54.7406 68.4399 54.3175 68.1789 54.0994C67.8025 53.785 66.1905 53.8005 65.8756 54.1218ZM44.5865 57.7481V59.4214H28.1304H11.6742V57.7481V56.0747H28.1304H44.5865V57.7481ZM49.0472 59.9119C48.6749 60.1902 48.635 60.7677 48.9669 61.0741C49.2595 61.3442 51.3565 61.4491 52.1388 61.2328C52.7104 61.0747 52.9229 60.7116 52.7455 60.1957C52.6089 59.7985 52.1261 59.6789 50.6594 59.6789C49.6122 59.6789 49.2983 59.7242 49.0472 59.9119ZM53.706 60.0029C53.4494 60.2397 53.3802 60.404 53.4484 60.6143C53.6748 61.3113 53.4075 61.2853 60.7337 61.3201C67.782 61.3536 67.9881 61.3402 68.3362 60.8252C68.5473 60.5127 68.3441 59.9985 67.9426 59.8296C67.6844 59.7211 65.6925 59.6789 60.8205 59.6789H54.057L53.706 60.0029ZM60.6549 69.3652C60.7249 71.6385 60.9242 72.2822 61.9611 73.582L62.5831 74.3619L53.4105 74.3254L44.2379 74.2888L43.4443 73.9292C42.4665 73.486 41.3578 72.3987 41.0261 71.5581C40.8574 71.1301 40.7628 70.4018 40.7167 69.1721L40.65 67.4022H50.6223H60.5944L60.6549 69.3652Z" fill="#2F2F2F"/>
</svg>
