<svg width="16" height="16" viewBox="0 0 16 16" fill="none" xmlns="http://www.w3.org/2000/svg">
<path d="M7.11724 12.7127C7.1784 12.8015 7.26024 12.8741 7.3557 12.9243C7.45116 12.9745 7.55739 13.0007 7.66524 13.0007C7.77309 13.0007 7.87932 12.9745 7.97478 12.9243C8.07024 12.8741 8.15208 12.8015 8.21324 12.7127L14.2132 4.046C14.2827 3.94604 14.3234 3.82895 14.331 3.70747C14.3386 3.58599 14.3127 3.46475 14.2562 3.35693C14.1997 3.24911 14.1148 3.15883 14.0106 3.09591C13.9064 3.03298 13.787 2.99981 13.6652 3H1.66524C1.5438 3.0005 1.4248 3.0341 1.32103 3.09718C1.21726 3.16025 1.13264 3.25043 1.07629 3.358C1.01993 3.46557 0.993965 3.58646 1.00118 3.70769C1.0084 3.82891 1.04852 3.94588 1.11724 4.046L7.11724 12.7127Z" fill="#FC4639"/>
</svg>
