<svg width="77" height="70" viewBox="0 0 77 70" fill="none" xmlns="http://www.w3.org/2000/svg">
<path fill-rule="evenodd" clip-rule="evenodd" d="M30.7825 10.2176C26.8205 13.1045 23.5213 15.5902 23.4512 15.7413C23.3114 16.0424 23.3777 16.3327 23.6616 16.6634C23.8219 16.8501 24.085 16.8782 25.6684 16.8782H27.4907V23.3842C27.4907 29.7266 27.4968 29.8964 27.7362 30.1357C27.9778 30.3773 28.1453 30.3813 38.2883 30.3813H48.5949L48.8452 30.1125C49.0906 29.8492 49.0955 29.7156 49.0955 23.361V16.8782H50.9178C52.5012 16.8782 52.7643 16.8501 52.9246 16.6634C53.2079 16.3336 53.2748 16.0429 53.1369 15.7404C52.9526 15.3357 38.758 5.04029 38.3295 5.00052C38.0483 4.97449 36.6838 5.91774 30.7825 10.2176ZM44.017 11.0167L49.6255 15.0983L48.7285 15.1689C47.2633 15.2842 47.3769 14.6904 47.3769 22.2317V28.6627H38.2931H29.2093V22.2317C29.2093 14.6946 29.3215 15.2844 27.8663 15.1689L26.9778 15.0983L32.5434 11.0268C35.6045 8.7875 38.1764 6.95072 38.2587 6.9452C38.341 6.93967 40.9322 8.77178 44.017 11.0167ZM50.8141 37.4874C50.4427 37.6076 49.1009 38.2719 47.8323 38.9636L45.5257 40.2213L42.0015 40.1696C38.0989 40.1124 38.2361 40.1355 36.1378 39.182C34.7072 38.5319 33.9983 38.2857 32.8983 38.0562C30.1267 37.4784 27.0942 37.8657 24.6196 39.1135C23.3064 39.7758 22.7434 40.1723 21.2923 41.4579C20.1885 42.4357 18.8808 43.2705 18.4529 43.2705C18.3548 43.2705 18.1234 42.7106 17.8568 41.8281C17.3137 40.0303 17.0823 39.5596 16.6883 39.4512C16.2868 39.3407 7.88028 39.3412 7.48354 39.4517C6.75254 39.6552 6.71473 39.0804 8.32797 52.282C9.38796 60.9562 9.86559 64.506 10.0005 64.7119L10.1893 65L17.2003 64.9683L24.2112 64.9367L24.4513 64.615L24.6914 64.2935L23.8201 61.4345C23.3409 59.862 22.9488 58.5054 22.9488 58.4196C22.9488 58.2522 27.8995 55.0565 28.6354 54.7491C28.8792 54.6473 29.3455 54.5639 29.6718 54.5639C29.998 54.5639 32.9414 55.0571 36.2128 55.6599C39.4841 56.2626 42.6348 56.7942 43.2144 56.8412C45.0785 56.9925 47.5482 56.5679 49.5606 55.7502C50.1852 55.4963 53.0703 53.5485 66.3404 44.4209C69.7628 42.0669 69.937 41.8951 69.5874 41.2177C69.2506 40.5651 68.1501 39.588 67.2968 39.1839C66.5177 38.8147 66.3802 38.7899 65.115 38.7899C63.8991 38.7899 63.6931 38.8234 63.0454 39.1269L62.3262 39.4637L61.7199 38.9186C60.9056 38.1865 59.9668 37.8338 58.7931 37.8193C58.0045 37.8095 57.7574 37.8624 57.0709 38.1877L56.2693 38.5676L55.6592 38.1538C54.3801 37.2863 52.3129 37.0019 50.8141 37.4874ZM53.9136 39.1792C54.2344 39.2797 54.4967 39.4015 54.4967 39.4497C54.4967 39.498 53.7143 39.9581 52.758 40.4722L51.0193 41.4068L50.5791 41.1301C50.337 40.9779 49.8398 40.7424 49.4741 40.6065L48.8092 40.3595L49.8423 39.8003C51.5841 38.8576 52.4615 38.7236 53.9136 39.1792ZM33.0488 39.8205C33.5739 39.9581 34.6787 40.3722 35.5039 40.7409C37.992 41.8527 37.7926 41.8236 43.5102 41.9077L48.5431 41.9816L49.278 42.3425C49.6823 42.5408 50.2645 42.9551 50.572 43.2631C51.1448 43.8369 51.7961 44.973 51.7961 45.3986C51.7961 45.6144 51.7347 45.6296 51.1516 45.559C50.7972 45.5162 48.9605 45.4451 47.07 45.401C42.9885 45.3061 40.8641 45.4589 40.4106 45.8801C40.0464 46.2183 40.061 46.6454 40.45 47.0344C40.726 47.3103 40.8301 47.3393 41.2786 47.2647C42.971 46.9831 45.8467 46.9825 51.3698 47.2626C53.1854 47.3545 53.4581 47.2588 53.6189 46.4723C53.7004 46.0736 53.8569 45.9756 57.9975 43.7312C63.9147 40.5238 64.142 40.4174 65.0845 40.4119C65.9345 40.4069 66.933 40.7628 67.368 41.226L67.6198 41.494L58.5282 47.7362C52.9664 51.5548 49.1539 54.0933 48.7084 54.2742C47.5395 54.7493 46.0651 55.0598 44.615 55.1366C43.1034 55.2165 43.1798 55.2278 34.9173 53.7055C32.3518 53.2329 29.9765 52.8473 29.6389 52.8489C28.5896 52.8537 27.5691 53.3209 24.8822 55.0268C23.4813 55.9163 22.335 56.6269 22.335 56.606C22.335 56.5852 21.5612 54.0319 20.6153 50.932C19.6695 47.8322 18.8823 45.2249 18.8661 45.1381C18.8494 45.0492 19.1321 44.8582 19.5116 44.7014C20.4927 44.2966 21.069 43.8986 22.4843 42.649C23.1786 42.0359 24.1488 41.2961 24.6405 41.0049C25.5717 40.4534 27.3679 39.7958 28.4932 39.5943C29.5152 39.4113 31.9482 39.5321 33.0488 39.8205ZM60.2171 39.8955C60.5275 40.0774 60.7347 40.2713 60.6774 40.3263C60.6199 40.3813 59.2749 41.1266 57.6883 41.9824C56.1017 42.8383 54.4584 43.7295 54.0365 43.9628L53.2693 44.3872L53.1201 44.0437C53.0381 43.8547 52.8447 43.494 52.6904 43.2422C52.5361 42.9904 52.4099 42.737 52.4099 42.6791C52.4099 42.5894 53.4162 42.0287 57.6269 39.7722C58.1493 39.4923 58.3459 39.4523 58.9465 39.5039C59.4061 39.5434 59.8495 39.68 60.2171 39.8955ZM19.2148 52.1088C21.0607 58.1514 22.573 63.1645 22.5757 63.2488C22.5795 63.3693 21.3852 63.4022 17.0007 63.4022H11.421L11.3512 63.0033C11.2549 62.4541 8.70925 41.4945 8.70925 41.2522C8.70925 41.0777 9.08635 41.0606 12.2841 41.0897L15.8588 41.1223L19.2148 52.1088ZM15.659 57.561C15.0428 57.7896 14.2765 58.5415 14.0924 59.0982C13.5171 60.8378 14.7193 62.5605 16.5087 62.5605C18.5624 62.5605 19.7531 60.4388 18.7042 58.6488C18.1338 57.6756 16.7154 57.1689 15.659 57.561ZM17.1235 59.4072C17.607 59.8906 17.4678 60.598 16.8423 60.8358C16.2568 61.0585 15.5835 60.554 15.5835 59.8923C15.5835 59.5968 16.1582 59.1058 16.5042 59.1058C16.6791 59.1058 16.9577 59.2415 17.1235 59.4072Z" fill="#FC4639"/>
</svg>
