<svg width="77" height="70" viewBox="0 0 77 70" fill="none" xmlns="http://www.w3.org/2000/svg">
<path fill-rule="evenodd" clip-rule="evenodd" d="M20.4866 5.18102C20.0058 5.38883 19.5093 5.98452 19.3537 6.54017C19.2853 6.78454 19.2291 7.39648 19.2287 7.8998L19.228 8.81502L17.9718 8.85577C16.9318 8.88947 16.6584 8.93894 16.3835 9.14292C15.7355 9.62342 15.5587 9.98609 15.4944 10.966L15.4342 11.8839L14.3282 11.9437C13.1422 12.0077 12.8201 12.1486 12.3102 12.8262L12.0619 13.1562L12.031 38.281L12 63.4058L12.2782 63.9278C12.4686 64.2849 12.7218 64.5365 13.0808 64.7248L13.6053 65H30.9039H48.2026L48.7347 64.7311C49.4791 64.3551 49.8194 63.6837 49.8194 62.5913V61.7736H50.7948C52.5857 61.7736 53.1791 61.2042 53.2837 59.3851L53.3455 58.3082H54.0455C54.9377 58.3082 55.8312 58.1145 56.1516 57.8516C56.765 57.3482 56.8619 57.0319 56.9253 55.3269L56.9855 53.7076L57.7683 53.6127C58.7613 53.4923 60.3393 52.9565 61.2315 52.4368C62.3357 51.7936 63.9993 50.0582 64.5955 48.9278C65.3762 47.4471 65.6475 46.337 65.6471 44.6259C65.6465 42.8928 65.4554 42.0833 64.6755 40.5078C64.2026 39.5526 63.9455 39.209 63.0196 38.295C62.4018 37.6851 61.5818 37.0165 61.1406 36.7632C60.2427 36.2474 58.7597 35.7581 57.7081 35.6307L56.9855 35.5432L56.9253 25.4463C56.8752 17.0445 56.8365 15.2991 56.6947 15.0506C56.3811 14.5007 47.2449 5.34234 46.8424 5.17457C46.2745 4.93773 21.0353 4.94382 20.4866 5.18102ZM45.7245 9.23326C45.7245 11.4269 45.7652 12.1579 45.9157 12.6688C46.3126 14.0153 47.331 15.1576 48.7138 15.8076L49.5183 16.1858L52.4991 16.2249L55.48 16.2639V25.9145V35.5651L54.4511 35.8171C53.3688 36.0822 52.2006 36.5589 51.84 36.8828C51.4292 37.2517 51.7046 38.1133 52.2333 38.1133C52.3481 38.1133 52.7868 37.9541 53.2083 37.7595C54.3544 37.2302 55.2797 37.0287 56.5639 37.0287C58.747 37.0287 60.3876 37.7048 61.95 39.2483C62.7428 40.0316 63.0367 40.4264 63.4256 41.2311C64.5436 43.5445 64.5394 45.7533 63.4127 48.0315C62.4599 49.9582 60.5393 51.5023 58.4356 52.0329C57.514 52.2653 55.6139 52.2653 54.6923 52.0329C50.6639 51.0169 48.1389 46.9641 49.0523 42.98C49.1602 42.5088 49.3499 41.8887 49.4739 41.602C49.7828 40.8869 49.7617 40.5495 49.3929 40.3098C48.7655 39.902 48.3098 40.4214 47.754 42.1777C47.5176 42.925 47.4708 43.3285 47.4708 44.6259C47.4708 46.4168 47.6862 47.2935 48.5272 48.9278C49.2468 50.3259 50.9319 51.9716 52.3587 52.6697C52.9274 52.9478 53.8623 53.2904 54.4363 53.4311L55.48 53.6867L55.4782 55.0714C55.4771 55.833 55.425 56.5367 55.3621 56.6353C55.2615 56.7932 53.215 56.8145 38.1315 56.8145C21.3272 56.8145 21.0121 56.8103 20.8442 56.5826C20.6978 56.384 20.6733 52.796 20.6733 31.6643C20.6733 9.51467 20.6925 6.95076 20.8608 6.71249L21.0482 6.44685H33.3864H45.7245V9.23326ZM52.3688 14.7846C49.6849 14.826 49.2238 14.7095 48.2448 13.7422C47.2602 12.7694 47.1687 12.4169 47.1747 9.6221L47.1796 7.34307L50.8346 11.0475L54.4895 14.7518L52.3688 14.7846ZM23.029 10.0714C22.713 10.3007 22.6251 11.3628 22.889 11.7625C23.1207 12.1132 23.6786 12.1712 23.9768 11.8754C24.2584 11.5959 24.2369 10.3715 23.9457 10.11C23.6796 9.87113 23.3258 9.85619 23.029 10.0714ZM19.2309 33.2439C19.2326 46.6057 19.2795 56.4131 19.3433 56.6858C19.4807 57.2734 19.7984 57.702 20.3246 58.0095C20.727 58.2446 20.98 58.2489 36.3002 58.2805L51.8668 58.3126V59.0196C51.8668 59.4084 51.814 59.8645 51.7494 60.0331L51.632 60.3396H34.4304C21.2119 60.3396 17.1952 60.3064 17.0842 60.1963C16.8739 59.9876 16.8739 10.6228 17.0842 10.4141C17.1734 10.3256 17.6115 10.2707 18.2284 10.2707H19.228L19.2309 33.2439ZM15.4944 36.9007V60.4238L15.7683 60.827C15.9188 61.0487 16.225 61.3525 16.4485 61.5019L16.8549 61.7736H32.6145H48.3741V62.4821C48.3741 63.6857 50.3016 63.566 30.9105 63.566C15.5392 63.566 13.8065 63.5472 13.6362 63.3783C13.4654 63.2088 13.4469 60.78 13.4469 38.4275C13.4469 19.3266 13.4799 13.6317 13.5915 13.521C13.6775 13.4357 14.092 13.3776 14.6152 13.3776H15.4944V36.9007ZM23.0164 13.671L22.7207 13.9642V20.0374C22.7207 26.7307 22.711 26.6417 23.4415 26.6417C24.1927 26.6417 24.166 26.8866 24.166 20.0079V13.7496L23.8982 13.5637C23.531 13.3084 23.3608 13.3291 23.0164 13.671ZM25.6901 13.5962C25.4057 13.9081 25.4385 14.4031 25.7585 14.6255C25.954 14.7615 26.3271 14.8116 27.1436 14.8116C28.1003 14.8116 28.2955 14.7773 28.5018 14.5726C28.8024 14.2743 28.8114 13.8349 28.5224 13.5754C28.1849 13.2724 25.9706 13.2886 25.6901 13.5962ZM30.1464 13.5962C29.8784 13.89 29.895 14.282 30.1879 14.5726C30.421 14.8038 30.5893 14.8116 35.3399 14.8116C40.7576 14.8116 40.7865 14.8078 40.7865 14.0964C40.7865 13.362 40.9044 13.3776 35.3769 13.3776C30.6557 13.3776 30.3334 13.3911 30.1464 13.5962ZM42.1784 13.6433C41.9096 14.024 41.9458 14.2811 42.3082 14.5639C42.5203 14.7295 42.8017 14.8116 43.1567 14.8116C44.0882 14.8116 44.5734 14.0187 43.9429 13.527C43.8376 13.4449 43.4396 13.3776 43.0587 13.3776C42.4793 13.3776 42.3352 13.4211 42.1784 13.6433ZM26.1532 19.3153C25.6395 19.4375 25.4341 20.1155 25.8004 20.4792C25.9685 20.6459 26.8325 20.6669 33.4938 20.6669C40.024 20.6669 41.0174 20.6436 41.1482 20.4873C41.36 20.234 41.3346 19.7256 41.0984 19.4912C40.9169 19.311 40.2295 19.2911 33.6463 19.2754C29.6576 19.2658 26.2857 19.2837 26.1532 19.3153ZM43.104 19.3504C42.674 19.5314 42.5164 19.9951 42.7594 20.3633C42.9358 20.6305 43.0435 20.6669 43.6557 20.6669C44.0383 20.6669 44.4165 20.6024 44.496 20.5235C44.6971 20.3239 44.6769 19.6507 44.4646 19.4759C44.2283 19.2812 43.4406 19.2086 43.104 19.3504ZM46.5675 19.3177C45.9793 19.5323 45.7872 20.1115 46.1856 20.4691C46.3708 20.6355 46.7058 20.6669 48.2905 20.6669H50.1752L50.3757 20.3633C50.6278 19.9816 50.4553 19.5242 49.9937 19.3501C49.6711 19.2284 46.8845 19.2021 46.5675 19.3177ZM25.879 25.3938C25.5484 25.6235 25.5238 26.1677 25.8315 26.4439C26.0259 26.6185 26.4678 26.6417 29.6067 26.6417C32.8976 26.6417 33.1763 26.6255 33.3609 26.4232C33.6288 26.1293 33.6122 25.7374 33.3193 25.4467C33.0896 25.2189 32.9179 25.2078 29.6126 25.2078C26.6705 25.2078 26.1061 25.2358 25.879 25.3938ZM35.0054 25.4467C34.5097 25.9386 34.8468 26.6417 35.5784 26.6417C36.0451 26.6417 36.3303 26.3691 36.3303 25.9229C36.3303 25.2846 35.4778 24.9781 35.0054 25.4467ZM37.9228 25.3938C37.5922 25.6235 37.5677 26.1677 37.8754 26.4439C38.0741 26.6225 38.684 26.6417 44.1313 26.6417H50.1671L50.3545 26.3761C50.6068 26.0187 50.5906 25.7339 50.3011 25.4467C50.0668 25.2142 49.8997 25.2078 44.1254 25.2078C38.9487 25.2078 38.1562 25.2315 37.9228 25.3938ZM25.8106 31.4011C25.5178 31.7221 25.558 32.2179 25.8945 32.4367C26.1337 32.5921 26.6329 32.6159 29.1034 32.5888L32.0289 32.5568L32.2649 32.2431C32.4664 31.9752 32.4788 31.888 32.35 31.6456C32.2672 31.4896 32.1396 31.3223 32.0667 31.274C31.9939 31.2257 30.6012 31.1854 28.9721 31.1844C26.2539 31.1827 25.9935 31.2006 25.8106 31.4011ZM33.9215 31.4216C33.789 31.553 33.6806 31.7681 33.6806 31.8995C33.6806 32.031 33.789 32.2461 33.9215 32.3775C34.156 32.6102 34.3229 32.6165 40.2445 32.6165C46.1661 32.6165 46.333 32.6102 46.5675 32.3775C46.7 32.2461 46.8084 32.031 46.8084 31.8995C46.8084 31.7681 46.7 31.553 46.5675 31.4216C46.333 31.1889 46.1661 31.1826 40.2445 31.1826C34.3229 31.1826 34.156 31.1889 33.9215 31.4216ZM48.3168 31.3448C48.1774 31.4461 48.0931 31.6552 48.0931 31.8995C48.0931 32.4443 48.3832 32.6165 49.3004 32.6165C50.1247 32.6165 50.542 32.3756 50.542 31.8995C50.542 31.4235 50.1247 31.1826 49.3004 31.1826C48.8503 31.1826 48.4494 31.2488 48.3168 31.3448ZM25.8106 37.3759C25.5426 37.6698 25.5592 38.0617 25.8521 38.3523C26.0723 38.5708 26.2535 38.5913 27.9652 38.5913C29.7925 38.5913 29.8447 38.5843 30.1331 38.298C30.4777 37.9562 30.4985 37.7874 30.2413 37.423C30.0602 37.1665 29.9847 37.1574 28.0318 37.1574C26.226 37.1574 25.9886 37.1807 25.8106 37.3759ZM31.8224 37.3451C31.5415 37.6239 31.5829 38.1844 31.9009 38.4053C32.1272 38.5627 32.6758 38.5913 35.4593 38.5913H38.75L39.0456 38.298C39.3901 37.9562 39.411 37.7874 39.1537 37.423C38.9674 37.1589 38.9457 37.1574 35.489 37.1574C32.4884 37.1574 31.9857 37.1831 31.8224 37.3451ZM40.7449 37.3759C40.477 37.6698 40.4936 38.0617 40.7865 38.3523C41.0008 38.5649 41.1879 38.5913 42.4781 38.5913C43.8578 38.5913 43.9433 38.577 44.2244 38.298C44.569 37.9562 44.5898 37.7874 44.3326 37.423C44.1548 37.1711 44.0619 37.1574 42.5447 37.1574C41.1472 37.1574 40.919 37.1851 40.7449 37.3759ZM57.6815 43.7555L54.6446 46.7686L53.5129 45.6674C52.8826 45.0542 52.279 44.5661 52.1507 44.5661C51.7634 44.5661 51.3851 44.9098 51.3851 45.2619C51.3851 45.709 54.1887 48.5095 54.6363 48.5095C54.8647 48.5095 55.7196 47.7295 58.338 45.1314C61.9198 41.5777 62.0467 41.4107 61.5225 40.94C61.0186 40.4875 60.8524 40.6094 57.6815 43.7555ZM26.093 43.0956C25.6236 43.2621 25.4584 43.9194 25.8004 44.2589C25.9298 44.3871 26.215 44.4466 26.701 44.4466C27.3298 44.4466 27.4355 44.4115 27.6128 44.143C28.0719 43.4478 27.0622 42.752 26.093 43.0956ZM29.4653 43.0932C28.9948 43.2663 28.8309 43.9197 29.1727 44.2589C29.3372 44.422 29.8879 44.4466 33.3795 44.4466C36.8712 44.4466 37.4218 44.422 37.5863 44.2589C37.8217 44.0254 37.8296 43.6098 37.6048 43.3044C37.4423 43.0839 37.2411 43.0714 33.54 43.0496C31.3982 43.0371 29.5646 43.0567 29.4653 43.0932ZM39.4908 43.1321C39.0613 43.31 38.903 43.7746 39.1462 44.143L39.3468 44.4466H41.3829C43.0733 44.4466 43.4511 44.4147 43.6082 44.2589C43.8435 44.0254 43.8515 43.6099 43.6268 43.3044C43.4723 43.0944 43.2809 43.0699 41.6095 43.0459C40.5938 43.0313 39.6404 43.07 39.4908 43.1321ZM25.879 49.1736C25.5484 49.4032 25.5238 49.9474 25.8315 50.2237C26.1756 50.5327 27.1143 50.4908 27.3507 50.1558C27.6082 49.7912 27.5858 49.5188 27.2746 49.2312C26.9561 48.9367 26.261 48.9079 25.879 49.1736ZM29.1308 49.1736C28.8002 49.4032 28.7756 49.9474 29.0834 50.2237C29.267 50.3886 29.5941 50.4215 31.0519 50.4215C32.5927 50.4215 32.8238 50.3955 32.9995 50.2029C33.2675 49.9091 33.2509 49.5171 32.958 49.2265C32.7405 49.0107 32.5566 48.9875 31.0578 48.9875C29.7508 48.9875 29.3416 49.0271 29.1308 49.1736ZM34.7914 49.1736C34.4608 49.4032 34.4363 49.9474 34.744 50.2237C34.94 50.3998 35.4263 50.4215 39.1815 50.4215C43.1142 50.4215 43.4123 50.4068 43.5981 50.2029C43.8826 49.891 43.8497 49.3959 43.5297 49.1736C43.3003 49.014 42.6779 48.9875 39.1606 48.9875C35.6433 48.9875 35.0209 49.014 34.7914 49.1736Z" fill="#FC4639"/>
</svg>
