<svg width="77" height="70" viewBox="0 0 77 70" fill="none" xmlns="http://www.w3.org/2000/svg">
<path fill-rule="evenodd" clip-rule="evenodd" d="M19.9608 10.0238C13.0223 12.7832 7.21584 15.152 7.05728 15.288C6.77078 15.5337 6.76912 15.5562 6.76912 19.0562C6.76912 22.421 6.78052 22.5877 7.02527 22.8117C7.26438 23.0306 7.45214 23.0462 9.8429 23.0462H12.4044V32.0039V40.9614L11.0086 41.0012C9.0012 41.0582 9.07446 40.9627 9.07446 43.5208V45.5541H7.73697C5.9132 45.5541 6.00067 45.4052 6.00067 48.511C6.00067 50.7904 6.01706 50.9616 6.25682 51.1811C6.51015 51.413 6.68369 51.4156 22.0664 51.4156C30.6209 51.4156 37.6421 51.4551 37.6691 51.5035C37.6961 51.5519 37.6932 52.5541 37.6625 53.7308L37.6065 55.8702H35.3794C32.3878 55.8702 32.5962 55.6598 32.6684 58.608C32.7167 60.5801 32.7582 60.9339 33.01 61.5236C33.6176 62.9466 34.8688 64.0876 36.4853 64.6929L37.1868 64.9555L47.881 64.9911C55.5343 65.0165 58.7923 64.9885 59.3385 64.8924C61.1236 64.5784 62.6513 63.4674 63.4785 61.8817L63.9543 60.9697L63.9901 51.6207L64.0257 42.2717H66.9038C69.6357 42.2717 69.795 42.2595 70.0447 42.031C70.3003 41.7971 70.3066 41.6894 70.2688 38.1918L70.23 34.5932L69.8726 33.9271C69.4852 33.2051 68.9292 32.6935 68.0811 32.2787C67.541 32.0145 67.5322 32.0142 60.4003 31.9811L53.2601 31.9481V27.4971V23.0462H55.7633C58.2504 23.0462 58.2687 23.0443 58.581 22.7584L58.8954 22.4707L58.8936 19.1536C58.8927 17.3293 58.8566 15.7158 58.8133 15.5682C58.7701 15.4205 58.557 15.2156 58.3398 15.1127C57.3389 14.639 32.9616 4.99379 32.7808 5C32.6682 5.00387 26.8992 7.26463 19.9608 10.0238ZM45.1686 11.3954L57.2256 16.1883L57.228 18.9142L57.2304 21.64L32.8002 21.6105L8.37005 21.5808V18.8997V16.2187L20.5371 11.3697C27.229 8.70279 32.7959 6.53922 32.9079 6.56161C33.02 6.58411 38.5373 8.75929 45.1686 11.3954ZM31.8077 7.8115C29.017 8.14736 26.5156 10.1704 25.7869 12.6809C25.5374 13.5406 25.509 15.0728 25.7269 15.9098C26.5096 18.9146 29.4373 21.0448 32.794 21.0515C35.892 21.0579 38.6395 19.2602 39.7019 16.532C40.0726 15.58 40.1576 13.9715 39.8917 12.9371C39.5613 11.651 38.9625 10.6633 37.9445 9.72514C36.332 8.23927 34.0826 7.53777 31.8077 7.8115ZM34.6108 9.45212C35.6366 9.74202 36.8685 10.5652 37.4573 11.3539C38.7109 13.0333 38.8498 15.305 37.7994 16.9457C35.8439 19.9998 31.5091 20.5432 28.7724 18.0775C26.2472 15.8023 26.7042 11.7901 29.688 10.0376C31.1355 9.18741 32.9227 8.97488 34.6108 9.45212ZM30.1511 10.8946L29.8225 11.1954V14.4299V17.6643L30.1511 17.9652C30.4779 18.2642 30.4902 18.2657 32.2324 18.2178C34.181 18.1641 34.5026 18.0715 35.1763 17.369C35.8127 16.7056 35.9009 15.4437 35.3585 14.7622L35.0979 14.4347L35.3589 14.0992C35.9004 13.4032 35.8129 12.1544 35.1763 11.4907C34.5026 10.7883 34.181 10.6957 32.2324 10.642C30.4902 10.594 30.4779 10.5956 30.1511 10.8946ZM33.9776 12.4045C34.0873 12.5478 34.177 12.7734 34.177 12.9059C34.177 13.0384 34.0873 13.264 33.9776 13.4073C33.7969 13.6435 33.6713 13.6679 32.6328 13.6679H31.4875V12.9059V12.1439H32.6328C33.6713 12.1439 33.7969 12.1683 33.9776 12.4045ZM33.9428 15.3859C34.2347 15.6276 34.2465 16.2169 33.9651 16.5014C33.7901 16.6783 33.5551 16.7158 32.6203 16.7158H31.4875V15.9539V15.1919H32.598C33.4517 15.1919 33.7628 15.2368 33.9428 15.3859ZM17.0151 32.0142V40.9822H15.4782H13.9413V32.0142V23.0462H15.4782H17.0151V32.0142ZM23.9311 32.0142V40.9822H21.2415H18.552V32.0142V23.0462H21.2415H23.9311V32.0142ZM28.5418 32.0142V40.9822H27.0049H25.468V32.0142V23.0462H27.0049H28.5418V32.0142ZM35.4578 32.0142V40.9822H32.7682H30.0787V32.0142V23.0462H32.7682H35.4578V32.0142ZM40.0685 27.6777V32.3093L39.2557 33.0409C38.0118 34.1608 37.9382 34.4169 37.8229 38.0237L37.7285 40.9822H37.4256H37.1227V32.0142V23.0462H38.5956H40.0685V27.6777ZM47.0821 27.4716L47.0485 31.897L44.3269 31.9286L41.6053 31.9603V27.5032V23.0462H44.3605H47.1156L47.0821 27.4716ZM51.5951 27.5009V31.9556H50.1223H48.6494V27.5009V23.0462H50.1223H51.5951V27.5009ZM62.8781 33.9774L62.5455 34.5925L62.4815 47.6053L62.4174 60.618L62.0783 61.2801C60.8186 63.7396 57.3962 64.3308 55.3453 62.4431C55.0482 62.1697 54.6447 61.6472 54.4489 61.282C54.1073 60.645 54.0903 60.5283 54.0287 58.4102C53.9702 56.3982 53.9425 56.1877 53.7159 56.0364C53.5085 55.8978 52.2852 55.8702 46.3259 55.8702H39.1846L39.2407 54.4928C39.2716 53.7353 39.3241 49.1226 39.3575 44.2423C39.4068 37.0366 39.4515 35.2965 39.5959 34.9813C39.8619 34.4003 40.3879 33.885 40.9973 33.609C41.5372 33.3643 41.6225 33.3626 52.376 33.3624L63.2107 33.3623L62.8781 33.9774ZM67.4814 33.5991C67.7602 33.7294 68.147 34.055 68.3407 34.3229L68.6931 34.81V37.8082V40.8064H66.3877H64.0824V37.8082V34.81L64.4343 34.3236C65.0934 33.4124 66.4108 33.0993 67.4814 33.5991ZM41.8295 39.699C41.5221 39.867 41.5343 40.5353 41.8495 40.7964C42.2114 41.0961 42.8639 40.9986 43.191 40.5958C43.4366 40.2935 43.4422 40.2435 43.2637 39.9511C43.1105 39.7003 42.9638 39.6281 42.5618 39.6053C42.2823 39.5895 41.9527 39.6317 41.8295 39.699ZM44.1227 39.7899C43.8201 40.0958 43.8551 40.5815 44.1954 40.7997C44.4281 40.9489 44.9129 40.9822 46.8564 40.9822C49.5074 40.9822 49.8021 40.912 49.8021 40.2806C49.8021 39.6114 49.6523 39.5755 46.8672 39.5755C44.5763 39.5755 44.3144 39.596 44.1227 39.7899ZM50.6437 39.7596C50.345 40.0331 50.3891 40.583 50.7272 40.7997C50.9703 40.9556 51.6054 40.9822 55.0817 40.9822C58.9808 40.9822 59.1623 40.9723 59.4077 40.7477C59.7274 40.4551 59.737 40.0241 59.4296 39.7695C59.2217 39.5973 58.7256 39.5755 55.0202 39.5755C51.3954 39.5755 50.8185 39.5997 50.6437 39.7596ZM37.7631 44.0301V45.5541H24.1872H10.6113V44.0301V42.5062H24.1872H37.7631V44.0301ZM41.733 45.1442C41.4779 45.4256 41.5423 45.9274 41.8644 46.1659C42.1388 46.3693 42.4787 46.3799 47.7822 46.3489C53.1823 46.3174 53.4164 46.307 53.5907 46.0886C53.8402 45.7763 53.8184 45.3941 53.5382 45.162C53.3276 44.9876 52.7278 44.968 47.5985 44.968C42.6778 44.968 41.8708 44.9922 41.733 45.1442ZM54.5665 45.1087C54.3029 45.3499 54.38 45.9888 54.6975 46.1922C55.1424 46.4775 55.9045 46.4268 56.2756 46.0869C56.6421 45.7516 56.6642 45.586 56.3906 45.2286C56.224 45.0108 56.0707 44.968 55.4557 44.968C55.0511 44.968 54.651 45.0313 54.5665 45.1087ZM57.3143 45.1824C56.9473 45.5535 57.0545 45.9895 57.5742 46.2399C58.1373 46.5113 59.2865 46.3591 59.5659 45.9761C59.7338 45.7459 59.6693 45.3606 59.4296 45.162C59.0839 44.8756 57.6035 44.8898 57.3143 45.1824ZM37.7631 48.4848V50.0088H22.6503H7.53756V48.4848V46.9609H22.6503H37.7631V48.4848ZM41.8597 50.4554C41.5177 50.7089 41.4811 51.2349 41.7859 51.5139C42.0546 51.7599 43.9805 51.8554 44.6989 51.6585C45.2238 51.5145 45.419 51.1838 45.2561 50.7139C45.1306 50.3522 44.6872 50.2433 43.3402 50.2433C42.3785 50.2433 42.0902 50.2845 41.8597 50.4554ZM46.1382 50.5383C45.9025 50.754 45.839 50.9036 45.9016 51.0952C46.1095 51.73 45.8641 51.7063 52.5922 51.7379C59.0651 51.7684 59.2544 51.7562 59.5741 51.2872C59.768 51.0027 59.5814 50.5343 59.2126 50.3805C58.9754 50.2817 57.1462 50.2433 52.6719 50.2433H46.4605L46.1382 50.5383ZM52.5198 59.0647C52.5841 61.1351 52.7672 61.7212 53.7194 62.905L54.2906 63.6153L45.8668 63.582L37.4429 63.5487L36.7142 63.2212C35.8161 62.8176 34.7979 61.8273 34.4934 61.0618C34.3384 60.6721 34.2516 60.0088 34.2092 58.8889L34.148 57.277H43.3062H52.4643L52.5198 59.0647Z" fill="#FC4639"/>
</svg>
