<svg width="77" height="70" viewBox="0 0 77 70" fill="none" xmlns="http://www.w3.org/2000/svg">
<path fill-rule="evenodd" clip-rule="evenodd" d="M24.5408 5.2683C24.2916 5.51746 24.2642 5.72915 24.2642 7.41144V9.27805H22.4983C20.4401 9.27805 19.319 9.52859 18.1013 10.2604C16.6413 11.1382 15.4505 12.8492 15.1393 14.5164C15.0498 14.9958 15.0003 23.1056 15.0003 37.2669C15.0003 61.2469 14.9593 59.9614 15.7757 61.5725C16.2409 62.4905 17.5096 63.7592 18.4276 64.2243C20.0322 65.0375 18.9555 64.9997 40.5798 64.9997C62.2041 64.9997 61.1274 65.0375 62.732 64.2243C63.6499 63.7592 64.9187 62.4905 65.3838 61.5725C66.2003 59.9614 66.1592 61.2469 66.1592 37.2669C66.1592 23.1056 66.1097 14.9958 66.0202 14.5164C65.8072 13.375 65.1021 12.0719 64.2331 11.2132C62.7506 9.7483 61.3973 9.27805 58.6637 9.27805H56.8953V7.43758C56.8953 5.77644 56.8678 5.56751 56.6134 5.29444C56.2577 4.91268 55.6042 4.90024 55.2361 5.2683C54.9869 5.51746 54.9596 5.72915 54.9596 7.41144V9.27805H40.5798H26.2V7.43758C26.2 5.77644 26.1725 5.56751 25.9181 5.29444C25.5624 4.91268 24.9088 4.90024 24.5408 5.2683ZM24.2642 12.6503C24.2642 14.3296 24.4455 14.7165 25.2321 14.7165C26.0187 14.7165 26.2 14.3296 26.2 12.6503V11.2138H40.5798H54.9596V12.6503C54.9596 14.3296 55.1408 14.7165 55.9274 14.7165C56.7157 14.7165 56.8953 14.3307 56.8953 12.6373V11.1878L58.8656 11.2354C60.6877 11.2793 60.8945 11.3117 61.616 11.6659C62.5261 12.1129 63.4324 13.0392 63.8555 13.9548L64.1543 14.6013V37.1389V59.6764L63.8555 60.323C63.4324 61.2386 62.5261 62.1648 61.616 62.6119L60.8359 62.9949H40.5798H20.3236L19.6771 62.6961C18.7615 62.273 17.8352 61.3666 17.3882 60.4565L17.0052 59.6764L16.969 37.4219C16.929 12.8459 16.8777 14.3404 17.8015 13.1371C18.9528 11.637 19.9628 11.2249 22.5013 11.2184L24.2642 11.2138V12.6503ZM30.9932 21.683C30.068 22.574 28.7989 23.8003 28.1728 24.4082L27.0346 25.5134L25.5317 24.0325C24.5413 23.0565 23.9256 22.5517 23.7256 22.5517C23.3273 22.5517 22.7433 23.1451 22.7433 23.5496C22.7433 23.9853 26.5551 27.8059 26.9896 27.8059C27.387 27.8059 28.3534 26.9692 31.492 23.9081C34.2771 21.1917 34.3766 21.037 33.7418 20.4023C33.1187 19.7792 32.8306 19.9133 30.9932 21.683ZM40.8804 23.2865C40.4905 23.7017 40.4981 24.2242 40.8997 24.6017L41.2198 24.9022H49.4786H57.7375L58.0768 24.5628C58.2635 24.3761 58.4162 24.0934 58.4162 23.9344C58.4162 23.7754 58.2635 23.4926 58.0768 23.306L57.7375 22.9665H49.4593H41.1811L40.8804 23.2865ZM40.8804 37.1132C40.4905 37.5284 40.4981 38.0509 40.8997 38.4284L41.2198 38.729H49.4786H57.7375L58.0768 38.3895C58.2635 38.2029 58.4162 37.9201 58.4162 37.7611C58.4162 37.6021 58.2635 37.3193 58.0768 37.1327L57.7375 36.7932H49.4593H41.1811L40.8804 37.1132ZM30.9932 49.3364C30.068 50.2274 28.7989 51.4537 28.1728 52.0616L27.0346 53.1668L25.5317 51.686C24.5413 50.7099 23.9256 50.2051 23.7256 50.2051C23.3273 50.2051 22.7433 50.7986 22.7433 51.203C22.7433 51.6387 26.5551 55.4593 26.9896 55.4593C27.387 55.4593 28.3534 54.6226 31.492 51.5615C34.2771 48.8451 34.3766 48.6904 33.7418 48.0558C33.1187 47.4326 32.8306 47.5667 30.9932 49.3364ZM40.8804 50.9399C40.4905 51.3551 40.4981 51.8776 40.8997 52.2551L41.2198 52.5557H49.4786H57.7375L58.0768 52.2162C58.2635 52.0296 58.4162 51.7468 58.4162 51.5878C58.4162 51.4288 58.2635 51.146 58.0768 50.9594L57.7375 50.6199H49.4593H41.1811L40.8804 50.9399Z" fill="#FC4639"/>
<path d="M21.9437 35.7493C21.2601 35.1341 21.6953 34 22.6149 34C22.8628 34 23.102 34.0918 23.2862 34.2576L31.0563 41.2507C31.7399 41.8659 31.3047 43 30.3851 43C30.1372 43 29.898 42.9082 29.7138 42.7424L21.9437 35.7493Z" fill="#FC4639"/>
<path d="M31.0563 35.7493C31.7399 35.1341 31.3047 34 30.3851 34C30.1372 34 29.898 34.0918 29.7138 34.2576L21.9437 41.2507C21.2601 41.8659 21.6953 43 22.6149 43C22.8628 43 23.102 42.9082 23.2862 42.7424L31.0563 35.7493Z" fill="#FC4639"/>
</svg>
