<svg width="77" height="70" viewBox="0 0 77 70" fill="none" xmlns="http://www.w3.org/2000/svg">
<path fill-rule="evenodd" clip-rule="evenodd" d="M23.3244 9.4413C17.7403 11.8772 11.8306 14.4547 10.1919 15.1688C8.55323 15.8831 7.11113 16.5688 6.98739 16.6925C6.78865 16.8913 6.76238 17.1842 6.76238 19.202C6.76238 21.3172 6.78116 21.5052 7.0162 21.7402C7.25391 21.9779 7.4392 21.994 9.93517 21.994H12.6003V33.8603V45.7265H11.1408C9.08677 45.7265 9.1737 45.6031 9.1737 48.5186V50.803H7.84113C5.8995 50.803 6.00091 50.6187 6.00091 54.1465C6.00091 56.8683 6.01169 56.9921 6.26806 57.2241C6.52734 57.4588 7.00085 57.4669 22.3324 57.4991C31.0209 57.5173 38.1081 57.5744 38.0814 57.6261C37.4432 58.8647 37.4116 58.9888 37.4116 60.2579C37.4116 61.364 37.4546 61.6187 37.746 62.2403C38.4587 63.7605 39.7327 64.664 41.4927 64.8979C42.1427 64.9841 46.781 65.0168 54.862 64.9919L67.2359 64.9537L67.9701 64.6574C69.5449 64.0217 70.7951 62.3657 70.9446 60.7174C71.0827 59.1944 71.1733 59.3758 64.3829 47.575C60.9001 41.5222 57.9025 36.3759 57.7216 36.1387C57.273 35.5508 56.4509 35.0072 55.55 34.7031L54.7985 34.4494V28.2534V22.0575L57.4566 22.0231C59.7057 21.994 60.15 21.9568 60.3438 21.7813C60.5493 21.5954 60.573 21.3274 60.573 19.1913C60.573 17.3183 60.5351 16.7707 60.3953 16.6311C60.1735 16.4093 33.909 4.98327 33.6593 5.00002C33.5592 5.00674 28.9085 7.00535 23.3244 9.4413ZM46.4541 12.2381L59.0501 17.7147V19.0295V20.3442H33.7311H8.41223V19.0278V17.7115L11.3629 16.4253C12.9859 15.7179 18.6255 13.2593 23.8955 10.9618C29.1655 8.66447 33.563 6.77958 33.6677 6.7731C33.7724 6.76676 39.5263 9.22593 46.4541 12.2381ZM32.4407 10.2992C29.672 11.256 28.8518 14.7668 30.915 16.83C32.3797 18.2947 34.7779 18.355 36.3227 16.966C37.2207 16.1586 37.6409 15.2437 37.6512 14.0732C37.6752 11.3314 35.0197 9.40805 32.4407 10.2992ZM34.8148 11.9705C36.2283 12.6915 36.4624 14.6975 35.2568 15.7561C33.6245 17.189 31.2304 15.971 31.4104 13.7992C31.5457 12.1686 33.3273 11.2116 34.8148 11.9705ZM17.423 33.8603V45.7265H15.8366H14.2502V33.8603V21.994H15.8366H17.423V33.8603ZM24.53 33.8603V45.7265H21.738H18.9459V33.8603V21.994H21.738H24.53V33.8603ZM29.3527 33.8603V45.7265H27.7663H26.1799V33.8603V21.994H27.7663H29.3527V33.8603ZM36.4598 33.8603V45.7265H33.6677H30.8756V33.9449C30.8756 27.4649 30.9137 22.1251 30.9603 22.0787C31.0067 22.0321 32.2632 21.994 33.7523 21.994H36.4598V33.8603ZM41.2824 33.8603V45.7265H39.696H38.1096V33.8603V21.994H39.696H41.2824V33.8603ZM48.3895 30.8794V39.7646L46.6899 42.7139L44.9903 45.6631L43.8978 45.6998L42.8053 45.7364V33.9499C42.8053 27.4672 42.8434 22.1251 42.89 22.0787C42.9364 22.0321 44.1929 21.994 45.6821 21.994H48.3895V30.8794ZM53.2121 28.2592V34.5243L52.4215 34.8126C51.8141 35.0341 51.4463 35.2854 50.8351 35.8966L50.0393 36.6923V29.3431V21.994H51.6257H53.2121V28.2592ZM55.6855 36.5179C56.0411 36.7263 56.4316 37.1127 56.6952 37.5165C57.3171 38.4696 68.8041 58.4779 69.0868 59.1001C69.378 59.7416 69.399 60.7985 69.1331 61.4359C68.8848 62.0313 68.2722 62.675 67.6166 63.0295L67.109 63.3038L54.4268 63.338C40.0698 63.3766 40.8249 63.4241 39.8196 62.4188C38.8657 61.4649 38.6532 60.1101 39.2673 58.8982C39.9943 57.4637 51.6434 37.3548 51.9246 37.0488C52.1093 36.8479 52.5458 36.5451 52.8948 36.3755C53.741 35.9647 54.8371 36.0207 55.6855 36.5179ZM53.5929 43.4421C53.3468 43.6882 53.339 43.8651 53.339 49.2166C53.339 54.5681 53.3468 54.745 53.5929 54.9911C53.9471 55.3453 54.4098 55.3125 54.7258 54.9105C54.9825 54.5842 54.9889 54.4465 54.9889 49.2166C54.9889 43.9867 54.9825 43.849 54.7258 43.5227C54.4098 43.1208 53.9471 43.0879 53.5929 43.4421ZM43.9476 47.432C43.9476 47.4626 43.5148 48.2336 42.9859 49.1453L42.0243 50.803H26.4239H10.8236V49.0897V47.3764H27.3856C36.4947 47.3764 43.9476 47.4014 43.9476 47.432ZM41.0286 52.5085C41.0286 52.539 40.5958 53.31 40.067 54.2218L39.1054 55.8795H23.3781H7.65076V54.1662V52.4529H24.3397C33.5186 52.4529 41.0286 52.4779 41.0286 52.5085ZM53.5491 57.3807C53.2285 57.7349 53.2576 59.0977 53.5929 59.433C53.952 59.7922 54.4097 59.7542 54.7382 59.3378C54.966 59.0491 55.0047 58.8646 54.9622 58.2698C54.9339 57.8743 54.8357 57.4602 54.7439 57.3496C54.5161 57.0753 53.8089 57.0937 53.5491 57.3807Z" fill="#FC4639"/>
</svg>
