<svg width="77" height="70" viewBox="0 0 77 70" fill="none" xmlns="http://www.w3.org/2000/svg">
<path fill-rule="evenodd" clip-rule="evenodd" d="M25.8806 5.03221C22.0884 5.36625 19.2969 5.98489 16.9495 7.01156C15.2925 7.73629 13.6584 9.16977 13.2349 10.2702C13.007 10.8627 13 11.409 13 28.8281V46.7755L13.3428 47.4737C13.7394 48.2811 14.7531 49.2593 15.8524 49.8954L16.5796 50.3162L16.6587 51.1708C17.0175 55.0474 18.3955 58.0668 20.9817 60.644C23.651 63.3039 26.7878 64.7172 30.5907 64.9737C33.6315 65.1787 37.2273 64.1718 39.7488 62.4093L40.5354 61.8593L41.5408 62.0944C44.5122 62.7895 49.3331 63.0332 52.6187 62.6542C58.3274 61.9959 62.4504 60.1623 63.6156 57.7637L63.9121 57.1533V47.7522V38.3512L63.5717 37.658C63.1829 36.8663 62.1811 35.884 61.1134 35.2475C59.1944 34.1035 55.9736 33.1862 52.4966 32.7935C50.2828 32.5434 45.5007 32.6521 43.6144 32.9952L43.2176 33.0674L43.2169 22.035C43.2165 14.8946 43.1722 10.8441 43.0914 10.5532C42.9041 9.87863 42.2457 8.99676 41.4463 8.34968C39.6051 6.85919 36.5124 5.78808 32.5346 5.26333C31.1174 5.07641 27.0019 4.93344 25.8806 5.03221ZM32.1073 6.66738C37.6236 7.35549 41.7525 9.3938 41.7525 11.4291C41.7525 13.3524 38.4711 15.1757 33.3661 16.0892C31.9761 16.3379 31.4083 16.3694 28.2614 16.3719C24.5353 16.3749 23.614 16.2943 21.2412 15.7573C18.5338 15.1447 16.5334 14.2589 15.4013 13.1712C14.4711 12.2776 14.2649 11.7077 14.5766 10.8915C15.4068 8.71754 19.6933 7.05148 25.8806 6.49804C26.8024 6.41551 31.0049 6.5299 32.1073 6.66738ZM25.8196 8.09731C23.6655 8.24468 20.491 8.85575 20.1159 9.1954C19.7938 9.48684 19.8364 10.0409 20.199 10.2786C20.4786 10.4617 20.5775 10.4575 21.5963 10.2183C23.0928 9.86691 24.9018 9.62688 26.7963 9.52798C28.5366 9.43727 28.8108 9.32885 28.8108 8.73207C28.8108 8.05116 28.246 7.93127 25.8196 8.09731ZM17.3342 10.2812C16.4925 10.7585 16.1133 11.1718 16.1133 11.6116C16.1133 11.8206 16.1793 12.0576 16.2598 12.1382C16.4386 12.3169 17.1682 12.3325 17.2749 12.1599C17.3173 12.0913 17.6502 11.8148 18.0147 11.5455C18.7028 11.0373 18.839 10.7058 18.5246 10.3058C18.2543 9.96202 17.9097 9.95494 17.3342 10.2812ZM16.5957 15.7612C17.9789 16.4622 20.568 17.2053 23.0115 17.6029C24.8769 17.9064 29.8913 17.9793 32.0102 17.7337C36.0136 17.2698 39.3363 16.2061 41.1809 14.7982L41.7525 14.3618V16.0566V17.7512L41.3557 18.3409C39.3686 21.2939 30.7456 22.9895 23.2304 21.905C22.3089 21.772 22.2084 21.7785 21.979 21.9862C21.6402 22.2929 21.653 22.8518 22.0042 23.0776C22.7984 23.5879 28.9041 23.8674 31.8631 23.5289C35.7296 23.0867 39.4926 21.8933 41.1437 20.5857C41.3971 20.385 41.6379 20.2206 41.6785 20.2206C41.7192 20.2206 41.7525 20.9516 41.7525 21.8449C41.7525 23.4299 41.7439 23.4829 41.3963 24.0311C39.7667 26.6006 32.7595 28.3896 26.0932 27.9383C21.0634 27.5976 17.1025 26.3893 15.3316 24.6552C14.5452 23.8852 14.4098 23.4447 14.4067 21.6449L14.4041 20.078L14.8619 20.4326C16.0723 21.37 16.6682 21.5132 16.9748 20.9404C17.2069 20.5068 17.0048 20.1328 16.2645 19.626C14.6536 18.5231 14.4041 18.0222 14.4041 15.8911V14.3618L15.2158 14.9176C15.6622 15.2233 16.2832 15.6029 16.5957 15.7612ZM15.1058 26.3723C19.4514 29.4688 29.3154 30.4074 36.5026 28.4084C38.2124 27.9328 39.7807 27.2619 40.8304 26.557L41.6915 25.9787L41.7255 27.5539C41.7653 29.3946 41.6446 29.7544 40.7122 30.5751C38.1734 32.8098 31.4718 34.1686 25.4796 33.6634C20.2432 33.222 15.9933 31.6839 14.8339 29.8108C14.4793 29.2376 14.4635 29.1525 14.4252 27.5869C14.4031 26.6915 14.4167 25.9589 14.4553 25.9589C14.494 25.9589 14.7867 26.145 15.1058 26.3723ZM14.7759 31.8871C15.2772 32.4911 17.608 33.5719 19.654 34.1492C26.8022 36.166 36.4708 35.2719 41.0505 32.1707L41.7525 31.6954V32.5509C41.7525 33.3053 41.7255 33.4065 41.5242 33.4065C40.6298 33.4065 37.1555 34.777 35.9538 35.6038L35.3874 35.9935L34.3273 35.7682C32.8682 35.4584 29.8965 35.4615 28.4446 35.7746C26.4214 36.2108 24.211 37.1976 22.7064 38.3363L21.9128 38.9369L21.1802 38.786C17.9095 38.1123 14.9227 36.4292 14.5377 35.0431C14.3799 34.4743 14.3578 31.6972 14.5112 31.6972C14.5701 31.6972 14.6893 31.7827 14.7759 31.8871ZM52.3745 34.2729C56.3435 34.6506 59.9894 35.9012 61.5346 37.4148C62.8149 38.6689 62.785 39.623 61.426 40.8787C59.8735 42.3132 56.6328 43.4326 52.6187 43.9209C51.1556 44.0989 47.0238 44.1391 45.6595 43.9884L44.7438 43.8874L44.1707 42.8896C42.7286 40.3794 40.5963 38.3641 37.9963 37.0542L37.1091 36.6072L37.5277 36.3604C37.7579 36.2245 38.4348 35.9179 39.0318 35.679C42.3952 34.3334 47.4334 33.8024 52.3745 34.2729ZM30.6422 37.4966C30.6422 38.375 31.2132 38.7805 31.8359 38.3442C32.0541 38.1915 32.1073 38.036 32.1073 37.5506C32.1073 36.8557 32.014 36.8835 33.5266 37.1288C34.7008 37.3193 36.3949 37.8649 37.4183 38.3822C38.196 38.7755 39.6685 39.7693 39.9674 40.1027C40.1935 40.3551 40.1913 40.3648 39.8148 40.7938C39.3543 41.3183 39.3404 41.5053 39.7325 41.8973C40.1246 42.2895 40.3116 42.2756 40.8361 41.815C41.265 41.4385 41.2748 41.4363 41.5271 41.6624C41.9551 42.046 42.981 43.6445 43.4728 44.6941C43.9807 45.7778 44.4844 47.5626 44.6201 48.7595L44.7066 49.5226H44.1453C43.7466 49.5226 43.5131 49.5934 43.3397 49.7667C42.7885 50.318 43.2302 50.9877 44.1453 50.9877H44.7066L44.6195 51.7507C44.3488 54.1183 43.1287 57.0011 41.713 58.6184L41.2855 59.1067L40.8722 58.7099C40.3068 58.1671 39.8777 58.1843 39.5736 58.7622C39.403 59.0862 39.491 59.3641 39.9086 59.8202L40.2264 60.1673L39.6928 60.6297C38.0325 62.0685 35.4625 63.1108 32.6262 63.4956L32.1073 63.566V62.9942C32.1073 62.3431 31.8584 61.9759 31.4169 61.9759C30.9529 61.9759 30.6422 62.3876 30.6422 63.0021V63.5399L30.1233 63.4841C28.3764 63.2964 26.4003 62.6683 24.8775 61.8167C24.0108 61.332 22.5842 60.2996 22.5842 60.157C22.5842 60.1081 22.749 59.9102 22.9504 59.7172C23.3756 59.3099 23.4183 58.9031 23.0725 58.5573C22.7334 58.2182 22.4184 58.2518 21.9314 58.6794C21.7019 58.8809 21.484 59.0457 21.4471 59.0457C21.4103 59.0457 21.0688 58.6198 20.6885 58.0995C19.4036 56.3415 18.4504 53.9442 18.2126 51.8728L18.111 50.9877H18.6111C19.2405 50.9877 19.654 50.7104 19.654 50.2883C19.654 49.7766 19.3309 49.5226 18.6804 49.5226H18.111L18.2161 48.6374C18.4758 46.452 19.2256 44.5003 20.5357 42.5992C21.3834 41.3694 21.3971 41.3617 21.9156 41.817C22.4178 42.2579 22.7307 42.2947 23.0725 41.9529C23.4201 41.6053 23.3754 41.2315 22.9314 40.7734C22.4509 40.2777 22.4692 40.2518 24.0406 39.2056C25.7102 38.0941 27.2114 37.4926 29.2321 37.1255C30.6587 36.8663 30.6422 36.862 30.6422 37.4966ZM15.0904 37.8678C15.8884 38.4769 17.6596 39.3024 19.1656 39.7668C19.8707 39.9844 20.4682 40.1784 20.4936 40.1981C20.5189 40.2177 20.32 40.4969 20.0516 40.8187C19.65 41.3002 18.8791 42.4316 18.2499 43.4633C18.1408 43.6423 18.0375 43.6181 17.2732 43.2346C16.1515 42.6718 15.2942 42.0127 14.8361 41.3611C14.4725 40.8442 14.4642 40.7995 14.4229 39.1345C14.3997 38.2 14.4128 37.4355 14.4523 37.4355C14.4917 37.4355 14.7789 37.6301 15.0904 37.8678ZM29.2992 39.6931C26.9178 40.2265 24.9093 41.3756 23.4035 43.066C19.5793 47.3592 19.7672 53.8252 23.8337 57.861C26.845 60.8497 31.3241 61.7854 35.2928 60.255C36.3296 59.8552 36.707 59.4971 36.5645 59.0484C36.5203 58.9091 36.3584 58.7127 36.2049 58.6121C35.9489 58.4444 35.8509 58.459 35.0238 58.7894C31.7807 60.0847 28.4302 59.6378 25.6975 57.5458C21.1822 54.0889 20.9082 47.2145 25.1338 43.4007C26.9072 41.8002 29.0366 40.9819 31.4358 40.9791C33.9622 40.9763 36.2707 41.9612 38.0474 43.8003C39.7215 45.5332 40.5002 47.3451 40.6176 49.7802C40.6966 51.4206 40.49 52.614 39.9016 53.9165C39.4638 54.8857 39.4777 55.3764 39.9494 55.6012C40.3957 55.8142 40.7012 55.6415 41.0346 54.988C42.0289 53.0389 42.3812 50.3144 41.9275 48.0829C41.7159 47.0428 41.1354 45.5962 40.511 44.5538C39.9673 43.6461 38.5954 42.1868 37.655 41.5157C36.7255 40.8525 35.1315 40.1 34.0608 39.819C32.959 39.5299 30.3371 39.4605 29.2992 39.6931ZM62.5081 43.5772C62.5081 44.9563 62.4817 45.1323 62.1854 45.7269C61.3074 47.4888 57.5908 49.0515 52.8628 49.647C51.4224 49.8284 47.9594 49.9415 46.9979 49.8384L46.1998 49.7528L46.0556 48.5694C45.9338 47.5681 45.7316 46.5856 45.4718 45.7313C45.4208 45.5635 45.7609 45.5419 48.4364 45.5426C51.6256 45.5435 52.9139 45.4312 55.3983 44.9355C58.0559 44.4052 60.5193 43.4586 61.8366 42.4614C62.1052 42.2581 62.3661 42.0879 62.4165 42.0833C62.4669 42.0788 62.5081 42.751 62.5081 43.5772ZM16.5712 44.5096C17.1251 44.7885 17.5784 45.0329 17.5784 45.0528C17.5784 45.0728 17.4689 45.4073 17.335 45.7964C17.2012 46.1856 17.0034 46.9771 16.8956 47.5554C16.7878 48.1338 16.6814 48.6259 16.6592 48.6491C16.5779 48.7343 15.5292 47.9366 15.1403 47.4935C14.499 46.7632 14.4041 46.402 14.4041 44.6935V43.153L14.984 43.5777C15.3029 43.8114 16.0172 44.2306 16.5712 44.5096ZM28.8788 44.0557C28.7212 44.2806 28.6887 44.7711 28.6887 46.9248V49.5226H27.9562C27.16 49.5226 26.7353 49.7774 26.7353 50.2551C26.7353 50.7328 27.16 50.9877 27.9562 50.9877H28.6887V51.5371V52.0865H27.9834C27.1638 52.0865 26.7353 52.3194 26.7353 52.7649C26.7353 53.2954 27.1328 53.5516 27.9562 53.5516H28.6887V54.6415C28.6887 55.676 28.7052 55.7445 29.0131 55.9867C29.3654 56.2637 29.7395 56.2296 30.0012 55.8967C30.0971 55.7747 30.1538 55.3025 30.1538 54.6271V53.5516H32.2294C34.1422 53.5516 34.3241 53.5324 34.5491 53.3074C34.6834 53.1731 34.7933 52.9533 34.7933 52.819C34.7933 52.6847 34.6834 52.465 34.5491 52.3307C34.3241 52.1056 34.1422 52.0865 32.2294 52.0865H30.1538V51.5496V51.0128L31.6495 50.9649C32.9787 50.9226 33.2147 50.8809 33.7706 50.592C35.1117 49.8946 35.8494 48.586 35.7427 47.0939C35.6472 45.7606 34.9754 44.7488 33.7927 44.1579C33.0506 43.7871 33.0303 43.7843 31.057 43.7843C29.141 43.7843 29.062 43.7942 28.8788 44.0557ZM33.258 45.526C33.5568 45.6961 33.8442 46.0014 34.0211 46.3368C34.5477 47.335 34.32 48.358 33.4092 49.0861C32.958 49.4465 32.8888 49.4621 31.5473 49.5047L30.1538 49.5489V47.3991V45.2494L31.4663 45.2513C32.5979 45.2531 32.8449 45.291 33.258 45.526ZM62.5073 49.2479C62.5065 51.1204 62.3945 51.4918 61.5958 52.2716C60.1926 53.6416 57.1598 54.7805 53.459 55.3275C51.8912 55.5592 48.0835 55.6918 46.4717 55.5707C45.3235 55.4845 45.2722 55.4687 45.3318 55.218C45.3661 55.0737 45.5352 54.3787 45.7074 53.6737C45.8797 52.9686 46.0506 52.1445 46.0873 51.8423L46.1539 51.2929L49.0505 51.2798C51.3568 51.2694 52.3029 51.2128 53.6927 51.0016C57.3797 50.4412 60.4826 49.3627 61.9586 48.1284C62.1601 47.9599 62.3661 47.8201 62.4165 47.8177C62.4669 47.8152 62.5077 48.4589 62.5073 49.2479ZM62.4893 55.2506C62.4479 56.9156 62.4396 56.9602 62.076 57.4772C60.7844 59.3142 56.7827 60.8097 51.9719 61.2533C50.0466 61.4309 45.6696 61.3336 44.1333 61.079C43.529 60.9789 42.8009 60.858 42.5156 60.8104C42.2303 60.7628 41.9967 60.6794 41.9967 60.6251C41.9967 60.5707 42.2883 60.192 42.6448 59.7834C43.0012 59.3746 43.5918 58.5502 43.9573 57.9515L44.6217 56.8627L45.2932 56.9469C46.4397 57.0908 51.6262 57.0379 52.9849 56.8684C56.7032 56.4049 60.4445 55.1689 61.9026 53.9225C62.1348 53.724 62.3714 53.5593 62.4282 53.5566C62.485 53.5538 62.5125 54.3161 62.4893 55.2506Z" fill="#FC4639"/>
</svg>
