<svg width="77" height="70" viewBox="0 0 77 70" fill="none" xmlns="http://www.w3.org/2000/svg">
<path fill-rule="evenodd" clip-rule="evenodd" d="M27.3247 5.14826C19.5818 5.23981 19.1789 5.26117 18.3563 5.62323C17.1393 6.15882 16.2346 6.86178 15.2267 8.05454C14.2557 9.2037 13.5567 10.4669 11.6645 14.4934L10.3791 17.2286L7.23677 17.3256C3.6966 17.4347 2.93499 17.6173 1.79251 18.6297C0.931594 19.3925 0.360977 20.6674 0.109188 22.3909C-0.229286 24.7068 0.095156 24.9914 2.87606 24.8184L4.67663 24.7064L3.87059 25.6954C2.94326 26.8334 2.377 28.183 2.15468 29.7847C2.01842 30.7663 2.11492 31.915 2.93359 39.0638C3.44761 43.5511 3.97536 47.5622 4.10647 47.9773C4.40348 48.9177 5.49825 50.1124 6.32674 50.4005L6.95224 50.618L7.00462 53.4439C7.06262 56.5835 7.20808 57.1314 8.16659 57.8202C8.6011 58.1325 8.95891 58.1696 11.5345 58.1696C14.2667 58.1696 14.4429 58.1484 14.9303 57.7625C15.878 57.0116 16.0215 56.4331 16.0215 53.362V50.6296L26.896 50.5094C32.8768 50.4434 39.7126 50.3893 42.0862 50.3893L46.402 50.3891L46.9778 51.7009C48.4778 55.1178 49.2028 55.8959 55.5438 60.8933C59.6892 64.1606 60.9296 65.055 61.2344 64.9974C61.4487 64.9569 63.8341 63.18 66.5352 61.0491C73.104 55.8666 74.4387 54.3217 75.8017 50.3245C76.6273 47.903 76.6635 47.3858 76.6665 37.9774C76.669 29.8075 76.6518 29.2569 76.3869 28.9786C76.2318 28.8156 74.3631 27.6997 72.2345 26.4988L68.3641 24.3152L68.6968 23.9555C69.102 23.5175 69.1265 22.7436 68.7843 21.1931C68.4535 19.6949 67.9089 18.6617 67.1162 18.0288C65.8819 17.0434 65.2748 16.9153 61.8136 16.9107L58.6619 16.9064L57.5826 14.6037C54.6585 8.36558 53.032 6.24368 50.4626 5.31563C49.4232 4.94017 46.6376 4.91991 27.3247 5.14826ZM50.762 7.76866C51.6867 8.36305 52.9193 9.81782 53.7934 11.3462C54.1101 11.8999 55.3533 14.4175 56.5562 16.941L58.7431 21.5289L57.2346 22.3884C56.0838 23.0439 55.5519 23.2479 54.9922 23.2479C54.2619 23.2479 54.258 23.2446 54.1628 22.5536C54.0016 21.3829 53.0379 19.3891 52.1874 18.4657C51.7565 17.9978 50.9322 17.3559 50.3557 17.0388C49.3666 16.4949 49.2065 16.4625 47.5146 16.4625C45.8199 16.4625 45.6638 16.4944 44.6656 17.0432C42.8109 18.0626 41.1544 20.4939 40.883 22.5947L40.7829 23.3698L25.1841 23.4943C16.6047 23.5629 9.56757 23.5965 9.5459 23.569C9.45079 23.4487 15.3394 11.2981 15.918 10.4205C16.6239 9.34991 17.7982 8.24037 18.7569 7.73844C19.3147 7.44622 20.1471 7.40605 27.4806 7.3163C31.9395 7.26166 38.815 7.22095 42.7594 7.22583L49.9311 7.23452L50.762 7.76866ZM49.0737 18.7686C50.3763 19.2273 51.6776 20.6682 52.1054 22.1251C52.2387 22.5791 52.3477 23.0173 52.3477 23.0991C52.3477 23.1809 50.1714 23.2479 47.5116 23.2479H42.6756L42.7763 22.7503C42.9465 21.91 43.6511 20.5364 44.1975 19.9795C45.5799 18.5709 47.2996 18.1439 49.0737 18.7686ZM65.813 19.6118C66.4016 20.0363 66.992 21.1478 66.9995 21.8456C67.0024 22.1188 66.8458 22.1622 65.8565 22.1622C64.8023 22.1622 64.575 22.0882 63.0236 21.2389C61.7317 20.5316 61.2208 20.3374 60.8404 20.4091C60.3954 20.4928 60.3172 20.4376 60.0875 19.8787C59.9466 19.5357 59.8312 19.2101 59.8312 19.1555C59.8312 19.101 61.0414 19.0833 62.5206 19.1164C65.0422 19.1729 65.2476 19.2038 65.813 19.6118ZM9.13399 19.6743C9.10624 19.7987 8.80581 20.4907 8.46625 21.2123L7.8487 22.5241H6.11206C5.15697 22.5241 3.83083 22.5775 3.16496 22.6428L1.95434 22.7617L2.06893 22.1452C2.46494 20.0128 3.43046 19.5158 7.26311 19.4707C8.73066 19.4533 9.1725 19.5015 9.13399 19.6743ZM74.7959 38.4388C74.7934 47.1454 74.7599 47.5867 73.9242 49.8926C73.355 51.4634 72.3382 53.2051 71.3482 54.305C70.8876 54.8166 69.3883 56.1244 68.0163 57.2111C66.6443 58.2979 64.534 59.9711 63.3268 60.9293L61.1316 62.6714L56.311 58.8641C53.6595 56.77 51.29 54.841 51.0453 54.5775C49.8307 53.2701 48.4887 50.73 47.8761 48.5797C47.6178 47.6734 47.5925 46.811 47.5925 38.9225V30.2602L54.364 26.4225L61.1355 22.5845L67.9669 26.4816L74.7982 30.3789L74.7959 38.4388ZM48.7618 27.1969L45.7217 28.9475V38.5575V48.1677L31.4562 48.284C23.6102 48.3479 14.9075 48.4203 12.117 48.4447C7.49308 48.4852 7.00602 48.461 6.62343 48.17C6.39253 47.9945 6.10239 47.6688 5.97844 47.4463C5.83735 47.1929 5.40237 43.9986 4.8146 38.8993C3.80978 30.1799 3.79965 29.8719 4.46755 28.3526C4.63593 27.9697 5.04862 27.3679 5.3846 27.0156C6.62296 25.7173 5.44696 25.8009 24.8302 25.6316C34.434 25.5478 44.4315 25.4718 47.0469 25.4628L51.802 25.4463L48.7618 27.1969ZM10.7197 32.6342C9.56274 33.0744 8.56899 34.0805 8.15615 35.2294C7.80427 36.2083 7.84293 37.9807 8.23675 38.9246C9.16549 41.1513 11.5572 42.0631 13.4783 40.9228C16.3147 39.2391 16.2281 34.6428 13.3271 32.9018C12.7761 32.5712 11.2867 32.4183 10.7197 32.6342ZM26.4967 33.2067C26.1884 33.5398 26.1554 33.7555 26.1554 35.4281C26.1554 37.6213 26.3328 38.0851 27.1722 38.0851C27.91 38.0851 28.0263 37.7297 28.0263 35.4734C28.0263 33.8027 27.987 33.5159 27.7145 33.1996C27.3169 32.7382 26.9278 32.7404 26.4967 33.2067ZM31.4562 33.1996C31.1848 33.5147 31.1444 33.8027 31.1444 35.4211C31.1444 37.5406 31.3324 38.0851 32.0646 38.0851C32.8606 38.0851 33.0153 37.6504 33.0153 35.4122C33.0153 33.5391 32.9914 33.3819 32.6687 33.1195C32.2024 32.7404 31.8309 32.7648 31.4562 33.1996ZM36.3762 33.24C36.1947 33.5405 36.1334 34.1114 36.1334 35.5018C36.1334 37.1201 36.1738 37.4082 36.4452 37.7232C36.8344 38.1748 37.4076 38.1884 37.7463 37.7541C38.1441 37.2441 38.1225 33.5608 37.7191 33.1372C37.3122 32.7098 36.6663 32.7592 36.3762 33.24ZM41.3652 33.24C41.1862 33.5364 41.1224 34.1006 41.1224 35.3869C41.1224 36.878 41.1694 37.2008 41.4456 37.6083C41.8145 38.1527 42.15 38.2072 42.6467 37.8033C42.9704 37.5404 42.9933 37.3852 42.9933 35.4641C42.9933 33.8348 42.9423 33.3473 42.7484 33.122C42.3846 32.7001 41.6533 32.7623 41.3652 33.24ZM21.4244 33.3496C21.2197 33.612 21.1664 34.0629 21.1664 35.5291C21.1664 37.2506 21.1927 37.4084 21.5491 37.8218C21.995 38.3395 22.2153 38.3708 22.6907 37.9843C23.0143 37.7214 23.0373 37.5661 23.0373 35.6451C23.0373 34.0157 22.9863 33.5282 22.7923 33.303C22.4615 32.9192 21.7409 32.9436 21.4244 33.3496ZM12.5151 34.9077C13.5136 35.3918 13.9687 36.9187 13.457 38.0672C12.8304 39.4734 11.0828 39.6661 10.185 38.4278C9.88001 38.0071 9.78521 37.6747 9.78521 37.0258C9.78521 36.0614 10.0576 35.5039 10.7779 34.9942C11.3627 34.5804 11.7958 34.5589 12.5151 34.9077ZM62.5357 41.3777L59.7879 44.3084L58.3596 42.5538C56.8445 40.6924 56.5053 40.4976 55.9335 41.1611C55.3174 41.8762 55.4788 42.187 58.2101 45.5489C58.8972 46.3945 59.4739 46.9512 59.6628 46.9512C60.0331 46.9512 60.3231 46.6713 63.8458 42.9113C66.1128 40.4916 66.5352 39.9604 66.5352 39.5283C66.5352 39.2464 66.425 38.8877 66.2903 38.7312C65.7407 38.0936 65.3699 38.3547 62.5357 41.3777ZM14.1158 53.2389L14.0726 55.9078L11.5898 55.9578C9.70804 55.9958 9.07646 55.952 8.98089 55.7768C8.76325 55.3791 8.82078 50.7948 9.04466 50.6898C9.15192 50.6397 10.3465 50.5921 11.6993 50.5843L14.1589 50.57L14.1158 53.2389Z" fill="#FC4639"/>
</svg>
