<svg width="115" height="90" viewBox="0 0 115 90" fill="none" xmlns="http://www.w3.org/2000/svg">
<path fill-rule="evenodd" clip-rule="evenodd" d="M12.5966 0.175755C10.8705 0.781084 9.87589 2.34064 10.0125 4.22773C10.1657 6.34618 11.6165 7.70701 13.8976 7.87213L15.0249 7.95353V31.8248V55.696H14.0916C9.95262 55.696 8.49447 61.1424 12.1463 62.9621L13.1586 63.4666H27.9815C36.1342 63.4666 42.8047 63.5089 42.8047 63.5608C42.8047 63.6127 40.5318 68.2051 37.7538 73.7663C32.761 83.7612 32.7029 83.8916 32.7029 85.0954C32.7029 87.9202 34.7443 89.9258 37.6056 89.9122C38.9956 89.9056 40.1971 89.3786 41.0583 88.3977C41.3891 88.0209 42.1124 86.8028 42.6652 85.6912L43.6704 83.6701H57.7658H71.8615L72.9227 85.8255C74.1903 88.3995 75.0672 89.322 76.6961 89.7955C79.8516 90.7128 82.8071 88.4391 82.8189 85.0851C82.8232 83.8916 82.764 83.7591 77.7723 73.7663C74.9944 68.2051 72.7215 63.6127 72.7215 63.5608C72.7215 63.5089 79.3919 63.4666 87.5446 63.4666H102.368L103.38 62.9621C107.032 61.1424 105.574 55.696 101.435 55.696H100.501V31.8248V7.95353L101.629 7.87213C103.076 7.76742 104.14 7.21008 104.872 6.17309C105.392 5.43761 105.455 5.19322 105.455 3.92448C105.455 2.65574 105.392 2.41135 104.872 1.67587C104.552 1.22206 103.94 0.668216 103.512 0.445006L102.735 0.0391875L57.9573 0.00538545C27.0454 -0.0181206 12.9989 0.0347192 12.5966 0.175755ZM102.653 2.84107C103.39 3.57791 103.39 4.27105 102.653 5.00789L102.085 5.57573H57.7631H13.4408L12.873 5.00789C12.1362 4.27105 12.1362 3.57791 12.873 2.84107L13.4408 2.27323H57.7631H102.085L102.653 2.84107ZM98.1701 31.8015V55.696H57.7631H17.356V31.8015V7.9069H57.7631H98.1701V31.8015ZM69.194 10.2317C67.6366 11.0775 66.7385 12.8663 66.9807 14.6407L67.109 15.5804L63.6171 18.8285L60.1251 22.0766L58.8778 21.96C57.2691 21.8098 56.3723 22.1088 55.3418 23.1396C54.3809 24.1002 53.9506 25.3629 54.1603 26.6056C54.2368 27.0593 54.3137 27.6053 54.3314 27.819C54.3537 28.0891 53.5631 28.9479 51.7384 30.6359C47.9176 34.1703 48.4565 33.8461 47.3658 33.2662C46.2887 32.6933 44.9206 32.6141 43.8483 33.062C43.2911 33.2948 43.0911 33.3043 42.8243 33.1106C42.6419 32.9783 41.1156 31.7793 39.4321 30.4465C36.8907 28.4341 36.3911 27.9562 36.487 27.6296C36.5506 27.4132 36.6498 26.7991 36.7077 26.2649C36.7957 25.4533 36.7227 25.1182 36.2636 24.2263C34.9743 21.7222 31.9185 21.107 29.8389 22.9327C26.6772 25.7087 29.2963 31.0254 33.3613 30.0828C33.9074 29.9561 34.4546 29.832 34.5776 29.8071C34.7004 29.7821 36.3275 30.9632 38.1933 32.4318L41.5857 35.1018L41.3918 35.949C40.8287 38.4103 42.4399 40.7374 44.9393 41.0727C47.4451 41.4088 49.7607 39.1946 49.5762 36.6388C49.5218 35.8868 49.5496 35.8544 52.8698 32.7844L56.2183 29.6882L56.8873 29.9678C58.4644 30.6267 60.6648 29.8938 61.7319 28.3542C62.4587 27.3056 62.6315 25.6701 62.1381 24.5103L61.8102 23.7395L63.8177 21.8277C64.9217 20.7764 66.4393 19.3625 67.19 18.6861L68.5549 17.4562L69.6183 17.8231C70.2032 18.025 70.8565 18.1926 71.0702 18.1955C71.8576 18.2062 72.9303 17.7804 73.8117 17.1077L74.7169 16.4169L77.3236 17.5426L79.9304 18.6682L79.8069 19.3998C79.4154 21.7166 81.5723 24.2185 83.9663 24.224C85.3961 24.2275 87.0154 23.1965 87.7057 21.8434C88.2958 20.6864 88.1645 18.7401 87.424 17.6714C86.2881 16.0324 83.862 15.384 82.1433 16.2603C81.7241 16.474 81.3159 16.6488 81.2361 16.6488C81.1562 16.6488 79.7762 16.0707 78.169 15.3641C75.4445 14.1665 75.2469 14.0443 75.2469 13.5569C75.2469 12.671 74.3335 11.1082 73.4636 10.5052C72.3984 9.76699 70.2974 9.63256 69.194 10.2317ZM21.1743 11.9532C20.7219 12.4533 20.7429 13.9635 21.2081 14.3847C21.6773 14.8093 22.4621 14.7932 22.8625 14.3509C23.3149 13.8508 23.2939 12.3406 22.8287 11.9194C22.3595 11.4948 21.5747 11.5109 21.1743 11.9532ZM72.4036 12.6928C73.2901 13.5794 73.0542 15.0065 71.9244 15.5907C71.1349 15.999 70.3357 15.8024 69.6964 15.0426C68.2575 13.3327 70.8196 11.109 72.4036 12.6928ZM21.1553 17.2749C20.8948 17.6467 20.8528 18.7043 20.8528 24.9051C20.8528 32.854 20.8691 32.967 22.0184 32.967C23.1677 32.967 23.184 32.854 23.184 24.9051C23.184 16.9561 23.1677 16.8431 22.0184 16.8431C21.6592 16.8431 21.349 16.9983 21.1553 17.2749ZM85.2251 18.715C86.2769 19.767 85.6607 21.5859 84.1724 21.8227C82.7993 22.041 81.6786 20.4484 82.3253 19.1981C82.7072 18.4594 83.1214 18.2163 84.011 18.2088C84.5155 18.2047 84.857 18.3469 85.2251 18.715ZM67.2821 19.9513C66.9011 20.3323 66.8935 20.5988 66.8935 33.647V46.9541H64.6595H62.4254V39.6692C62.4254 32.6432 62.4116 32.3705 62.0369 31.9957C61.6779 31.6367 61.3894 31.6072 58.2487 31.6072C55.1081 31.6072 54.8196 31.6367 54.4606 31.9957C54.0858 32.3705 54.0721 32.6432 54.0721 39.6692V46.9541H51.7409H49.4097V45.0416C49.4097 42.3908 49.5605 42.486 45.3634 42.486C41.1566 42.486 41.2506 42.4262 41.2506 45.1086V46.9541H38.9194H36.5882V39.6021C36.5882 32.7263 36.5653 32.2294 36.2329 31.9287C35.9314 31.6558 35.3733 31.6072 32.5419 31.6072C29.4651 31.6072 29.1761 31.6373 28.8177 31.9957C28.4429 32.3705 28.4291 32.6432 28.4291 39.6692V46.9541H27.2635C25.4264 46.9541 25.3209 47.1386 25.3209 50.3537C25.3209 52.7173 25.3594 53.0148 25.7094 53.3648C26.0948 53.7502 26.3569 53.7533 57.7631 53.7533C89.1693 53.7533 89.4313 53.7502 89.8167 53.3648C90.1668 53.0148 90.2053 52.7173 90.2053 50.3537C90.2053 47.9901 90.1668 47.6927 89.8167 47.3426C89.5762 47.1021 89.1693 46.9541 88.7483 46.9541H88.0684V36.6581C88.0684 26.621 88.0586 26.3523 87.6798 25.9735C87.3208 25.6145 87.0323 25.585 83.8917 25.585C80.751 25.585 80.4625 25.6145 80.1035 25.9735C79.7247 26.3523 79.715 26.621 79.715 36.6581V46.9541H77.4809H75.2469V33.647C75.2469 20.5988 75.2393 20.3323 74.8584 19.9513C74.4994 19.5923 74.2109 19.5628 71.0702 19.5628C67.9295 19.5628 67.6411 19.5923 67.2821 19.9513ZM72.9157 34.424V46.9541H71.0702H69.2247V34.424V21.894H71.0702H72.9157V34.424ZM33.7302 24.616C34.7299 25.4024 34.565 27.0637 33.4291 27.6512C32.6604 28.0486 31.6685 27.8528 31.1572 27.2028C29.8453 25.5349 32.0634 23.3049 33.7302 24.616ZM59.5264 24.793C60.218 25.4847 60.2868 26.4533 59.6974 27.2028C58.8846 28.2361 57.1105 27.9892 56.6066 26.7725C55.8296 24.8965 58.0943 23.361 59.5264 24.793ZM85.7372 37.4351V46.9541H83.8917H82.0462V37.4351V27.9162H83.8917H85.7372V37.4351ZM34.2571 40.4462V46.9541H32.5087H30.7603V40.4462V33.9384H32.5087H34.2571V40.4462ZM60.0943 40.4462V46.9541H58.2487H56.4032V40.4462V33.9384H58.2487H60.0943V40.4462ZM46.705 35.6718C47.6176 36.5844 47.3855 37.9795 46.2292 38.5308C45.4296 38.9121 44.7099 38.7752 44.0507 38.116C42.9807 37.0458 43.8681 35.104 45.4273 35.104C45.9528 35.104 46.2846 35.2514 46.705 35.6718ZM47.0785 45.8856V46.9541H45.3302H43.5818V45.8856V44.8172H45.3302H47.0785V45.8856ZM87.8741 50.3537V51.4222H57.7631H27.6521V50.3537V49.2853H57.7631H87.8741V50.3537ZM102.586 58.4091C102.812 58.6193 103.055 58.9754 103.126 59.2005C103.308 59.7744 102.897 60.6552 102.324 60.9159C101.635 61.2302 13.8911 61.2302 13.2017 60.9159C12.6294 60.6552 12.2177 59.7744 12.3998 59.2005C12.4713 58.9754 12.7143 58.6193 12.9398 58.4091C13.3449 58.0316 13.8731 58.0272 57.7631 58.0272C101.653 58.0272 102.181 58.0316 102.586 58.4091ZM45.3249 75.1296C40.3072 85.156 39.4006 86.8459 38.8639 87.1733C37.6592 87.9078 35.9118 87.5235 35.3288 86.3962C34.6573 85.0976 34.7043 84.9775 40.2189 73.9083L45.4209 63.4666H48.2913H51.1618L45.3249 75.1296ZM64.9037 69.781C66.6392 73.2538 68.0591 76.1387 68.0591 76.1917C68.0591 76.2447 63.4259 76.288 57.7631 76.288C52.1003 76.288 47.4671 76.2494 47.4671 76.202C47.4671 76.1548 48.8819 73.27 50.6112 69.7913L53.7556 63.4666H57.7518H61.7482L64.9037 69.781ZM75.312 73.9679C79.0959 81.6391 80.492 84.6521 80.492 85.1479C80.492 87.0886 78.4785 88.2128 76.7552 87.2343C76.1974 86.9174 75.4138 85.4661 70.2417 75.1704L64.3624 63.4666H67.2471H70.1317L75.312 73.9679ZM69.96 79.8856C70.3034 80.5821 70.5845 81.194 70.5845 81.2455C70.5845 81.297 64.8149 81.3389 57.7631 81.3389C50.7113 81.3389 44.9416 81.297 44.9416 81.2455C44.9416 81.194 45.2227 80.5821 45.5662 79.8856L46.1905 78.6192H57.7631H69.3356L69.96 79.8856Z" fill="#2F2F2F"/>
</svg>
