<svg width="90" height="90" viewBox="0 0 90 90" fill="none" xmlns="http://www.w3.org/2000/svg">
<path fill-rule="evenodd" clip-rule="evenodd" d="M42.2277 17.3374C31.0836 18.496 21.6154 26.4566 18.5355 37.2574C15.7378 47.0681 18.3882 57.4315 25.5316 64.614C32.5727 71.6935 42.6215 74.3984 52.2434 71.8041C61.231 69.3809 68.6661 62.1186 71.3758 53.1164C76.4433 36.2808 65.0128 19.0598 47.6215 17.3284C46.0888 17.1759 43.7438 17.1798 42.2277 17.3374ZM47.492 18.8947C56.5834 19.802 64.4889 25.3717 68.4557 33.6645C70.5164 37.9723 71.3775 42.8195 70.9113 47.4874C69.994 56.6714 64.4909 64.6014 56.2532 68.6096C49.1086 72.0858 40.789 72.0651 33.6793 68.5533C25.4518 64.4895 20.0093 56.6192 19.1115 47.4874C18.3521 39.7645 21.1515 31.9564 26.6535 26.4502C32.1871 20.9126 39.8549 18.1325 47.492 18.8947ZM38.0027 26.1719C37.4984 26.4373 37.2036 26.7096 36.9193 27.1728L36.5288 27.8091L36.4932 34.8986L36.4575 41.988H34.7023H32.947L32.5684 42.3695L32.1898 42.7509V44.9079C32.1898 46.2108 32.2468 47.1908 32.3336 47.3829C32.5614 47.8864 32.9814 47.9906 34.7863 47.9906H36.464V48.9693V49.9479L34.6831 49.9521C32.1732 49.958 32.1898 49.9381 32.1898 52.9333C32.1898 54.9534 32.2002 55.0346 32.5022 55.3886C32.8131 55.7528 32.8243 55.755 34.6393 55.7999L36.464 55.845V60.7186V65.5921L36.7763 65.9583L37.0886 66.3244L39.1884 66.3663C40.6228 66.3948 41.4079 66.3581 41.666 66.2505C42.4308 65.9311 42.422 65.9961 42.422 60.6892V55.8298L48.5208 55.7922L54.6197 55.7547L54.9403 55.3791C55.2588 55.0059 55.2607 54.9882 55.2204 52.7249C55.181 50.511 55.1712 50.4392 54.8741 50.1972C54.5829 49.9598 54.2793 49.9479 48.4951 49.9479H42.422V48.9693V47.9906L45.5629 47.9898C49.8282 47.9888 51.4731 47.7287 53.4961 46.7357C56.003 45.5051 57.7628 43.4472 58.6165 40.7484C58.9817 39.5939 59.1208 36.3827 58.8728 34.8337C58.1824 30.5228 55.0291 27.0837 50.8409 26.0744C49.8235 25.8292 49.321 25.809 44.2177 25.8082L38.6954 25.8073L38.0027 26.1719ZM50.6325 27.6305C53.6461 28.407 56.0406 30.6845 57.016 33.7019C57.4725 35.1143 57.5957 38.1679 57.2578 39.6982C56.6348 42.5194 54.6512 44.7526 51.9178 45.7104C50.2512 46.2942 49.0209 46.4247 45.1798 46.4247H41.6249L41.2365 46.816L40.8482 47.2073L40.8903 49.046C40.9324 50.8764 40.9341 50.886 41.2959 51.1992L41.6594 51.5138H47.6794H53.6995L53.6625 52.8513L53.6256 54.1889L47.581 54.2228L41.5362 54.2567L41.202 54.6569L40.8677 55.057V59.9405V64.8238H39.4474H38.0272L37.9903 59.868L37.9535 54.9122L37.5945 54.5506C37.2432 54.1967 37.198 54.188 35.4898 54.1435L33.7441 54.098V52.8059V51.5138H35.357C37.8833 51.5138 38.0183 51.378 38.0183 48.8352C38.0183 47.1881 38.0181 47.1874 37.6397 46.8061L37.2611 46.4247H35.5026H33.7441V44.9893V43.5539L35.525 43.5497C37.3808 43.5454 37.5756 43.4949 37.8676 42.9427C37.9767 42.7363 38.0196 40.6846 38.0228 35.5048C38.0266 29.8183 38.0626 28.2879 38.1991 28.04C38.5568 27.3895 38.6196 27.3827 44.3117 27.3777C49.1937 27.3735 49.7164 27.3944 50.6325 27.6305ZM41.6753 30.56L41.1916 31.0066L41.1552 36.6265C41.1149 42.8471 41.1076 42.7853 41.9426 43.2982C42.3228 43.5317 42.6107 43.553 45.4062 43.5534C47.7219 43.5538 48.6407 43.5059 49.2271 43.3543C52.0509 42.6237 54.0507 40.2546 54.2942 37.3513C54.513 34.744 53.1101 32.1255 50.8421 30.9075C49.4897 30.1814 49.0482 30.1167 45.4314 30.115L42.1592 30.1134L41.6753 30.56ZM49.8625 32.136C50.883 32.6549 51.7597 33.5603 52.2881 34.6413C52.6863 35.4562 52.7187 35.6173 52.7148 36.7656C52.7091 38.4826 52.3902 39.2766 51.2413 40.434C49.8753 41.8103 49.5263 41.9074 45.7572 41.9613L42.6811 42.0051V36.8339V31.6627L45.8867 31.7037L49.0924 31.7446L49.8625 32.136Z" fill="#2F2F2F"/>
<path fill-rule="evenodd" clip-rule="evenodd" d="M41.0971 0.103857C37.4621 0.435052 32.8565 1.46165 29.562 2.67479C27.0848 3.58708 22.4956 5.91734 20.3804 7.3369C16.2129 10.1338 11.8503 14.2153 9.11761 17.8739C4.32808 24.2864 1.38611 31.5278 0.221234 39.7718C-0.0740379 41.8626 -0.0736856 48.8665 0.221938 50.9536C0.992181 56.3917 2.88467 62.6933 3.99828 63.5282C4.73505 64.0805 5.67548 63.9877 6.28311 63.3028C6.93531 62.5673 6.90695 62.1152 6.06712 59.8701C2.15494 49.4107 2.69633 37.5157 7.5477 27.3476C12.2974 17.3925 20.3895 9.98255 30.7917 6.06323C37.9445 3.36824 46.7772 2.84411 54.428 4.66089C58.2202 5.56129 62.1698 7.12302 65.4096 9.00334C67.9875 10.4992 68.4423 10.8132 68.3595 11.0393C68.3195 11.1483 67.0444 12.9345 65.5256 15.0087C64.0068 17.0828 62.6874 19.0015 62.5936 19.2725C62.3403 20.0047 62.801 20.9926 63.5411 21.3041C64.064 21.5241 64.8653 21.4517 71.5129 20.5834C76.0343 19.9929 79.0494 19.5219 79.2793 19.37C79.4861 19.2335 79.7562 18.8765 79.8795 18.5766C80.0776 18.0947 79.9562 17.1721 78.8341 10.6346C78.0965 6.33763 77.452 3.06509 77.2961 2.82548C76.9101 2.23177 75.8484 1.94371 75.1999 2.2568C74.9068 2.39826 74.012 3.42876 73.0627 4.71822C72.1644 5.93828 71.2492 7.16739 71.029 7.44996L70.6283 7.96361L68.3419 6.57121C63.1669 3.41935 57.4496 1.33652 51.5757 0.46274C48.7777 0.046528 43.6527 -0.129009 41.0971 0.103857ZM75.5496 12.5057C75.9069 14.5927 76.1763 16.3184 76.1485 16.3407C76.0428 16.4254 68.4196 17.3636 68.3648 17.2987C68.2616 17.1767 74.6853 8.48596 74.7942 8.60026C74.8523 8.66132 75.1924 10.4186 75.5496 12.5057ZM83.7478 26.7127C83.4344 27.0284 83.2329 27.418 83.2329 27.708C83.2329 27.97 83.6664 29.4739 84.1962 31.0496C85.8896 36.0857 86.4689 39.545 86.474 44.6527C86.4759 46.5563 86.375 48.8726 86.2497 49.7999C85.1937 57.619 82.2199 64.7248 77.4472 70.8324C75.9198 72.7869 72.0478 76.5708 70.0196 78.0908C64.3318 82.3534 58.025 85.014 50.9926 86.1178C48.1699 86.5606 42.014 86.5636 39.1888 86.1233C34.7913 85.4378 30.9316 84.2437 27.1207 82.3898C24.9585 81.3378 21.5712 79.3568 21.5712 79.1442C21.5712 79.0906 22.7783 77.3981 24.2538 75.3832C27.2555 71.2841 27.5983 70.7122 27.4521 70.0484C27.3106 69.4065 26.4234 68.6145 25.8406 68.6101C25.5756 68.6079 22.1878 69.0147 18.3119 69.5138C10.8792 70.4709 10.6799 70.5191 10.1299 71.4951C9.89948 71.9043 9.98633 72.5917 11.0711 78.9325C11.7284 82.7751 12.34 86.2141 12.4304 86.575C12.7222 87.74 13.9751 88.3044 14.9978 87.7315C15.21 87.6128 16.2269 86.3576 17.2577 84.9423C18.2885 83.5271 19.1921 82.3064 19.2657 82.2295C19.3394 82.1527 20.1459 82.5621 21.058 83.1395C25.1911 85.7555 30.0236 87.7924 34.7844 88.9251C38.4409 89.7952 40.3748 89.9986 45.0026 90C49.3707 90.0012 50.7199 89.8804 54.1566 89.18C71.4957 85.646 85.4916 71.6018 89.1133 54.1024C89.8587 50.5001 90.0105 48.8658 89.9995 44.564C89.9852 39.0686 89.3846 35.2366 87.7775 30.3837C86.555 26.6924 86.2177 26.1939 84.942 26.1939C84.4263 26.1939 84.1389 26.3187 83.7478 26.7127ZM21.1034 73.6279C18.2823 77.5287 15.3488 81.4894 15.2535 81.5265C15.1226 81.5774 13.7895 73.9095 13.9084 73.7897C13.9771 73.7205 20.6353 72.7752 21.454 72.7184C21.7176 72.7001 21.6527 72.8684 21.1034 73.6279Z" fill="#2F2F2F"/>
</svg>
