<svg width="115" height="90" viewBox="0 0 115 90" fill="none" xmlns="http://www.w3.org/2000/svg">
<path fill-rule="evenodd" clip-rule="evenodd" d="M54.1111 0.206262C49.8174 0.947538 46.314 2.39948 42.8234 4.88422C30.0121 14.0041 26.6631 32.871 35.407 46.6671L36.5199 48.423L26.6597 48.5217L16.7993 48.6205L16.4368 49.0868C16.2374 49.3432 16.0746 49.6987 16.0752 49.8769C16.0758 50.0548 15.3839 58.9401 14.538 69.6215L13 89.0426L13.432 89.5212L13.8639 90H58.0002H102.136L102.568 89.5214L103 89.043L101.462 69.6217C100.616 58.9401 99.924 50.041 99.9248 49.8461C99.9256 49.6509 99.7165 49.2733 99.4604 49.0066L98.9948 48.5217H89.2373H79.4799L80.6901 46.6374C82.9499 43.1183 84.445 39.1725 85.1494 34.8677C85.6692 31.6912 85.5814 26.1748 84.9654 23.3002C82.4633 11.6264 74.4551 3.0888 63.5966 0.518929C61.3785 -0.00606749 56.3091 -0.173165 54.1111 0.206262ZM63.6655 3.37797C71.8839 5.50995 78.4602 11.7653 81.3281 20.1782C82.3874 23.2864 82.6777 24.9941 82.7883 28.7702C82.9 32.586 82.6851 34.5639 81.8118 37.7595C81.1554 40.1613 79.1514 44.2998 77.6523 46.3491C76.518 47.8996 58.2959 67.7795 58.0089 67.7795C57.8418 67.7795 40.1153 48.5093 39.1079 47.2325C33.9305 40.6707 31.9807 31.5451 33.9391 23.0422C35.6929 15.4274 40.7703 8.69825 47.344 5.27688C49.065 4.38095 52.2284 3.32029 54.1584 2.99202C56.7447 2.55215 61.1757 2.73209 63.6655 3.37797ZM54.3957 10.2892C50.5903 11.1253 47.4026 12.9116 44.7061 15.7191C38.8626 21.803 37.4542 30.8046 41.1374 38.5278C45.5051 47.6864 56.086 51.806 65.2615 47.9201C71.37 45.3328 75.8301 39.3789 76.7925 32.5265C77.0951 30.3718 76.9187 26.7508 76.4135 24.7422C75.9274 22.8109 74.5924 19.8417 73.4864 18.2323C71.6859 15.6125 68.5615 12.9271 65.8732 11.689C63.324 10.5152 61.7242 10.1648 58.5693 10.089C56.5614 10.0408 55.2376 10.1042 54.3957 10.2892ZM62.0497 13.2526C67.8691 14.7894 72.2224 19.339 73.871 25.607C74.3354 27.3726 74.4202 30.9719 74.0436 32.9295C73.3995 36.277 71.9152 39.15 69.5649 41.5994C65.3626 45.9781 59.5926 47.606 53.8006 46.0465C51.2002 45.3463 48.8987 43.9684 46.738 41.8183C44.5678 39.6584 43.0421 36.9459 42.2319 33.8068C41.6669 31.6176 41.6625 27.752 42.2228 25.5708C43.8512 19.2284 48.6224 14.4375 54.6803 13.0614C56.6527 12.6134 59.9538 12.6989 62.0497 13.2526ZM57.5993 18.0688C57.4309 18.1427 54.6 20.4544 51.3082 23.206C46.9942 26.812 45.2887 28.352 45.1995 28.7218C45.0263 29.4403 45.6241 30.2332 46.3992 30.3134L46.997 30.3754V35.4085V40.4416L47.4627 40.9263L47.9283 41.4112H58.0533H68.1783L68.5909 40.9541C68.9924 40.5091 69.0034 40.3606 69.0034 35.4237V30.3503H69.5395C70.1961 30.3503 70.9005 29.6227 70.9005 28.9444C70.9005 28.2975 70.6288 28.0435 64.4503 22.9134C57.8306 17.4168 58.3111 17.7565 57.5993 18.0688ZM62.3188 24.7211L66.3397 28.0789L66.3434 33.3624L66.3474 38.646H58.0002H49.6529L49.6552 33.3624L49.6577 28.0789L53.7685 24.6642C56.0295 22.786 57.9734 21.2751 58.0886 21.3065C58.2036 21.3377 60.1073 22.8743 62.3188 24.7211ZM46.7638 59.6492C57.388 71.2299 57.3939 71.236 57.9949 71.236C58.5714 71.236 59.7759 69.9984 70.54 58.3464L77.0647 51.2836L87.21 51.3345L97.3554 51.3857L98.7243 68.5696C99.4775 78.0207 100.099 86.0868 100.105 86.4941L100.116 87.2348H58.0002C18.0184 87.2348 15.8844 87.2172 15.8796 86.8891C15.8715 86.2988 18.5725 51.7954 18.6475 51.5338C18.7031 51.3401 20.9117 51.2907 28.9212 51.3041L39.124 51.3213L46.7638 59.6492Z" fill="#2F2F2F"/>
</svg>
