<svg width="115" height="90" viewBox="0 0 115 90" fill="none" xmlns="http://www.w3.org/2000/svg">
<path fill-rule="evenodd" clip-rule="evenodd" d="M2.45011 5.41821C1.36716 6.04706 0.902003 6.5711 0.435443 7.68776C0.0275538 8.66417 0.00581541 10.0721 0.000906714 35.9278C-0.00423573 63.1393 -0.00423574 63.1406 0.491543 64.266C1.11869 65.6894 2.36059 66.609 3.93254 66.8137L5.13821 66.9707V68.0989C5.13821 69.3176 5.61692 70.8214 6.25739 71.6141C7.08299 72.6357 8.39595 73.0526 10.8066 73.0585L13.0856 73.0642V74.904C13.0856 77.258 13.7548 78.6609 15.2599 79.4616L16.2718 80H63.9844C97.1267 80 111.897 79.9165 112.355 79.7267C113.25 79.355 114.288 78.2465 114.678 77.2467C114.944 76.5619 114.999 71.6413 114.999 48.532C114.999 18.1999 115.066 19.7198 113.684 18.3006C112.747 17.3375 111.949 17.0639 110.076 17.0639H108.455V14.9616C108.455 11.0283 107.116 9.36597 103.779 9.15353C101.958 9.03768 101.932 9.02612 101.782 8.27859C101.585 7.28934 100.363 5.77605 99.4081 5.33755C98.7814 5.04984 90.4939 4.9923 50.9017 5.00078C7.77955 5.01003 3.08333 5.05061 2.45011 5.41821ZM11.6158 9.4867C11.2227 13.6726 8.01587 17.188 4.29087 17.5166L2.80073 17.6481V13.4314C2.80073 7.66721 2.43445 8.07308 7.6386 8.07308H11.7486L11.6158 9.4867ZM40.5521 10.1924C35.7608 15.4654 32.9242 23.1202 32.2763 32.5254C31.4778 44.1211 34.7217 55.3953 40.7069 61.8256L42.56 63.8164H28.5242H14.4881V62.8429C14.4881 62.3075 14.3313 61.2073 14.1394 60.3981C12.9225 55.2633 9.16521 51.7338 4.24856 51.1067L2.80073 50.922V35.8248V20.7279L4.53163 20.6058C7.87025 20.3703 11.487 17.7401 13.1373 14.3474C13.8783 12.8244 14.4881 10.431 14.4881 9.04667V8.07308H28.4828H42.4777L40.5521 10.1924ZM54.7172 8.81085C65.5 13.3844 70.4395 34.8913 64.4287 51.0939C62.5445 56.1729 59.1028 60.6923 55.8102 62.4105C51.1512 64.8419 46.6473 63.885 42.6879 59.6218C38.2806 54.8764 35.6801 47.8643 35.0848 39.1193C34.3288 28.0218 37.2941 17.7388 42.9282 11.9199C45.7053 9.05129 48.0482 8.0158 51.4202 8.16633C52.732 8.2249 53.8523 8.44402 54.7172 8.81085ZM87.6237 10.0639C88.0998 13.6659 90.0278 16.9892 92.7376 18.8788C94.1474 19.8619 96.4883 20.6603 97.9605 20.6603H99.1047V35.7703V50.8801L97.2931 51.1835C95.2238 51.5298 92.7355 52.7549 91.2402 54.1636C89.3043 55.9872 87.8885 59.1055 87.5281 62.3394L87.3635 63.8164H73.3649H59.3662L61.0948 62.0119C69.8552 52.8669 72.4416 34.2311 66.9948 19.5036C65.5063 15.4792 63.1097 11.6386 60.6233 9.29327L59.3297 8.07308H73.345H87.3605L87.6237 10.0639ZM98.6771 8.49822C99.0593 8.87815 99.1047 9.38575 99.1047 13.2814V17.6394L97.7606 17.5307C94.0553 17.2309 90.8377 13.7168 90.3359 9.42171L90.1783 8.07308H94.214C97.6412 8.07308 98.3141 8.1373 98.6771 8.49822ZM105.182 12.697C105.644 13.2043 105.65 13.5531 105.65 41.0824C105.65 68.6117 105.644 68.9605 105.182 69.4678C104.718 69.9783 104.403 69.9816 56.7564 69.9816C2.8428 69.9816 7.94318 70.1869 7.94318 68.0178V66.9042L53.4655 66.8374C96.302 66.7744 99.032 66.7441 99.7353 66.3213C100.146 66.0742 100.778 65.4474 101.138 64.9285L101.793 63.985L101.854 38.0841L101.916 12.1832H103.315C104.403 12.1832 104.819 12.2975 105.182 12.697ZM111.767 20.5717C112.176 20.9786 112.195 22.1813 112.195 48.4873C112.195 73.7072 112.163 76.0168 111.808 76.4476C111.435 76.8997 109.644 76.9174 64.0229 76.9174C21.2457 76.9174 16.5895 76.8781 16.2578 76.5139C16.0065 76.2374 15.8906 75.6292 15.8906 74.5872V73.0642H60.427C99.9768 73.0642 105.06 73.02 105.824 72.6691C106.983 72.1368 107.504 71.5892 108.015 70.3669C108.422 69.3928 108.445 68.0599 108.449 44.743L108.455 20.1465H109.897C110.911 20.1465 111.466 20.2727 111.767 20.5717ZM48.1657 21.3726C46.674 22.274 46.5115 22.9792 46.5115 28.5553V33.5044H44.5609C42.4006 33.5044 41.8366 33.8378 41.8366 35.1156C41.8366 36.1927 42.6056 36.587 44.7058 36.587H46.536L46.4652 37.9356L46.3946 39.2842L44.4078 39.3556C42.236 39.4337 41.8366 39.685 41.8366 40.9717C41.8366 42.0275 42.3756 42.3211 44.5417 42.4462L46.5115 42.5597V46.3806C46.5115 49.9122 46.5484 50.2423 46.9993 50.7378C47.3574 51.1314 47.6524 51.23 48.1096 51.109C49.2108 50.8175 49.3165 50.3975 49.3165 46.3143V42.5253L53.9837 42.4459C59.075 42.3596 59.426 42.2566 59.426 40.8492C59.426 39.4597 59.251 39.4127 54.0798 39.4127H49.3165V38.0301V36.6476L52.3063 36.5454C54.9876 36.4536 55.4315 36.3702 56.6096 35.7367C59.1586 34.3662 60.6058 31.8452 60.6193 28.7521C60.6287 26.5809 60.0838 25.0771 58.6818 23.4059C57.1243 21.5489 55.8551 21.0788 52.1214 20.976C49.3765 20.9005 48.8616 20.9521 48.1657 21.3726ZM55.2866 24.4827C58.2148 25.9444 58.7631 30.0578 56.3301 32.3078C55.3371 33.2259 54.2467 33.5013 51.5955 33.5028L49.3165 33.5044V28.7521V23.9998L51.8293 24.0054C53.76 24.0098 54.5608 24.1202 55.2866 24.4827ZM10.0469 34.4533C9.10327 34.824 8.81856 36.2155 9.53944 36.9325C9.8779 37.269 10.4592 37.3576 12.3311 37.3576C14.5094 37.3576 14.724 37.3127 15.0591 36.7866C15.5584 36.0033 15.518 35.6404 14.8492 34.9057C14.3287 34.3333 14.0966 34.2768 12.3365 34.2953C11.2701 34.3064 10.2397 34.3775 10.0469 34.4533ZM17.7606 34.4453C16.8137 34.8389 16.5327 36.216 17.2531 36.9325C17.6192 37.2967 18.3174 37.3576 22.1256 37.3576C26.1348 37.3576 26.6084 37.3116 26.9574 36.8878C27.4316 36.3119 27.4527 35.5638 27.0128 34.9021C26.7082 34.4435 26.3382 34.3994 22.3962 34.3516C20.0396 34.3231 17.9534 34.3652 17.7606 34.4453ZM74.7949 34.6059C74.3744 34.8384 74.1891 35.1762 74.1337 35.8109C74.0067 37.2695 74.3057 37.3576 79.3843 37.3576C83.7697 37.3576 83.8938 37.343 84.2484 36.7866C84.7701 35.9681 84.6998 35.4153 83.9964 34.8076C83.4275 34.3156 83.0761 34.2753 79.3799 34.2789C76.6376 34.2815 75.1956 34.3842 74.7949 34.6059ZM86.8329 34.582C86.2266 34.9599 86.0228 35.3069 86.0183 35.9692C86.0111 37.0663 86.6859 37.3576 89.234 37.3576C91.4123 37.3576 91.6269 37.3127 91.9621 36.7866C92.4613 36.0033 92.4209 35.6404 91.7522 34.9057C91.2339 34.3359 90.9915 34.2758 89.2394 34.2827C88.173 34.2871 87.09 34.4217 86.8329 34.582ZM6.47104 54.8698C9.06844 55.932 11.3155 59.2062 11.6118 62.3607L11.7486 63.8164H7.74215C2.44801 63.8164 2.80073 64.2033 2.80073 58.3978V54.0066L4.02791 54.1898C4.70297 54.2902 5.80228 54.5964 6.47104 54.8698ZM99.1047 58.5357C99.1047 64.2205 99.4843 63.8164 94.1439 63.8164H90.2223V63.2282C90.2223 61.9841 90.9768 59.5206 91.7538 58.2288C93.2191 55.792 95.7866 54.2324 98.5787 54.0832L99.1047 54.0549V58.5357Z" fill="#2F2F2F"/>
</svg>
