<svg width="115" height="90" viewBox="0 0 115 90" fill="none" xmlns="http://www.w3.org/2000/svg">
<path fill-rule="evenodd" clip-rule="evenodd" d="M40.987 0.222387C29.3726 0.359722 28.7683 0.391749 27.5345 0.934845C25.709 1.73823 24.3519 2.79266 22.84 4.58181C21.3835 6.30556 20.3351 8.20029 17.4968 14.24L15.5686 18.343L10.8552 18.4885C5.5449 18.6521 4.40249 18.926 2.68877 20.4445C1.39739 21.5888 0.541465 23.5012 0.163781 26.0864C-0.343928 29.5602 0.142734 29.9871 4.31409 29.7276L7.01494 29.5596L5.80588 31.0432C4.41489 32.7501 3.56551 34.7746 3.23202 37.1771C3.02763 38.6495 3.17239 40.3724 4.40039 51.0957C5.17142 57.8267 5.96304 63.8434 6.15971 64.466C6.60522 65.8765 8.24738 67.6687 9.49011 68.1008L10.4284 68.427L10.5069 72.6659C10.5939 77.3752 10.8121 78.197 12.2499 79.2303C12.9017 79.6988 13.4384 79.7544 17.3017 79.7544C21.4001 79.7544 21.6644 79.7226 22.3954 79.1437C23.8171 78.0174 24.0322 77.1497 24.0322 72.543V68.4444L40.3439 68.2642C49.3153 68.1651 59.5689 68.0839 63.1294 68.0839L69.6031 68.0837L70.4667 70.0514C72.7167 75.1768 73.8041 76.3438 83.3157 83.84C89.5338 88.7409 91.3944 90.0825 91.8516 89.9961C92.1731 89.9353 95.7512 87.2701 99.8028 84.0737C109.656 76.2999 111.658 73.9825 113.702 67.9868C114.941 64.3545 114.995 63.5788 115 49.4661C115.003 37.2113 114.978 36.3854 114.58 35.968C114.348 35.7234 111.545 34.0496 108.352 32.2482L102.546 28.9728L103.045 28.4333C103.653 27.7762 103.69 26.6154 103.176 24.2896C102.68 22.0423 101.863 20.4926 100.674 19.5432C98.8229 18.065 97.9123 17.8729 92.7203 17.8661L87.9929 17.8596L86.3739 14.4056C81.9878 5.04837 79.548 1.86552 75.6939 0.473443C74.1348 -0.0897383 69.9564 -0.120135 40.987 0.222387ZM76.143 4.15298C77.53 5.04457 79.3789 7.22673 80.6901 9.51935C81.1651 10.3499 83.0299 14.1263 84.8344 17.9114L88.1147 24.7934L85.8519 26.0826C84.1258 27.0659 83.3278 27.3718 82.4883 27.3718C81.3929 27.3718 81.387 27.3669 81.2441 26.3304C81.0023 24.5743 79.5568 21.5836 78.2811 20.1986C77.6348 19.4967 76.3983 18.5338 75.5335 18.0583C74.0499 17.2424 73.8097 17.1938 71.2719 17.1938C68.7298 17.1938 68.4958 17.2416 66.9983 18.0648C64.2163 19.5939 61.7316 23.2409 61.3244 26.392L61.1743 27.5547L37.7762 27.7414C24.9071 27.8443 14.3514 27.8948 14.3188 27.8535C14.1762 27.673 23.0091 9.44716 23.8769 8.13081C24.9358 6.52486 26.6973 4.86056 28.1353 4.10766C28.972 3.66933 30.2206 3.60907 41.2209 3.47445C47.9093 3.39249 58.2225 3.33142 64.1392 3.33875L74.8967 3.35177L76.143 4.15298ZM73.6105 20.653C75.5644 21.341 77.5164 23.5023 78.1581 25.6877C78.3581 26.3686 78.5215 27.026 78.5215 27.1487C78.5215 27.2714 75.2571 27.3718 71.2674 27.3718H64.0134L64.1644 26.6254C64.4198 25.365 65.4766 23.3047 66.2963 22.4693C68.3699 20.3563 70.9494 19.7158 73.6105 20.653ZM98.7196 21.9177C99.6024 22.5545 100.488 24.2218 100.499 25.2683C100.504 25.6782 100.269 25.7433 98.7848 25.7433C97.2034 25.7433 96.8625 25.6323 94.5353 24.3583C92.5976 23.2973 91.8312 23.0061 91.2606 23.1136C90.5932 23.2393 90.4758 23.1565 90.1313 22.3181C89.9199 21.8035 89.7468 21.3152 89.7468 21.2332C89.7468 21.1515 91.562 21.125 93.7809 21.1746C97.5633 21.2593 97.8713 21.3057 98.7196 21.9177ZM13.701 22.0114C13.6594 22.1981 13.2087 23.236 12.6994 24.3184L11.773 26.2861H9.16809C7.73546 26.2861 5.74625 26.3662 4.74743 26.4642L2.93151 26.6425L3.1034 25.7178C3.6974 22.5192 5.1457 21.7736 10.8947 21.706C13.096 21.68 13.7588 21.7522 13.701 22.0114ZM112.194 50.1582C112.19 63.218 112.14 63.88 110.886 67.3389C110.033 69.695 108.507 72.3076 107.022 73.9576C106.331 74.7249 104.082 76.6866 102.024 78.3167C99.9665 79.9468 96.801 82.4566 94.9902 83.894L91.6974 86.5071L84.4665 80.7961C80.4892 77.655 76.935 74.7615 76.5679 74.3663C74.7461 72.4051 72.733 68.595 71.8142 65.3695C71.4267 64.01 71.3888 62.7165 71.3888 50.8837V37.8904L81.5461 32.1337L91.7033 26.3768L101.95 32.2225L112.197 38.0684L112.194 50.1582ZM73.1428 33.2954L68.5825 35.9213V50.3363V64.7515L47.1843 64.926C35.4153 65.0219 22.3613 65.1304 18.1754 65.1671C11.2396 65.2279 10.509 65.1915 9.93515 64.7551C9.5888 64.4918 9.15359 64.0032 8.96767 63.6694C8.75602 63.2894 8.10356 58.4979 7.2219 50.849C5.71468 37.7699 5.69948 37.3079 6.70133 35.0289C6.9539 34.4546 7.57293 33.5518 8.0769 33.0234C9.93444 31.076 8.17044 31.2014 37.2453 30.9474C51.6511 30.8217 66.6473 30.7077 70.5703 30.6941L77.703 30.6694L73.1428 33.2954ZM16.0796 41.4513C14.3441 42.1117 12.8535 43.6207 12.2342 45.3442C11.7064 46.8125 11.7644 49.471 12.3551 50.887C13.7482 54.227 17.3359 55.5946 20.2175 53.8842C24.4721 51.3587 24.3421 44.4643 19.9907 41.8527C19.1642 41.3569 16.9301 41.1275 16.0796 41.4513ZM39.745 42.3101C39.2827 42.8097 39.2331 43.1333 39.2331 45.6422C39.2331 48.932 39.4992 49.6276 40.7583 49.6276C41.865 49.6276 42.0394 49.0946 42.0394 45.71C42.0394 43.2041 41.9805 42.7739 41.5717 42.2995C40.9754 41.6074 40.3916 41.6106 39.745 42.3101ZM47.1843 42.2995C46.7772 42.772 46.7166 43.2041 46.7166 45.6316C46.7166 48.8109 46.9986 49.6276 48.0969 49.6276C49.2909 49.6276 49.5229 48.9757 49.5229 45.6183C49.5229 42.8086 49.4872 42.5728 49.0031 42.1792C48.3036 41.6106 47.7463 41.6473 47.1843 42.2995ZM54.5643 42.36C54.292 42.8108 54.2001 43.6671 54.2001 45.7526C54.2001 48.1802 54.2607 48.6123 54.6679 49.0848C55.2516 49.7622 56.1115 49.7826 56.6194 49.1312C57.2162 48.3661 57.1837 42.8412 56.5787 42.2058C55.9683 41.5648 54.9995 41.6389 54.5643 42.36ZM62.0478 42.36C61.7793 42.8046 61.6836 43.6508 61.6836 45.5803C61.6836 47.817 61.754 48.3012 62.1684 48.9124C62.7217 49.7291 63.225 49.8108 63.9701 49.205C64.4556 48.8107 64.49 48.5778 64.49 45.6962C64.49 43.2521 64.4135 42.5209 64.1226 42.183C63.577 41.5501 62.4799 41.6435 62.0478 42.36ZM32.1366 42.5245C31.8296 42.918 31.7496 43.5944 31.7496 45.7936C31.7496 48.3759 31.7891 48.6125 32.3237 49.2327C32.9926 50.0092 33.323 50.0562 34.036 49.4764C34.5215 49.0821 34.5559 48.8492 34.5559 45.9676C34.5559 43.5235 34.4794 42.7924 34.1885 42.4544C33.6923 41.8788 32.6114 41.9154 32.1366 42.5245ZM18.7727 44.8616C20.2703 45.5876 20.953 47.8781 20.1855 49.6007C19.2456 51.7102 16.6242 51.9992 15.2774 50.1417C14.82 49.5106 14.6778 49.012 14.6778 48.0388C14.6778 46.5921 15.0864 45.7559 16.1668 44.9913C17.044 44.3706 17.6937 44.3383 18.7727 44.8616ZM93.8036 54.5665L89.6818 58.9626L87.5394 56.3307C85.2668 53.5387 84.7579 53.2463 83.9003 54.2416C82.9761 55.3142 83.2182 55.7805 87.3151 60.8234C88.3458 62.0917 89.2108 62.9268 89.4943 62.9268C90.0497 62.9268 90.4846 62.5069 95.7687 56.867C99.1693 53.2374 99.8028 52.4405 99.8028 51.7924C99.8028 51.3695 99.6375 50.8316 99.4354 50.5968C98.611 49.6404 98.0549 50.032 93.8036 54.5665ZM21.1737 72.3584L21.109 76.3617L17.3847 76.4367C14.5621 76.4936 13.6147 76.428 13.4713 76.1652C13.1449 75.5687 13.2312 68.6922 13.567 68.5347C13.7279 68.4596 15.5197 68.3882 17.5489 68.3765L21.2383 68.3551L21.1737 72.3584Z" fill="#2F2F2F"/>
</svg>
