<svg width="115" height="90" viewBox="0 0 115 90" fill="none" xmlns="http://www.w3.org/2000/svg">
<path fill-rule="evenodd" clip-rule="evenodd" d="M24.0954 0.236909C22.7625 0.527097 21.5439 1.01012 21.3415 1.32844C20.8885 2.04144 21.1894 2.49632 23.9104 5.21249L26.6296 7.92679L25.1828 9.38204L23.736 10.8375L20.9958 8.11925C17.5683 4.71916 17.2223 4.63962 16.3046 7.04216C15.733 8.53812 15.598 11.264 16.0148 12.8907C16.8 15.9554 18.9034 18.6088 21.5799 19.9108L22.9735 20.5889L17.7972 20.5919C13.0231 20.5949 12.5967 20.6217 12.3104 20.9382C12.0242 21.2544 12 23.7215 12 52.6103C12 82.723 12.0133 83.9513 12.3431 84.2497C12.6282 84.5078 13.1341 84.5602 15.3444 84.5602H18.0026V86.9049C18.0026 88.9996 18.0425 89.2896 18.3778 89.6248C18.7493 89.9964 19.003 90 45.2018 90C71.4007 90 71.6543 89.9964 72.0259 89.6248C72.3611 89.2896 72.4011 88.9996 72.4011 86.9049V84.5602L82.3897 84.5587C87.8836 84.5577 93.1177 84.4724 94.0212 84.3688C98.8254 83.8185 102.373 80.7731 103.544 76.1948C103.905 74.7844 103.915 74.0239 103.912 47.5298C103.909 17.3766 103.979 19.1231 102.673 16.6377C101.371 14.1599 98.7685 12.153 96.0169 11.5043C95.1627 11.3031 93.7498 11.2207 91.1122 11.2188C87.6555 11.2162 87.3824 11.2412 87.0324 11.5912C86.679 11.9446 86.6572 12.2164 86.6572 16.2807V20.5951H65.8749H45.0928L42.1677 17.6407C40.5588 16.0157 38.9319 14.1963 38.5521 13.5977C37.7157 12.2787 37.0267 10.4983 36.6584 8.70525C35.4424 2.78295 29.817 -1.009 24.0954 0.236909ZM28.1895 2.49201C30.4548 3.08195 32.3353 4.46592 33.4452 6.35974C33.7198 6.8285 34.1998 8.21848 34.5118 9.44863C35.1533 11.9783 36.0145 13.9369 37.2197 15.6075C38.2476 17.0322 64.4759 43.2074 65.6962 44.0264C67.2302 45.0558 69.2217 45.8905 71.5549 46.4824C74.1065 47.1293 75.4267 47.8206 76.5685 49.1074C78.2534 51.0059 79.1024 53.8201 78.6591 56.0364L78.5394 56.6346L76.1575 54.2778C74.2086 52.3495 73.6768 51.9211 73.2315 51.9211C72.7826 51.9211 72.2349 52.3726 70.1056 54.4979C68.5699 56.0306 67.5239 57.2212 67.5239 57.4367C67.5239 57.6496 68.5333 58.8182 69.9754 60.2744C72.7017 63.0277 72.6931 62.9855 70.5252 62.9812C68.403 62.9771 66.4433 62.2029 64.8359 60.7338C63.5941 59.5989 62.7828 58.0942 62.36 56.1416C61.5116 52.2229 60.4655 50.4716 56.675 46.6244C55.0755 45.0008 53.6081 43.6221 53.4143 43.5606C52.8437 43.3796 52.1423 43.9633 52.1423 44.6195C52.1423 45.0995 52.6028 45.6602 55.1157 48.2404C58.5655 51.7823 59.306 52.98 60.02 56.172C60.9768 60.4498 63.3034 63.3082 66.8901 64.6119C70.2219 65.8231 75.3547 65.0418 75.5573 63.2926C75.6104 62.8334 75.2744 62.4179 72.9797 60.1035L70.3412 57.4423L71.7965 55.9955L73.2517 54.5489L75.872 57.1741C78.6475 59.9548 79.096 60.2138 79.7962 59.4401C80.7484 58.3879 81.2569 54.8366 80.7694 52.6448C79.7413 48.0241 76.8242 45.3353 71.5569 44.1535C70.8347 43.9915 69.442 43.4672 68.4618 42.9881L66.6798 42.1173L57.0194 32.4838L47.359 22.8503L67.0081 22.8483L86.6572 22.846V24.7218C86.6572 26.3476 86.7073 26.6477 87.0324 26.9728C87.5099 27.4504 88.0554 27.4504 88.533 26.9728C88.8939 26.6119 88.9082 26.3476 88.9082 20.0323V13.467L91.7688 13.4715C93.342 13.4741 94.9995 13.5615 95.4519 13.6658C98.3277 14.3287 100.802 16.8029 101.465 19.6787C101.587 20.2088 101.656 28.743 101.659 43.6782L101.664 66.855L100.663 65.8855C99.4904 64.7499 98.3409 64.0416 96.6215 63.395C95.5215 62.9814 95.0104 62.9184 92.1439 62.8432L88.9082 62.7582V48.2421C88.9082 33.9758 88.9018 33.7194 88.533 33.3506C88.0554 32.873 87.5099 32.873 87.0324 33.3506C86.6634 33.7195 86.6572 33.9758 86.6572 49.0136C86.6572 64.0514 86.6634 64.3076 87.0324 64.6766C87.3794 65.0236 87.6576 65.0517 90.7446 65.0517C93.1376 65.0517 94.394 65.1331 95.1856 65.3393C99.4213 66.4425 102.247 70.7201 101.525 74.9358C100.882 78.6887 97.9526 81.5804 94.2542 82.1128C93.5022 82.221 88.5536 82.3034 82.6711 82.3054L72.4011 82.3092V80.9023C72.4011 78.8838 72.2287 78.7451 69.7162 78.7451H67.7817L67.4778 76.7287C66.7425 71.8474 64.7856 67.8274 61.4403 64.3256C52.3764 54.8376 37.6753 54.9321 28.7838 64.5357C26.6313 66.8608 24.7185 70.1262 23.8478 72.9626C23.3042 74.7335 22.8797 76.8952 22.8797 77.8932V78.7451H20.8163C18.1585 78.7451 18.0026 78.8646 18.0026 80.9023V82.3092H16.1268H14.251V52.5776V22.846H21.8199H29.3887L30.1203 23.3898C30.5227 23.6888 34.3972 27.493 38.7303 31.8432C43.0634 36.1934 46.8417 39.8765 47.1262 40.0277C47.8977 40.4374 48.7565 39.9335 48.763 39.0671C48.7675 38.467 31.7359 21.5812 30.2798 20.7419C28.7228 19.8449 26.9857 19.1736 25.0571 18.7239C23.1275 18.2741 21.9718 17.7198 20.7908 16.6784C19.0403 15.1344 18.0026 12.8217 18.0026 10.4644C18.0026 8.2952 17.96 8.28544 20.8095 11.1089C22.3042 12.5899 23.5283 13.6546 23.7364 13.6546C23.9457 13.6546 25.1657 12.585 26.6758 11.0778C28.8194 8.93823 29.2574 8.40793 29.2574 7.95136C29.2574 7.49779 28.8275 6.9675 26.7968 4.91668C24.5921 2.69028 24.3822 2.42279 24.7803 2.34738C25.7424 2.16505 27.1663 2.22545 28.1895 2.49201ZM36.4163 19.4112C35.3062 19.9582 34.7524 21.2711 35.0905 22.5543C35.2638 23.2128 36.731 24.7601 46.0144 34.0743C51.9123 39.9919 57.0672 45.0776 57.4696 45.376C59.0911 46.5784 61.4518 45.6979 61.8164 43.7546C62.0886 42.3032 62.1344 42.356 50.4845 30.6792C44.4382 24.6189 39.2229 19.5332 38.8948 19.3775C38.1238 19.0115 37.2021 19.0241 36.4163 19.4112ZM48.8375 32.2044C55.2408 38.6113 59.6561 43.1682 59.6065 43.3186C59.3336 44.1464 58.6915 43.5681 47.9609 32.8285C37.1497 22.0083 36.5558 21.3454 37.674 21.3454C37.8447 21.3454 42.8683 26.2321 48.8375 32.2044ZM18.1902 26.0349C17.3663 26.8588 17.897 28.8486 18.9405 28.8486C19.5982 28.8486 20.066 28.1859 20.066 27.2542C20.066 26.3225 19.5982 25.6597 18.9405 25.6597C18.7342 25.6597 18.3965 25.8286 18.1902 26.0349ZM18.1255 30.5048C17.8441 30.8156 17.815 31.8672 17.815 41.7306C17.815 52.0353 17.8332 52.6298 18.1581 52.9237C18.6111 53.3338 19.3689 53.3182 19.7555 52.8911C20.0369 52.5802 20.066 51.5287 20.066 41.6653C20.066 31.3605 20.0478 30.7661 19.7229 30.4721C19.2699 30.0621 18.5121 30.0777 18.1255 30.5048ZM44.0763 60.456C44.0763 61.0501 44.1876 61.4114 44.4515 61.6753C45.2924 62.5162 46.3273 61.8435 46.3273 60.456C46.3273 59.6503 46.3521 59.6119 46.8694 59.6119C48.2354 59.6119 51.8337 60.5309 53.4929 61.3035L53.9994 61.5395L53.6336 62.2564C53.1862 63.1334 53.1697 63.6946 53.5782 64.1459C54.1185 64.7428 54.7146 64.5762 55.3711 63.6449C55.6985 63.1806 56.0217 62.8008 56.0894 62.8008C56.7176 62.8008 61.5214 67.2836 61.5214 67.8698C61.5214 67.9431 61.1905 68.2222 60.786 68.4899C59.8971 69.078 59.6936 69.594 60.1032 70.2194C60.4795 70.7938 61.2696 70.8272 62.1265 70.3048C62.4643 70.0988 62.7939 69.93 62.859 69.9296C63.0025 69.9287 64.1732 72.6578 64.5889 73.9618C65.0032 75.2616 65.4606 78.0303 65.4606 79.2387C65.4606 80.81 65.7487 80.9961 68.1805 80.9961H70.1501V84.3726V87.749H68.9308H67.7115V86.8728C67.7115 85.8601 67.3272 85.3105 66.6187 85.3105C65.8406 85.3105 65.4606 85.8124 65.4606 86.8402V87.749H63.022H60.5835V86.8728C60.5835 85.8601 60.1991 85.3105 59.4906 85.3105C58.7125 85.3105 58.3325 85.8124 58.3325 86.8402V87.749H55.8939H53.4554V86.8728C53.4554 85.8601 53.071 85.3105 52.3625 85.3105C51.5844 85.3105 51.2044 85.8124 51.2044 86.8402V87.749H48.8596H46.5149V86.8728C46.5149 85.8601 46.1305 85.3105 45.422 85.3105C44.644 85.3105 44.2639 85.8124 44.2639 86.8402V87.749H41.8254H39.3868V86.8728C39.3868 85.8601 39.0025 85.3105 38.294 85.3105C37.5159 85.3105 37.1358 85.8124 37.1358 86.8402V87.749H34.6973H32.2587V86.8728C32.2587 85.8601 31.8744 85.3105 31.1659 85.3105C30.3878 85.3105 30.0078 85.8124 30.0078 86.8402V87.749H27.5692H25.1307V86.8728C25.1307 85.8601 24.7463 85.3105 24.0378 85.3105C23.2597 85.3105 22.8797 85.8124 22.8797 86.8402V87.749H21.5666H20.2536V84.3726V80.9961H22.2879C24.8028 80.9961 24.8709 80.9427 25.0389 78.8374C25.2772 75.8519 26.0095 73.0496 27.146 70.773C27.4036 70.2571 27.642 69.8043 27.6758 69.7668C27.7095 69.7293 28.0258 69.8769 28.3786 70.095C29.1982 70.6015 30.1151 70.6169 30.3764 70.1288C30.7787 69.377 30.6101 68.833 29.8202 68.3344C29.4075 68.0739 29.0699 67.7932 29.0699 67.7107C29.0699 67.1468 33.8003 62.8053 34.4159 62.804C34.5191 62.8038 34.7926 63.1347 35.0235 63.5393C35.5292 64.4249 36.0437 64.6332 36.6862 64.2123C37.3699 63.7642 37.4273 63.4237 36.976 62.4945C36.7543 62.0384 36.5731 61.6293 36.5731 61.5852C36.5731 61.4232 38.3958 60.7023 39.7468 60.3301C41.3033 59.9015 42.5566 59.6669 43.4667 59.634C44.0675 59.6123 44.0763 59.6243 44.0763 60.456ZM43.6074 67.4798C41.9991 67.7402 41.031 68.0624 39.5483 68.8309C35.7958 70.7763 33.2418 74.6204 32.8832 78.8641C32.6851 81.2088 31.4527 80.9961 45.2309 80.9961C57.0183 80.9961 57.0194 80.9961 57.4199 80.5956C57.7804 80.2351 57.8089 80.0592 57.7058 78.8371C57.265 73.6236 53.4666 69.078 48.4813 67.7977C47.051 67.4305 44.8141 67.2845 43.6074 67.4798ZM47.4198 69.8388C51.4107 70.7797 54.6433 74.1434 55.2595 77.9967L55.3792 78.7451H45.2223H35.0653L35.1814 78.2293C35.5376 76.6482 35.7312 76.0956 36.3315 74.9481C37.1473 73.3888 39.1007 71.4863 40.7314 70.6632C42.8134 69.6122 45.2071 69.3173 47.4198 69.8388Z" fill="#2F2F2F"/>
</svg>
