<svg width="45" height="44" viewBox="0 0 45 44" fill="none" xmlns="http://www.w3.org/2000/svg">
<path d="M22.561 0.706543C10.5115 0.706543 0.741455 10.2539 0.741455 22.0286C0.741455 33.8034 10.5115 43.3507 22.561 43.3507C34.6104 43.3507 44.3805 33.8034 44.3805 22.0286C44.3805 10.2539 34.6104 0.706543 22.561 0.706543ZM29.5793 22.357L18.9422 29.9197C18.8839 29.9606 18.8152 29.9851 18.7436 29.9903C18.672 29.9956 18.6003 29.9815 18.5363 29.9495C18.4724 29.9175 18.4188 29.869 18.3812 29.8091C18.3437 29.7493 18.3238 29.6805 18.3237 29.6103V14.4945C18.3235 14.4242 18.3432 14.3552 18.3806 14.2951C18.418 14.2351 18.4718 14.1863 18.5358 14.1543C18.5999 14.1223 18.6717 14.1082 18.7435 14.1136C18.8152 14.1191 18.884 14.1438 18.9422 14.1851L29.5793 21.7431C29.6295 21.7778 29.6705 21.8238 29.6988 21.8772C29.7271 21.9306 29.7419 21.9899 29.7419 22.05C29.7419 22.1102 29.7271 22.1695 29.6988 22.2229C29.6705 22.2763 29.6295 22.3223 29.5793 22.357Z" fill="white"/>
</svg>
