<svg width="55" height="43" viewBox="0 0 55 43" fill="none" xmlns="http://www.w3.org/2000/svg">
<path fill-rule="evenodd" clip-rule="evenodd" d="M1.17179 2.58873C0.653859 2.88918 0.431393 3.13955 0.208255 3.67307C0.0131779 4.13957 0.00278128 4.81227 0.000433646 17.1655C-0.00202578 30.1666 -0.00202579 30.1672 0.235086 30.7049C0.535024 31.3849 1.12898 31.8243 1.88078 31.9221L2.4574 31.9971V32.5362C2.4574 33.1184 2.68635 33.8369 2.99266 34.2156C3.38751 34.7038 4.01545 34.903 5.16837 34.9058L6.25834 34.9085V35.7875C6.25834 36.9122 6.5784 37.5824 7.29823 37.965L7.78218 38.2222H30.6012C46.4519 38.2222 53.5162 38.1824 53.7348 38.0917C54.1631 37.9141 54.6597 37.3845 54.8458 36.9068C54.9734 36.5796 54.9998 34.2287 54.9998 23.1875C54.9998 8.69553 55.0314 9.42173 54.3707 8.74364C53.9225 8.28351 53.5406 8.1528 52.6449 8.1528H51.8696V7.14836C51.8696 5.26908 51.2296 4.47488 49.6335 4.37338C48.7626 4.31803 48.75 4.31251 48.6786 3.95535C48.584 3.48271 47.9997 2.75969 47.543 2.55019C47.2433 2.41273 43.2797 2.38524 24.3443 2.38929C3.72066 2.39371 1.47464 2.4131 1.17179 2.58873ZM5.55539 4.53256C5.36736 6.53249 3.83368 8.21208 2.05216 8.36906L1.33948 8.4319V6.41724C1.33948 3.66325 1.1643 3.85717 3.65325 3.85717H5.61889L5.55539 4.53256ZM19.3945 4.86971C17.103 7.38904 15.7464 11.0463 15.4365 15.5399C15.0546 21.0801 16.6061 26.4667 19.4685 29.5389L20.3548 30.4901H13.642H6.92909V30.025C6.92909 29.7692 6.85408 29.2435 6.7623 28.8569C6.18031 26.4036 4.38336 24.7173 2.03192 24.4177L1.33948 24.3294V17.1163V9.90334L2.1673 9.84504C3.76403 9.73249 5.49379 8.47583 6.28305 6.85491C6.63743 6.12723 6.92909 4.98373 6.92909 4.32232V3.85717H13.6222H20.3154L19.3945 4.86971ZM26.1691 4.20966C31.3261 6.39478 33.6885 16.6703 30.8137 24.4115C29.9126 26.8382 28.2665 28.9974 26.6918 29.8184C24.4636 30.9801 22.3096 30.5229 20.4159 28.486C18.3081 26.2188 17.0644 22.8685 16.7797 18.6904C16.4181 13.3882 17.8363 8.47522 20.5309 5.69509C21.8591 4.32453 22.9796 3.8298 24.5923 3.90172C25.2196 3.9297 25.7555 4.03439 26.1691 4.20966ZM41.907 4.80834C42.1347 6.5293 43.0568 8.11709 44.3528 9.01991C45.027 9.4896 46.1466 9.87106 46.8507 9.87106H47.3979V17.0903V24.3094L46.5315 24.4544C45.5418 24.6198 44.3518 25.2051 43.6366 25.8782C42.7108 26.7495 42.0336 28.2393 41.8613 29.7844L41.7826 30.4901H35.0875H28.3925L29.2192 29.6279C33.409 25.2586 34.646 16.3549 32.041 9.31839C31.3291 7.39567 30.1829 5.56069 28.9938 4.44015L28.3751 3.85717H35.078H41.7811L41.907 4.80834ZM47.1934 4.06029C47.3762 4.24181 47.3979 4.48433 47.3979 6.34557V8.42772L46.7551 8.37581C44.9829 8.23258 43.4441 6.5536 43.2041 4.50151L43.1288 3.85717H45.0589C46.698 3.85717 47.0198 3.88785 47.1934 4.06029ZM50.3045 6.06635C50.5253 6.30875 50.5281 6.47542 50.5281 19.6283C50.5281 32.7812 50.5253 32.9478 50.3045 33.1902C50.0824 33.4341 49.9319 33.4357 27.1444 33.4357C1.3596 33.4357 3.79891 33.5338 3.79891 32.4974V31.9653L25.5704 31.9334C46.0575 31.9034 47.3631 31.8889 47.6995 31.6869C47.8961 31.5688 48.198 31.2693 48.3703 31.0214L48.6835 30.5706L48.713 18.1958L48.7425 5.82089H49.4117C49.9319 5.82089 50.1306 5.8755 50.3045 6.06635ZM53.4538 9.82871C53.6494 10.0231 53.6582 10.5978 53.6582 23.1662C53.6582 35.2157 53.6429 36.3192 53.4732 36.525C53.2952 36.741 52.4386 36.7495 30.6197 36.7495C10.161 36.7495 7.93411 36.7307 7.77547 36.5566C7.6553 36.4246 7.59985 36.134 7.59985 35.6362V34.9085H28.8998C47.815 34.9085 50.2459 34.8874 50.6115 34.7197C51.1657 34.4654 51.415 34.2037 51.6593 33.6198C51.854 33.1544 51.8648 32.5175 51.8671 21.3772L51.8696 9.62559H52.5594C53.0445 9.62559 53.31 9.68585 53.4538 9.82871ZM23.0358 10.2114C22.3223 10.6421 22.2446 10.979 22.2446 13.6431V16.0077H21.3117C20.2785 16.0077 20.0088 16.167 20.0088 16.7775C20.0088 17.2921 20.3766 17.4805 21.381 17.4805H22.2564L22.2225 18.1248L22.1887 18.7692L21.2385 18.8033C20.1998 18.8406 20.0088 18.9606 20.0088 19.5754C20.0088 20.0798 20.2666 20.2201 21.3026 20.2799L22.2446 20.3341V22.1596C22.2446 23.847 22.2623 24.0047 22.4779 24.2414C22.6492 24.4295 22.7903 24.4766 23.009 24.4188C23.5356 24.2795 23.5861 24.0788 23.5861 22.128V20.3177L25.8183 20.2797C28.2532 20.2385 28.4212 20.1893 28.4212 19.5168C28.4212 18.853 28.3374 18.8305 25.8642 18.8305H23.5861V18.17V17.5094L25.0161 17.4606C26.2984 17.4168 26.5107 17.3769 27.0742 17.0742C28.2933 16.4194 28.9854 15.215 28.9919 13.7371C28.9963 12.6998 28.7357 11.9813 28.0652 11.1828C27.3203 10.2956 26.7133 10.071 24.9276 10.0219C23.6149 9.98581 23.3686 10.0105 23.0358 10.2114ZM26.4414 11.6973C27.8418 12.3957 28.1041 14.361 26.9405 15.436C26.4656 15.8746 25.9441 16.0062 24.6761 16.0069L23.5861 16.0077V13.7371V11.4666L24.7879 11.4693C25.7113 11.4714 26.0943 11.5241 26.4414 11.6973ZM4.80504 16.4611C4.35374 16.6382 4.21757 17.303 4.56234 17.6455C4.72422 17.8063 5.00224 17.8487 5.89747 17.8487C6.93927 17.8487 7.04189 17.8272 7.2022 17.5758C7.44099 17.2016 7.42165 17.0282 7.10181 16.6772C6.85285 16.4037 6.74184 16.3767 5.90005 16.3856C5.39005 16.3908 4.89727 16.4248 4.80504 16.4611ZM8.49418 16.4572C8.04131 16.6453 7.90694 17.3032 8.25148 17.6455C8.42655 17.8196 8.76047 17.8487 10.5818 17.8487C12.4993 17.8487 12.7257 17.8267 12.8927 17.6242C13.1195 17.349 13.1295 16.9916 12.9191 16.6755C12.7735 16.4564 12.5965 16.4353 10.7112 16.4125C9.58416 16.3988 8.58641 16.419 8.49418 16.4572ZM35.7715 16.534C35.5704 16.645 35.4817 16.8064 35.4552 17.1097C35.3945 17.8066 35.5375 17.8487 37.9664 17.8487C40.0638 17.8487 40.1231 17.8417 40.2927 17.5758C40.5422 17.1848 40.5086 16.9207 40.1722 16.6303C39.9001 16.3953 39.7321 16.376 37.9643 16.3777C36.6527 16.3789 35.9631 16.428 35.7715 16.534ZM41.5288 16.5225C41.2388 16.7031 41.1413 16.8689 41.1392 17.1853C41.1357 17.7095 41.4585 17.8487 42.6771 17.8487C43.7189 17.8487 43.8215 17.8272 43.9818 17.5758C44.2206 17.2016 44.2013 17.0282 43.8815 16.6772C43.6336 16.405 43.5177 16.3762 42.6797 16.3796C42.1697 16.3816 41.6518 16.446 41.5288 16.5225ZM3.09484 26.2156C4.33708 26.7231 5.41174 28.2874 5.55349 29.7946L5.61889 30.4901H3.70277C1.17079 30.4901 1.33948 30.6749 1.33948 27.9012V25.8032L1.92639 25.8907C2.24925 25.9387 2.77501 26.085 3.09484 26.2156ZM47.3979 27.9671C47.3979 30.6832 47.5794 30.4901 45.0253 30.4901H43.1498V30.209C43.1498 29.6147 43.5106 28.4377 43.8822 27.8204C44.5831 26.6562 45.811 25.9111 47.1464 25.8398L47.3979 25.8263V27.9671Z" fill="#2F2F2F"/>
</svg>
