<svg width="25" height="25" viewBox="0 0 25 25" fill="none" xmlns="http://www.w3.org/2000/svg">
<path fill-rule="evenodd" clip-rule="evenodd" d="M11.568 0.0137022C11.4738 0.0246511 11.1876 0.0574489 10.9319 0.0866297C7.06044 0.528301 3.48345 2.9526 1.5205 6.4653C0.803624 7.74808 0.283874 9.34198 0.0632625 10.9341C-0.0210875 11.5428 -0.0210875 13.4536 0.0632625 14.0623C0.577337 17.772 2.54381 20.9127 5.63462 22.9604C6.23358 23.3572 7.49946 23.9938 8.19765 24.2492C11.2398 25.3622 14.7028 25.2326 17.663 23.8947C18.5584 23.4901 19.8242 22.7242 19.9329 22.5214C20.0328 22.3349 19.9932 22.0807 19.8404 21.9281C19.6089 21.6968 19.4741 21.7286 18.7672 22.1813C15.7457 24.1159 12.135 24.562 8.76364 23.4172C5.98327 22.4731 3.56168 20.3773 2.22872 17.7612C-0.0708949 13.248 0.825543 7.75267 4.43121 4.25953C6.09805 2.64472 8.06829 1.61503 10.3191 1.1824C13.2524 0.618629 16.352 1.22595 18.8121 2.84654C21.6682 4.72789 23.5264 7.70028 23.9691 11.0954C24.056 11.7621 24.0674 13.0227 23.9927 13.7099C23.802 15.4647 23.1712 17.2324 22.1902 18.7617C21.737 19.4679 21.7052 19.6026 21.9367 19.8338C22.0909 19.9878 22.3442 20.0259 22.5353 19.9237C22.8117 19.7759 23.8758 17.8415 24.2673 16.7751C24.5116 16.1096 24.797 14.9526 24.9063 14.1845C25.0308 13.3102 25.0313 11.6926 24.9074 10.8119C24.801 10.0558 24.5133 8.89224 24.266 8.2181C24.168 7.95103 23.915 7.38056 23.7037 6.95042C23.0816 5.68416 22.4005 4.72946 21.3891 3.70622C19.4351 1.72945 17.0268 0.514615 14.2494 0.104568C13.7698 0.0337915 11.9318 -0.0284805 11.568 0.0137022ZM13.6728 9.1493L10.8585 11.9591L9.68224 10.7867C8.54503 9.65334 8.49948 9.61433 8.31312 9.61433C8.12543 9.61433 8.07998 9.65466 6.59055 11.1427C5.09686 12.6349 5.0607 12.6756 5.0607 12.8652C5.0607 13.0566 5.0998 13.0984 7.86226 15.8581C10.6275 18.6206 10.6663 18.657 10.8587 18.657C11.0519 18.657 11.0922 18.6185 15.4941 14.2209C19.893 9.82627 19.9345 9.78301 19.9345 9.59048C19.9345 9.40063 19.8988 9.36045 18.4046 7.86779C16.9123 6.37688 16.87 6.33944 16.6809 6.33944C16.49 6.33944 16.4452 6.38128 13.6728 9.1493ZM14.8097 13.5366L10.8588 17.4838L8.54699 15.1746L6.23519 12.8654L7.27391 11.8268L8.31263 10.7883L9.49001 11.961C10.6276 13.094 10.6739 13.1336 10.86 13.1336C11.0492 13.1336 11.1008 13.0854 13.8666 10.3235L16.6808 7.51331L17.7207 8.55131L18.7605 9.58935L14.8097 13.5366ZM20.7716 20.5826C20.3297 20.8273 20.5277 21.4919 21.0425 21.4919C21.1193 21.4919 21.2315 21.428 21.3338 21.3258C21.4361 21.2235 21.5001 21.1115 21.5001 21.0348C21.5001 20.6416 21.1064 20.3972 20.7716 20.5826Z" fill="black"/>
</svg>
