<svg width="88" height="82" viewBox="0 0 88 82" fill="none" xmlns="http://www.w3.org/2000/svg">
<path d="M6.25006 40.6303C6.24911 34.5957 7.83677 28.6673 10.8534 23.4409C13.8701 18.2145 18.2094 13.8743 23.4352 10.8566C28.661 7.83895 34.5892 6.25013 40.6237 6.2499C46.6582 6.24966 52.5865 7.83801 57.8126 10.8553C58.5299 11.2631 59.3795 11.3707 60.1759 11.1545C60.9723 10.9383 61.6508 10.4158 62.0634 9.7012C62.476 8.98655 62.5892 8.1377 62.3783 7.33991C62.1674 6.54211 61.6495 5.86012 60.9376 5.44277C53.1929 0.97141 44.1893 -0.819593 35.3231 0.347525C26.4568 1.51464 18.2234 5.57466 11.8998 11.8979C5.5761 18.2212 1.51555 26.4543 0.347865 35.3205C-0.819822 44.1867 0.970604 53.1904 5.44147 60.9353C9.91234 68.6802 16.8138 74.7335 25.0755 78.1564C33.3373 81.5793 42.4976 82.1805 51.1358 79.8668C59.774 77.5531 67.4075 72.4537 72.8523 65.3596C78.297 58.2655 81.2489 49.573 81.2501 40.6303C81.2501 39.8015 80.9208 39.0066 80.3348 38.4206C79.7487 37.8345 78.9539 37.5053 78.1251 37.5053C77.2963 37.5053 76.5014 37.8345 75.9154 38.4206C75.3293 39.0066 75.0001 39.8015 75.0001 40.6303C75.0001 49.7471 71.3784 58.4905 64.9319 64.9371C58.4853 71.3836 49.7419 75.0053 40.6251 75.0053C31.5082 75.0053 22.7648 71.3836 16.3183 64.9371C9.8717 58.4905 6.25006 49.7471 6.25006 40.6303Z" fill="#FC4639"/>
<path d="M86.5875 11.5928C86.8781 11.3022 87.1086 10.9573 87.2658 10.5777C87.4231 10.1981 87.504 9.79119 87.504 9.38029C87.504 8.96939 87.4231 8.56252 87.2658 8.18289C87.1086 7.80327 86.8781 7.45834 86.5875 7.16779C86.297 6.87724 85.9521 6.64676 85.5724 6.48952C85.1928 6.33228 84.7859 6.25134 84.375 6.25134C83.9641 6.25134 83.5573 6.33228 83.1776 6.48952C82.798 6.64676 82.4531 6.87724 82.1625 7.16779L40.625 48.7115L24.0875 32.1678C23.797 31.8772 23.4521 31.6468 23.0724 31.4895C22.6928 31.3323 22.2859 31.2513 21.875 31.2513C21.4641 31.2513 21.0573 31.3323 20.6776 31.4895C20.298 31.6468 19.9531 31.8772 19.6625 32.1678C19.372 32.4583 19.1415 32.8033 18.9843 33.1829C18.827 33.5625 18.7461 33.9694 18.7461 34.3803C18.7461 34.7912 18.827 35.1981 18.9843 35.5777C19.1415 35.9573 19.372 36.3022 19.6625 36.5928L38.4125 55.3428C38.7028 55.6338 39.0477 55.8647 39.4273 56.0222C39.807 56.1798 40.214 56.2609 40.625 56.2609C41.0361 56.2609 41.4431 56.1798 41.8228 56.0222C42.2024 55.8647 42.5473 55.6338 42.8375 55.3428L86.5875 11.5928Z" fill="#FC4639"/>
</svg>
