<svg width="60" height="60" viewBox="0 0 60 60" fill="none" xmlns="http://www.w3.org/2000/svg">
<path fill-rule="evenodd" clip-rule="evenodd" d="M23.315 0.326029C23.0004 0.651671 23 0.654516 23 3.12088C23 5.56979 23.0025 5.59242 23.3069 5.9072L23.6136 6.22469H28.3179H33.0223L32.9777 8.84353C32.9344 11.3893 32.9239 11.4807 32.5985 12.1228C32.1032 13.1003 31.7257 13.5042 30.8501 13.9926C30.1289 14.395 29.973 14.4318 29 14.4292C28.0971 14.4268 27.8416 14.3748 27.2991 14.0832C26.3588 13.5776 25.9639 13.184 25.5065 12.296C25.1445 11.5932 25.0868 11.3403 25.015 10.1425C24.9422 8.92837 24.9028 8.75934 24.6405 8.53949C24.2244 8.19096 23.6787 8.22652 23.2911 8.62756C22.9757 8.95385 22.97 8.99135 23.0299 10.3411C23.0984 11.8869 23.359 12.7733 24.0635 13.8564L24.4827 14.501L24.1476 14.579C22.5509 14.9499 21.9047 15.2819 20.893 16.251C20.1574 16.9556 20.1281 16.9698 19.6635 16.8493C19.4018 16.7815 19.0366 16.691 18.8524 16.6482L18.5173 16.5702L18.9365 15.9256C19.167 15.5712 19.4865 14.9456 19.6464 14.5357C19.9281 13.8131 19.937 13.6711 19.9373 9.90387L19.9375 6.01764L19.4706 5.0402C18.9084 3.86295 18.1846 3.1298 17.0225 2.56026L16.1875 2.15094H13.9935H11.7995L10.855 2.63397C9.71725 3.21568 9.00863 3.96447 8.45813 5.16681L8.0625 6.0307V9.91047C8.0625 13.6723 8.07138 13.8129 8.35338 14.5357C8.51338 14.9456 8.833 15.5712 9.0635 15.9256L9.48275 16.5702L9.14762 16.6411C6.66412 17.1655 4.91525 18.7433 4.24425 21.0648C4.15687 21.367 4.08025 21.6138 4.074 21.6131C4.06763 21.6123 3.41563 21.4093 2.625 21.1618C1.83438 20.9142 1.05838 20.7112 0.900625 20.7104C0.493375 20.7086 0 21.2636 0 21.7236C0 22.4936 0.15175 22.5644 5.0625 24.0853C7.60625 24.8732 9.709 25.5396 9.73538 25.5662C9.76175 25.593 9.382 27.2746 8.89163 29.3033C8.40125 31.3321 8 33.1672 8 33.3815C8 34.3568 9.37213 34.6667 9.7995 33.7877C9.8905 33.6007 10.2396 32.2937 10.5754 30.8834C11.2854 27.9009 10.924 28.158 13.3599 28.9033C14.2109 29.1637 15.3077 29.4415 15.7974 29.5206C17.0525 29.7234 19.0646 29.5844 20.6017 29.1886C22.4397 28.7153 22.7782 28.7405 24.0907 29.4475C25.703 30.3161 25.6879 30.2698 24.6075 31.0221C23.3059 31.9284 22.0039 32.6313 20.6035 33.1836C18.7173 33.9277 18.0747 34.7152 18.067 36.2929C18.0599 37.7337 18.7426 38.8179 20.1436 39.5905C20.7892 39.9466 21.1055 40.0351 21.8988 40.0827C23.1828 40.1595 23.6429 39.991 26.0578 38.5589L28.0284 37.3902L29.0434 37.7219C31.5276 38.5338 34.1704 38.3604 36.2796 37.2471L36.7645 36.9912L38.226 37.8596C39.8713 38.8372 40.2572 38.9176 40.7072 38.3764C41.0435 37.972 41.08 37.5679 40.8156 37.1773C40.5395 36.7694 37.2038 34.8055 36.7881 34.8061C36.5952 34.8064 36.2406 34.9308 36 35.0826C35.2719 35.542 34.0967 35.9435 33.0434 36.0927C31.8281 36.2649 30.6049 36.1128 29.325 35.6306C27.8313 35.0677 28.0259 35.0216 25.4196 36.5577C22.9834 37.9937 22.5141 38.1673 21.5658 37.9833C20.923 37.8585 20 36.9216 20 36.394C20 35.7863 20.3269 35.5116 21.724 34.9455C24.0385 34.0077 25.8887 32.7974 28.3854 30.5884C29.239 29.833 30.2381 29.0694 30.6055 28.8914C31.4665 28.4744 32.4439 28.4551 33.9375 28.8257C36.3765 29.431 38.773 29.507 41.081 29.0523C41.6411 28.942 43.5697 28.4163 45.3669 27.8842C47.1639 27.3521 48.7095 26.9168 48.8015 26.9168C49.0262 26.9168 52.1644 39.8471 51.9556 39.9131C51.8769 39.938 50.7081 40.1125 49.3582 40.3008L46.904 40.6431L45.3535 39.7289C43.6521 38.7258 43.2181 38.6224 42.7718 39.114C42.4403 39.4792 42.4145 40.1493 42.72 40.4636C42.841 40.588 43.7039 41.1418 44.6374 41.694C46.7267 42.93 46.9375 43.1421 46.9375 44.008C46.9375 44.5891 46.8904 44.6989 46.4706 45.0969C45.6365 45.8878 45.6711 45.9015 40.1875 42.6112C34.4264 39.1543 34.374 39.1271 33.9064 39.359C33.7185 39.4521 33.4873 39.6958 33.3924 39.9005C33.0225 40.6988 33.1873 40.8351 37.9415 43.6644C41.1259 45.5595 42.3514 46.3546 42.5257 46.6389C42.8385 47.1487 42.7641 48.0209 42.3711 48.4537C42.0238 48.8363 41.3507 49.0804 40.9707 48.9617C40.815 48.9131 38.743 47.7158 36.3664 46.3012C33.9897 44.8865 31.9181 43.7291 31.763 43.7291C31.4171 43.7291 30.75 44.3924 30.75 44.7362C30.75 44.8744 30.8616 45.1343 30.9981 45.3138C31.1346 45.4934 32.8925 46.6196 34.9044 47.8167C36.9164 49.0137 38.7453 50.1783 38.9688 50.4046C39.8877 51.3355 39.1813 52.9112 37.845 52.9112C37.5315 52.9112 36.4552 52.3308 33.5276 50.5833C31.2301 49.2119 29.4954 48.2555 29.3056 48.2555C28.841 48.2555 28.5559 48.4503 28.3809 48.8875C28.0736 49.655 28.2655 49.8221 32.0639 52.0945C34.4806 53.5403 35.6299 54.3001 35.7806 54.5517C36.3854 55.5612 35.671 56.9217 34.5375 56.9196C34.3395 56.9192 33.5494 56.5495 32.7186 56.0685C31.5171 55.373 31.2375 55.1552 31.1829 54.8729C31.066 54.2692 30.4791 53.1746 30.0914 52.8371C29.4966 52.3192 28.7711 51.9895 28.06 51.9136C27.4049 51.8436 27.4014 51.8409 27.3226 51.3307C27.2081 50.5905 26.843 49.9244 26.2453 49.3657C25.6096 48.7716 25.1119 48.5451 24.1968 48.4339C23.5856 48.3596 23.5 48.314 23.5 48.063C23.5 47.2392 22.8513 46.1533 22.0001 45.5527C21.1669 44.9648 20.1895 44.7961 19.2241 45.0738C18.8048 45.1945 18.425 45.2467 18.3803 45.1901C18.3354 45.1334 18.1436 44.8678 17.954 44.5999C16.9409 43.1687 14.8756 42.846 13.3088 43.874L12.7269 44.2558L10.301 43.2669C8.96662 42.7228 7.87375 42.2405 7.87212 42.1951C7.8705 42.1497 8.13587 40.994 8.46175 39.6267L9.05425 37.141L8.79587 36.7816C8.603 36.5132 8.413 36.4125 8.046 36.3838C7.23387 36.3204 7.1315 36.5378 6.26175 40.1726C5.83625 41.9508 5.4345 43.6159 5.36888 43.8727L5.24975 44.3399L3.16512 43.9051C2.01862 43.6661 0.9755 43.4704 0.847125 43.4704C0.485375 43.4704 0 44.0516 0 44.4848C0 45.2856 0.2125 45.387 3.18538 46.0051C4.69138 46.318 6.02775 46.5742 6.155 46.5742C6.56762 46.5742 6.94512 46.0287 7.11887 45.1815C7.20975 44.7383 7.3475 44.3757 7.42488 44.3757C7.60375 44.3757 11.4075 45.9132 11.5256 46.0332C11.5741 46.0825 11.366 46.565 11.0634 47.1054C10.4109 48.2699 10.1906 49.0751 10.289 49.935C10.4832 51.6316 11.7445 52.916 13.4157 53.1193C14.0964 53.2019 14.0983 53.2034 14.1774 53.7152C14.2909 54.4501 14.6559 55.121 15.2381 55.6652C16.1679 56.5342 17.4304 56.8429 18.5625 56.4781L19.1875 56.2767L19.434 56.6308C20.4102 58.033 21.9762 58.6345 23.3979 58.1534C24.0341 57.938 24.064 57.9386 24.1859 58.1685C24.2555 58.2999 24.5675 58.672 24.8792 58.9953C25.9126 60.067 27.4805 60.3051 28.8266 59.5947C29.5344 59.2211 29.9552 58.7829 30.433 57.9221L30.7743 57.3073L31.5434 57.7697C33.5151 58.9548 34.3345 59.1704 35.5164 58.8149C36.8339 58.4186 37.8439 57.158 37.9668 55.7563C38.0309 55.0245 38.0532 54.9802 38.3611 54.9791C38.8423 54.9773 39.8819 54.4362 40.3654 53.9358C40.9193 53.3628 41.3722 52.3371 41.3737 51.6527C41.3749 51.1615 41.4101 51.0975 41.7188 51.0268C42.4837 50.8515 42.8791 50.6815 43.3616 50.3199C43.9381 49.8877 44.5726 48.8294 44.6915 48.1014C44.7715 47.6119 44.7757 47.6088 45.3633 47.6088C46.42 47.6088 47.2165 47.2723 47.9456 46.518C48.8819 45.5493 49.208 44.3153 48.8652 43.0379C48.7919 42.7646 48.7506 42.5214 48.7736 42.4976C48.8275 42.4419 52.5329 41.9093 52.5731 41.9515C52.5899 41.9689 52.7185 42.4487 52.859 43.0178C53.117 44.0621 53.4164 44.505 53.8645 44.505C53.9811 44.505 55.3086 44.2488 56.8146 43.9359C59.7875 43.3178 60 43.2164 60 42.4156C60 41.9824 59.5146 41.4012 59.1529 41.4012C59.0245 41.4012 57.9814 41.5969 56.8349 41.8359L54.7503 42.2707L54.631 41.8035C54.2606 40.3528 50.25 23.6686 50.25 23.5782C50.25 23.5186 52.3452 22.8191 54.9062 22.0237C59.8425 20.4906 60 20.4174 60 19.6544C60 19.1991 59.5085 18.6399 59.1084 18.6399C58.8997 18.6399 53.832 20.1427 52.7814 20.5162C52.6912 20.5481 52.486 20.2874 52.2965 19.9003C51.5758 18.429 49.7029 16.969 48.2585 16.7527C47.9445 16.7056 47.6463 16.6426 47.5959 16.6126C47.5455 16.5826 47.6965 16.269 47.9314 15.9156C48.5051 15.0527 48.8571 14.0345 48.9539 12.958C49.0293 12.1187 49.0153 12.0483 48.7101 11.7327C48.2961 11.3043 47.7195 11.2882 47.3274 11.6939C47.116 11.9126 47.0195 12.2037 46.9586 12.8062C46.8631 13.7517 46.2909 14.9807 45.7114 15.4853C45.5068 15.6634 45.0521 15.9635 44.7009 16.1524C44.1584 16.444 43.9029 16.496 43 16.4984C42.027 16.501 41.8711 16.4642 41.1499 16.0618C40.2739 15.5731 39.8959 15.1687 39.4024 14.192C39.0819 13.558 39.0667 13.4359 39.023 11.1317L38.9774 8.73179L39.4745 8.39141C40.1722 7.91355 40.7738 7.67314 41.678 7.51019C42.8003 7.30792 43.6939 7.51562 45.9227 8.49655C46.9621 8.95398 47.9416 9.32824 48.0994 9.32837C48.2573 9.32837 48.5319 9.17797 48.7096 8.99407C49.0216 8.67127 49.0308 8.61825 48.9688 7.47449C48.8005 4.3681 46.9894 2.42615 43.9559 2.0996C43.1226 2.00998 42.5062 1.81069 40.5658 1.00357C39.2614 0.461045 38.0785 0.017071 37.9374 0.017071C37.7961 0.017071 37.5658 0.100356 37.4254 0.202136C37.1118 0.42936 36.4538 1.88156 36.1931 2.92172C35.8114 4.44543 36.0166 6.57891 36.6659 7.8335C36.9119 8.30916 36.9441 8.61424 37.008 11.0744C37.0861 14.0815 37.1973 14.5939 38.0588 15.9183C38.2866 16.2688 38.4416 16.5879 38.4033 16.6278C38.3647 16.6675 38.1658 16.7001 37.9609 16.7001C37.6929 16.7001 37.4229 16.5398 36.9982 16.129C36.1661 15.3236 35.2388 14.8647 33.8524 14.5719L33.5173 14.501L33.9365 13.8564C34.167 13.502 34.4865 12.8764 34.6464 12.4665C34.9281 11.7439 34.937 11.6017 34.9372 7.84126L34.9375 3.9615L34.5419 3.0976C33.9915 1.89578 33.2827 1.14647 32.1455 0.564764L31.2014 0.0817337L27.4158 0.0408666L23.6301 0L23.315 0.326029ZM30.923 2.24354C31.4821 2.41451 32.75 3.60081 32.75 3.95309C32.75 4.13234 32.3079 4.15548 28.875 4.15548H25V3.12088V2.08628H27.7043C29.4621 2.08628 30.5885 2.14137 30.923 2.24354ZM43.6165 4.14772C44.8283 4.27744 45.34 4.48526 45.9798 5.10758C46.384 5.50086 46.9465 6.45243 46.8399 6.56275C46.811 6.59275 46.2229 6.38286 45.533 6.09653C43.786 5.3714 42.5969 5.2091 41.1561 5.49918C40.5276 5.62578 39.6932 5.90888 39.1942 6.16494C38.5452 6.49796 38.3015 6.56999 38.2291 6.44998C37.9141 5.92763 37.9494 3.65487 38.2851 2.8374L38.4811 2.35993L40.4926 3.19434C42.1559 3.88429 42.6968 4.04931 43.6165 4.14772ZM15.923 4.31274C16.4821 4.48371 17.75 5.67001 17.75 6.0223C17.75 6.20141 17.3195 6.22469 14 6.22469C10.6805 6.22469 10.25 6.20141 10.25 6.0223C10.25 5.70778 11.5116 4.48384 12 4.32451C12.604 4.12755 15.2908 4.11953 15.923 4.31274ZM17.9778 10.9127C17.9344 13.4585 17.9239 13.5499 17.5985 14.192C17.1032 15.1695 16.7257 15.5734 15.8501 16.0618C15.1289 16.4642 14.973 16.501 14 16.4984C13.0971 16.496 12.8416 16.444 12.2991 16.1524C11.3581 15.6464 10.9655 15.2546 10.4896 14.3465L10.0625 13.5316L10.0201 10.9127L9.97775 8.2939H14H18.0222L17.9778 10.9127ZM30 17.2471C30 17.9814 29.9955 17.9905 29.5 18.252L29 18.5159L28.5 18.252C28.0045 17.9905 28 17.9814 28 17.2471V16.5061H29H30V17.2471ZM26 17.8121C26 19.0284 26.0076 19.0609 26.3803 19.4209L26.7605 19.7885L26.3627 23.4823L25.965 27.1761L26.4336 27.9062C26.9665 28.7366 26.952 28.7356 25.4315 27.8315C23.9434 26.9468 23.2159 26.7352 21.9664 26.8238L20.9827 26.8935L21.0229 23.2517C21.0623 19.6784 21.0688 19.5977 21.3722 18.9632C21.9066 17.846 22.942 16.9715 24.0625 16.691C24.2687 16.6394 24.7891 16.5913 25.2188 16.5839L26 16.5707V17.8121ZM34.8676 17.0944C35.7236 17.5664 36.102 17.9713 36.6006 18.9494L36.9375 19.6099L36.977 23.4345L37.0164 27.2592L36.2581 27.1667C35.841 27.1159 34.9514 26.9543 34.2811 26.8076C33.6109 26.661 32.8102 26.4945 32.502 26.4377L31.9415 26.3345L31.591 23.0609L31.2406 19.7874L31.6203 19.4204C31.993 19.0602 32 19.0301 32 17.7939V16.5343L33.0486 16.6019C33.9194 16.6581 34.2281 16.7417 34.8676 17.0944ZM11 19.8813C11 21.1031 11.0061 21.1285 11.388 21.4976L11.776 21.8727L11.6871 22.9118C11.6118 23.7926 11.567 23.9409 11.3929 23.8851C11.2799 23.8489 10.5125 23.61 9.6875 23.3541C5.90425 22.1809 6.12488 22.2671 6.12625 21.9622C6.12825 21.4994 6.68825 20.3936 7.1765 19.8886C7.9955 19.0411 8.89487 18.6676 10.1562 18.6511L11 18.6399V19.8813ZM15 19.3486C15 20.0452 14.9915 20.0617 14.5 20.3212L14 20.5851L13.5 20.3212C13.0085 20.0617 13 20.0452 13 19.3486V18.6399H14H15V19.3486ZM19.1235 18.8453C19.1925 18.9167 19.1919 19.1682 19.1219 19.4807C19.0581 19.7651 19.0046 21.6637 19.003 23.6998L19 27.4017L18.6094 27.4826C18.3945 27.527 17.8955 27.5634 17.5005 27.5634H16.7822L16.7087 26.9491C16.6684 26.6112 16.5406 25.3329 16.4249 24.1083L16.2145 21.8817L16.6073 21.5023C16.9955 21.127 17 21.1084 17 19.8646V18.6067L18.0046 18.6668C18.5571 18.6999 19.0606 18.7803 19.1235 18.8453ZM39.7371 20.0625L40.1875 21.4204L41.0938 21.9117L42 22.403V24.5792V26.7554L40.9062 26.9605C40.3047 27.0732 39.6333 27.1863 39.4142 27.2115L39.016 27.2575L38.9629 23.3043C38.9338 21.1301 38.8664 19.1861 38.8133 18.9843C38.7261 18.653 38.7444 18.6217 39.0018 18.661C39.2419 18.6977 39.3575 18.918 39.7371 20.0625ZM44.3984 19.2988C44.2195 19.8777 44.122 19.9959 43.5974 20.271L43 20.5842L42.4026 20.271C41.878 19.9959 41.7805 19.8777 41.6016 19.2988L41.398 18.6399H43H44.602L44.3984 19.2988ZM48.7286 19.0813C49.4459 19.4574 50.1473 20.1286 50.4445 20.7232C50.5539 20.9421 50.6253 21.1377 50.603 21.1582C50.5807 21.1785 50.0573 21.3622 49.4399 21.5664C47.9335 22.0646 47.8469 22.2159 48.2029 23.728L48.4606 24.8231L46.3865 25.4343C45.2459 25.7705 44.2422 26.0732 44.1562 26.1071C44.0356 26.1544 44 25.7385 44 24.2858V22.403L44.9062 21.9117L45.8125 21.4204L46.207 20.2565C46.4241 19.6163 46.6319 18.9823 46.6689 18.8474C46.7276 18.6333 46.8219 18.6114 47.4134 18.6746C47.7859 18.7144 48.3778 18.8974 48.7286 19.0813ZM29.61 23.3926C29.7631 24.8685 29.9156 26.2507 29.9489 26.4641C30.0041 26.8192 29.956 26.8821 29.3795 27.2077C29.0332 27.4033 28.7226 27.5634 28.6893 27.5634C28.6559 27.5634 28.4939 27.3452 28.3293 27.0784L28.0299 26.5934L28.349 23.6513L28.6681 20.7091H28.9998H29.3314L29.61 23.3926ZM14.5169 24.9769C14.6292 26.1505 14.7115 27.1225 14.6998 27.137C14.688 27.1515 14.3851 27.0743 14.0268 26.9656C13.2704 26.7362 13.3029 26.8856 13.5107 24.5965C13.6769 22.7675 13.6819 22.7504 14.0308 22.8016C14.3004 22.8412 14.3212 22.935 14.5169 24.9769ZM16.2789 45.7684C16.5181 46.0161 16.667 46.327 16.7119 46.6729C16.7736 47.1489 16.6946 47.355 15.8967 48.798C14.7952 50.7905 14.5589 51.0359 13.7424 51.0359C13.2173 51.0359 13.0715 50.9757 12.7211 50.6132C12.3731 50.253 12.313 50.0996 12.3161 49.5786C12.3193 49.0574 12.4501 48.7369 13.1997 47.4148C14.2175 45.6201 14.6447 45.219 15.4259 45.3249C15.7399 45.3675 16.0443 45.5258 16.2789 45.7684ZM20.6817 47.1453C21.2188 47.3775 21.5286 47.8637 21.5448 48.4994C21.5551 48.907 21.3145 49.4357 20.207 51.4388C19.4644 52.7821 18.72 54.0094 18.5529 54.1663C17.88 54.7979 16.7017 54.5952 16.2931 53.7775C15.9401 53.0714 16.1222 52.5035 17.4632 50.1307C19.0952 47.2426 19.003 47.3815 19.4354 47.1607C19.9097 46.9184 20.1499 46.9155 20.6817 47.1453ZM24.5804 50.6654C24.8173 50.7817 25.0991 51.0533 25.2069 51.2689C25.535 51.9252 25.3644 52.5653 24.4069 54.2691C23.5013 55.8803 23.1026 56.2736 22.375 56.273C21.8856 56.2725 21.2546 55.7993 21.0421 55.2733C20.7876 54.6431 20.8851 54.3381 21.9446 52.4506C23.0451 50.4898 23.54 50.1546 24.5804 50.6654ZM28.7734 54.4275C29.3106 54.9835 29.3598 55.593 28.9368 56.4578C28.4105 57.5338 27.9895 57.8902 27.2442 57.8902C26.726 57.8902 26.5701 57.8285 26.2486 57.4958C25.721 56.9499 25.6413 56.329 26.0002 55.5617C26.3386 54.8386 26.8239 54.2214 27.1772 54.0645C27.6429 53.8577 28.386 54.0269 28.7734 54.4275Z" fill="#FC4639"/>
</svg>
